<svg width="1024" height="768" viewBox="0 0 1024 768" fill="none" xmlns="http://www.w3.org/2000/svg">
<g id="first_floor">
<rect width="1024" height="768" fill="white"/>
<g id="hallways">
<rect id="Rectangle 7" x="750" y="631" width="31" height="26" fill="#E8E8E8"/>
<rect id="Rectangle 28" x="692" y="631" width="24" height="26" fill="#E8E8E8"/>
<rect id="Rectangle 9" x="692" y="608" width="100" height="23" fill="#E8E8E8"/>
<rect id="Rectangle 10" x="692" y="511" width="89" height="97" fill="#E8E8E8"/>
<rect id="Rectangle 15" x="701" y="511" width="174" height="37" fill="#E8E8E8"/>
<rect id="Rectangle 16" x="806" y="273" width="45" height="238" fill="#E8E8E8"/>
<rect id="Rectangle 17" x="851" y="273" width="88" height="38" fill="#E8E8E8"/>
<rect id="Rectangle 19" x="39" y="273" width="777" height="38" fill="#E8E8E8"/>
<rect id="Rectangle 20" x="680" y="243" width="34" height="30" fill="#E8E8E8"/>
<rect id="Rectangle 22" x="390" y="249" width="34" height="24" fill="#E8E8E8"/>
<rect id="Rectangle 25" x="441" y="311" width="25" height="84" fill="#E8E8E8"/>
<rect id="Rectangle 27" x="39" y="311" width="34" height="58" fill="#E8E8E8"/>
<rect id="Rectangle 24" x="170" y="311" width="24" height="52" fill="#E8E8E8"/>
<rect id="Rectangle 26" x="290" y="311" width="28" height="82" fill="#E8E8E8"/>
<rect id="Rectangle 18" x="892" y="237" width="24" height="36" fill="#E8E8E8"/>
<rect id="Rectangle 11" x="553" y="511" width="139" height="62" fill="#E8E8E8"/>
<rect id="Rectangle 14" x="634" y="573" width="24" height="18" fill="#E8E8E8"/>
<rect id="Rectangle 12" x="552" y="486" width="23" height="87" fill="#E8E8E8"/>
<rect id="Rectangle 13" x="529" y="544" width="46" height="29" fill="#E8E8E8"/>
<rect id="Rectangle 8" x="716" y="631" width="34" height="81" fill="#E8E8E8"/>
</g>
<g id="nav">
<path id="to_guys_washroom_f1_01" d="M735.5 636.5V624C735.862 617.202 739.857 617.303 747 617.5H793" stroke="#1C3972" stroke-width="5"/>
<path id="to_elevator_f1_01" d="M735.5 632.5V572.5C735.358 564.307 733.912 561.631 728 561.5H661.5C649.967 561.265 646.993 563.142 647 569.5V589.5" stroke="#1C3972" stroke-width="5"/>
<path id="to_stairs_f1_01" d="M734 636.5V711.5" stroke="#1C3972" stroke-width="5"/>
<path id="to_lecture_hall_06" d="M735 634.5V550C735.421 533.994 739.337 530.113 751.5 530.5H874.5" stroke="#1C3972" stroke-width="5"/>
<path id="to_office_03" d="M735 635V554C734.534 543.983 732.603 539.829 721.5 540H581.5C569.09 539.722 564.428 537.734 564.5 527.5V489" stroke="#1C3972" stroke-width="5"/>
<path id="to_lecture_hall_04" d="M735 633.5V560C734.779 554.025 732.495 552.585 726 552.5H531" stroke="#1C3972" stroke-width="5"/>
<path id="to_ladies_washroom_f1_01" d="M735 634.5V548.5C735.535 534.586 740.629 530.696 757 531H813.5C824.692 531.438 829.062 529.106 829 516.5V317C828.76 300.219 832.418 295.005 847 295H887C898.337 294.819 902.256 292.277 903 281.5V238" stroke="#1C3972" stroke-width="5"/>
<path id="to_lecture_hall_05" d="M735 635.5V546C735.698 533.476 739.686 530.597 752 530.5H818C826.432 530.014 828.808 526.86 829 516.5V311.5C828.575 300.112 827.541 294.571 816 295H711.5C701.276 293.792 697.989 291.535 697.5 284V243.5" stroke="#1C3972" stroke-width="5"/>
<path id="to_office_04" d="M734.5 635V549C735.175 535.915 737.156 530.102 751.5 530H817C825.117 530.128 828.658 528.667 829 517V312C828.94 299.743 825.244 295.935 810.5 296H473C457.215 295.954 452.988 300.103 453.5 315V396.5" stroke="#1C3972" stroke-width="5"/>
<path id="to_auditorium" d="M735.5 635V550.5C735.826 536.076 738.054 530.198 752.5 531H813.5C826.307 531.862 829.85 527.461 830 511.5V313.5C829.742 300.568 826.487 295.547 809 295H433C412.283 295.563 407.143 291.455 407 278V245.5" stroke="#1C3972" stroke-width="5"/>
<path id="to_study_area_01" d="M735 634.5V550C734.692 535.711 738.29 532.315 749 531.5H814.5C825.038 531.77 829.537 529.75 830 514.5V313C829.178 297.036 823.831 294.7 811 295H315.5C305.262 295.745 302.343 298.845 302 309V393.5" stroke="#1C3972" stroke-width="5"/>
<path id="to_elevator_f1_02" d="M735 635V554.5C734.465 535.922 737.812 529.527 755 530.5H812.5C828.705 531.213 831.169 523.381 830 502.5V322C830.461 302.044 828.303 293.318 808.5 294H194.5C184.173 295.182 180.949 298.306 181 309.5V363.5" stroke="#1C3972" stroke-width="5"/>
<path id="to_stairs_f1_02" d="M735 634.5V548.5C735.072 533.614 739.016 531.091 749 531H814C827.659 530.757 829.831 524.742 829.5 509.5V318C829.831 299.766 825.583 294.287 810.5 294.5H74C59.6848 294.831 54.7136 297.801 54.5 311V368" stroke="#1C3972" stroke-width="5"/>
</g>
<g id="start">
<circle id="start_outer" cx="734" cy="634" r="10" fill="white"/>
<circle id="start_inner" cx="734" cy="634" r="8" fill="#1C3972"/>
</g>
<g id="interactables">
<g id="lecture_hall_05">
<rect id="room_lecture_hall_05" x="610" y="133" width="130" height="110" rx="10" fill="#D9D9D9" fill-opacity="0.9"/>
<rect id="entrance_lecture_hall_05" width="44" height="8" rx="4" transform="matrix(1 0 0 -1 675 247)" fill="#A4A4A4"/>
<path id="label_lecture_hall_05" d="M656.196 190V180.136H658.261V184.142H662.704V180.136H664.769V190H662.704V185.844H658.261V190H656.196ZM668.784 190.116C668.31 190.116 667.886 190.025 667.512 189.843C667.143 189.656 666.854 189.394 666.644 189.057C666.434 188.715 666.33 188.316 666.33 187.861V187.847C666.33 187.396 666.441 187.008 666.665 186.685C666.892 186.361 667.223 186.108 667.656 185.926C668.093 185.739 668.624 185.628 669.249 185.591L672.051 185.42V186.637L669.549 186.801C669.121 186.824 668.802 186.915 668.592 187.074C668.383 187.234 668.278 187.45 668.278 187.724V187.738C668.278 188.025 668.387 188.25 668.606 188.414C668.825 188.578 669.107 188.66 669.454 188.66C669.763 188.66 670.039 188.599 670.281 188.476C670.522 188.353 670.714 188.186 670.855 187.977C670.996 187.763 671.067 187.523 671.067 187.259V184.86C671.067 184.531 670.958 184.281 670.739 184.108C670.525 183.93 670.212 183.841 669.802 183.841C669.442 183.841 669.148 183.903 668.92 184.026C668.697 184.144 668.547 184.315 668.469 184.538L668.456 184.566H666.61L666.617 184.504C666.671 184.062 666.838 183.677 667.116 183.349C667.398 183.021 667.777 182.766 668.25 182.583C668.729 182.401 669.283 182.31 669.912 182.31C670.577 182.31 671.142 182.412 671.607 182.617C672.072 182.818 672.425 183.11 672.666 183.492C672.913 183.871 673.036 184.326 673.036 184.86V190H671.067V189.002H670.944C670.816 189.235 670.645 189.435 670.431 189.604C670.221 189.768 669.975 189.895 669.693 189.987C669.415 190.073 669.112 190.116 668.784 190.116ZM674.829 190V179.596H676.825V190H674.829ZM678.728 190V179.596H680.724V190H678.728ZM689.677 190.253C688.975 190.253 688.36 190.126 687.831 189.87C687.303 189.615 686.884 189.269 686.574 188.831C686.268 188.389 686.095 187.895 686.054 187.348L686.047 187.252H687.92L687.934 187.3C687.984 187.542 688.087 187.763 688.242 187.963C688.401 188.159 688.604 188.316 688.85 188.435C689.096 188.549 689.374 188.606 689.684 188.606C690.039 188.606 690.352 188.528 690.621 188.373C690.889 188.218 691.099 188.006 691.249 187.738C691.404 187.464 691.482 187.152 691.482 186.801V186.787C691.482 186.436 691.404 186.127 691.249 185.858C691.099 185.589 690.889 185.379 690.621 185.229C690.352 185.078 690.042 185.003 689.691 185.003C689.445 185.003 689.217 185.04 689.007 185.113C688.798 185.181 688.608 185.286 688.44 185.427C688.349 185.5 688.262 185.584 688.18 185.68C688.103 185.771 688.037 185.869 687.982 185.974H686.211L686.669 180.136H692.835V181.777H688.276L688.03 184.586H688.153C688.285 184.363 688.454 184.171 688.659 184.012C688.868 183.852 689.107 183.729 689.376 183.643C689.65 183.556 689.944 183.513 690.258 183.513C690.873 183.513 691.418 183.652 691.892 183.93C692.371 184.208 692.744 184.591 693.013 185.078C693.287 185.561 693.423 186.117 693.423 186.746V186.76C693.423 187.453 693.264 188.061 692.945 188.585C692.63 189.109 692.19 189.519 691.625 189.816C691.065 190.107 690.415 190.253 689.677 190.253Z" fill="black"/>
</g>
<g id="study_area_01">
<rect id="room_study_area_01" x="245" y="395" width="117" height="156" rx="10" fill="#D9D9D9" fill-opacity="0.9"/>
<rect id="entrance_study_area_01" width="39" height="8" rx="4" transform="matrix(1 0 0 -1 284 399)" fill="#A4A4A4"/>
<path id="label_study_area_01" d="M288.038 459.253C287.254 459.253 286.573 459.134 285.994 458.897C285.415 458.66 284.959 458.328 284.627 457.899C284.299 457.466 284.114 456.958 284.073 456.375L284.066 456.266H286.055L286.062 456.334C286.09 456.58 286.19 456.797 286.363 456.983C286.541 457.166 286.778 457.309 287.074 457.414C287.37 457.519 287.71 457.571 288.093 457.571C288.462 457.571 288.785 457.517 289.063 457.407C289.341 457.298 289.558 457.147 289.713 456.956C289.872 456.76 289.952 456.537 289.952 456.286V456.279C289.952 455.956 289.82 455.696 289.555 455.5C289.296 455.304 288.858 455.142 288.243 455.015L287.204 454.803C286.179 454.593 285.433 454.249 284.969 453.771C284.504 453.292 284.271 452.679 284.271 451.932V451.925C284.271 451.314 284.433 450.781 284.757 450.325C285.08 449.869 285.525 449.516 286.09 449.266C286.655 449.01 287.302 448.883 288.031 448.883C288.797 448.883 289.453 449.008 290 449.259C290.551 449.505 290.982 449.844 291.292 450.277C291.602 450.706 291.777 451.196 291.818 451.747L291.825 451.836H289.884L289.87 451.754C289.829 451.517 289.729 451.31 289.569 451.132C289.414 450.954 289.205 450.815 288.94 450.715C288.68 450.61 288.377 450.558 288.031 450.558C287.694 450.558 287.398 450.608 287.142 450.708C286.887 450.808 286.689 450.95 286.548 451.132C286.406 451.31 286.336 451.521 286.336 451.768V451.774C286.336 452.093 286.463 452.355 286.719 452.561C286.978 452.761 287.398 452.921 287.976 453.039L289.022 453.251C289.72 453.392 290.287 453.584 290.724 453.825C291.166 454.067 291.492 454.37 291.702 454.734C291.912 455.099 292.016 455.539 292.016 456.054V456.061C292.016 456.712 291.855 457.277 291.531 457.756C291.212 458.23 290.754 458.599 290.157 458.863C289.565 459.123 288.858 459.253 288.038 459.253ZM296.667 459.027C295.756 459.027 295.1 458.868 294.699 458.549C294.297 458.225 294.097 457.699 294.097 456.97V452.978H292.935V451.474H294.097V449.676H296.114V451.474H297.665V452.978H296.114V456.512C296.114 456.849 296.189 457.097 296.339 457.257C296.494 457.412 296.74 457.489 297.077 457.489C297.205 457.489 297.31 457.487 297.392 457.482C297.478 457.473 297.57 457.464 297.665 457.455V458.938C297.542 458.961 297.394 458.982 297.221 459C297.048 459.018 296.863 459.027 296.667 459.027ZM301.585 459.157C301.024 459.157 300.553 459.048 300.17 458.829C299.791 458.61 299.507 458.291 299.315 457.872C299.124 457.448 299.028 456.938 299.028 456.341V451.474H301.024V455.883C301.024 456.416 301.129 456.819 301.339 457.093C301.553 457.366 301.897 457.503 302.371 457.503C302.617 457.503 302.833 457.464 303.02 457.387C303.212 457.305 303.371 457.191 303.499 457.045C303.626 456.899 303.722 456.724 303.786 456.519C303.854 456.309 303.888 456.076 303.888 455.821V451.474H305.885V459H303.888V457.838H303.765C303.651 458.111 303.492 458.348 303.287 458.549C303.082 458.745 302.836 458.895 302.549 459C302.261 459.105 301.94 459.157 301.585 459.157ZM310.344 459.116C309.72 459.116 309.177 458.961 308.717 458.651C308.261 458.337 307.908 457.89 307.657 457.312C307.411 456.733 307.288 456.042 307.288 455.24V455.227C307.288 454.42 307.409 453.727 307.651 453.148C307.897 452.57 308.248 452.125 308.703 451.815C309.159 451.506 309.706 451.351 310.344 451.351C310.686 451.351 311.003 451.405 311.294 451.515C311.59 451.619 311.85 451.77 312.073 451.966C312.297 452.162 312.47 452.399 312.593 452.677H312.716V448.596H314.712V459H312.716V457.831H312.593C312.465 458.1 312.292 458.33 312.073 458.521C311.859 458.713 311.606 458.861 311.315 458.966C311.023 459.066 310.699 459.116 310.344 459.116ZM311.021 457.462C311.376 457.462 311.682 457.373 311.937 457.195C312.192 457.018 312.388 456.762 312.525 456.43C312.666 456.097 312.737 455.703 312.737 455.247V455.233C312.737 454.769 312.666 454.372 312.525 454.044C312.388 453.711 312.19 453.456 311.93 453.278C311.675 453.096 311.372 453.005 311.021 453.005C310.674 453.005 310.371 453.096 310.112 453.278C309.856 453.456 309.66 453.711 309.524 454.044C309.387 454.372 309.319 454.766 309.319 455.227V455.24C309.319 455.701 309.387 456.097 309.524 456.43C309.66 456.762 309.856 457.018 310.112 457.195C310.367 457.373 310.67 457.462 311.021 457.462ZM317.442 461.652C317.328 461.652 317.21 461.65 317.087 461.646C316.964 461.641 316.843 461.636 316.724 461.632V460.128C316.793 460.137 316.872 460.142 316.964 460.142C317.059 460.146 317.153 460.148 317.244 460.148C317.599 460.148 317.882 460.078 318.092 459.937C318.301 459.795 318.44 459.579 318.509 459.287L318.577 459L315.931 451.474H318.126L319.924 457.968L319.466 457.175H320.06L319.623 457.968L321.421 451.474H323.526L320.963 458.993C320.744 459.654 320.477 460.178 320.163 460.565C319.853 460.957 319.477 461.235 319.035 461.399C318.593 461.568 318.062 461.652 317.442 461.652ZM287.904 479L291.328 469.136H293.085V471.104H292.484L290.071 479H287.904ZM289.736 476.607L290.241 475.062H294.801L295.307 476.607H289.736ZM295.013 479L292.607 471.104V469.136H293.755L297.187 479H295.013ZM298.433 479V471.474H300.429V472.643H300.552C300.676 472.232 300.901 471.916 301.229 471.692C301.557 471.465 301.965 471.351 302.453 471.351C302.59 471.351 302.722 471.36 302.849 471.378C302.982 471.396 303.098 471.419 303.198 471.446V473.189C303.048 473.153 302.895 473.126 302.74 473.107C302.59 473.085 302.437 473.073 302.282 473.073C301.904 473.073 301.576 473.144 301.298 473.285C301.02 473.422 300.805 473.618 300.655 473.873C300.505 474.128 300.429 474.434 300.429 474.789V479H298.433ZM307.446 479.157C306.684 479.157 306.028 479 305.477 478.686C304.93 478.367 304.508 477.915 304.212 477.332C303.916 476.749 303.768 476.054 303.768 475.247V475.24C303.768 474.443 303.914 473.75 304.205 473.162C304.502 472.574 304.919 472.118 305.456 471.795C305.999 471.471 306.634 471.31 307.364 471.31C308.097 471.31 308.731 471.467 309.264 471.781C309.797 472.096 310.207 472.535 310.494 473.101C310.781 473.666 310.925 474.329 310.925 475.09V475.712H304.766V474.461H309.968L309.031 475.644V474.844C309.031 474.393 308.961 474.017 308.82 473.716C308.683 473.415 308.491 473.189 308.245 473.039C308.004 472.884 307.721 472.807 307.398 472.807C307.079 472.807 306.794 472.886 306.543 473.046C306.297 473.201 306.101 473.431 305.955 473.736C305.814 474.037 305.743 474.406 305.743 474.844V475.65C305.743 476.074 305.814 476.437 305.955 476.737C306.097 477.038 306.297 477.268 306.557 477.428C306.817 477.587 307.127 477.667 307.487 477.667C307.778 477.667 308.027 477.624 308.232 477.537C308.437 477.451 308.601 477.35 308.724 477.236C308.851 477.118 308.938 477.011 308.984 476.915L309.004 476.874H310.864L310.85 476.942C310.791 477.179 310.684 477.428 310.529 477.688C310.374 477.943 310.159 478.182 309.886 478.405C309.617 478.629 309.28 478.811 308.874 478.952C308.473 479.089 307.997 479.157 307.446 479.157ZM314.38 479.116C313.906 479.116 313.482 479.025 313.108 478.843C312.739 478.656 312.45 478.394 312.24 478.057C312.03 477.715 311.926 477.316 311.926 476.86V476.847C311.926 476.396 312.037 476.008 312.26 475.685C312.488 475.361 312.819 475.108 313.252 474.926C313.689 474.739 314.22 474.627 314.844 474.591L317.647 474.42V475.637L315.145 475.801C314.717 475.824 314.398 475.915 314.188 476.074C313.979 476.234 313.874 476.45 313.874 476.724V476.737C313.874 477.024 313.983 477.25 314.202 477.414C314.421 477.578 314.703 477.66 315.05 477.66C315.359 477.66 315.635 477.599 315.877 477.476C316.118 477.353 316.31 477.186 316.451 476.977C316.592 476.762 316.663 476.523 316.663 476.259V473.859C316.663 473.531 316.553 473.281 316.335 473.107C316.12 472.93 315.808 472.841 315.398 472.841C315.038 472.841 314.744 472.902 314.516 473.025C314.293 473.144 314.143 473.315 314.065 473.538L314.051 473.565H312.206L312.213 473.504C312.267 473.062 312.434 472.677 312.712 472.349C312.994 472.021 313.372 471.765 313.846 471.583C314.325 471.401 314.879 471.31 315.508 471.31C316.173 471.31 316.738 471.412 317.203 471.617C317.668 471.818 318.021 472.109 318.262 472.492C318.509 472.87 318.632 473.326 318.632 473.859V479H316.663V478.002H316.54C316.412 478.234 316.241 478.435 316.027 478.604C315.817 478.768 315.571 478.895 315.289 478.986C315.011 479.073 314.708 479.116 314.38 479.116Z" fill="black"/>
</g>
<g id="auditorium">
<rect id="room_auditorium" x="272" y="133" width="276" height="112" rx="10" fill="#D9D9D9" fill-opacity="0.9"/>
<rect id="entrance_auditorium" width="44" height="8" rx="4" transform="matrix(1 0 0 -1 385 249)" fill="#A4A4A4"/>
<path id="label_auditorium" d="M374.492 192L377.917 182.136H379.674V184.105H379.072L376.659 192H374.492ZM376.324 189.608L376.83 188.063H381.39L381.896 189.608H376.324ZM381.602 192L379.195 184.105V182.136H380.344L383.775 192H381.602ZM387.1 192.157C386.54 192.157 386.068 192.048 385.685 191.829C385.307 191.611 385.022 191.292 384.831 190.872C384.639 190.448 384.543 189.938 384.543 189.341V184.474H386.54V188.883C386.54 189.416 386.644 189.82 386.854 190.093C387.068 190.366 387.412 190.503 387.886 190.503C388.132 190.503 388.349 190.464 388.536 190.387C388.727 190.305 388.887 190.191 389.014 190.045C389.142 189.899 389.237 189.724 389.301 189.519C389.37 189.309 389.404 189.077 389.404 188.822V184.474H391.4V192H389.404V190.838H389.281C389.167 191.112 389.007 191.349 388.802 191.549C388.597 191.745 388.351 191.895 388.064 192C387.777 192.105 387.456 192.157 387.1 192.157ZM395.859 192.116C395.235 192.116 394.693 191.962 394.232 191.652C393.777 191.337 393.423 190.891 393.173 190.312C392.927 189.733 392.804 189.043 392.804 188.24V188.227C392.804 187.42 392.924 186.727 393.166 186.149C393.412 185.57 393.763 185.126 394.219 184.816C394.674 184.506 395.221 184.351 395.859 184.351C396.201 184.351 396.518 184.406 396.81 184.515C397.106 184.62 397.366 184.77 397.589 184.966C397.812 185.162 397.985 185.399 398.108 185.677H398.231V181.596H400.228V192H398.231V190.831H398.108C397.981 191.1 397.808 191.33 397.589 191.522C397.375 191.713 397.122 191.861 396.83 191.966C396.538 192.066 396.215 192.116 395.859 192.116ZM396.536 190.462C396.892 190.462 397.197 190.373 397.452 190.196C397.707 190.018 397.903 189.763 398.04 189.43C398.181 189.097 398.252 188.703 398.252 188.247V188.234C398.252 187.769 398.181 187.372 398.04 187.044C397.903 186.712 397.705 186.456 397.445 186.279C397.19 186.096 396.887 186.005 396.536 186.005C396.19 186.005 395.887 186.096 395.627 186.279C395.372 186.456 395.176 186.712 395.039 187.044C394.902 187.372 394.834 187.767 394.834 188.227V188.24C394.834 188.701 394.902 189.097 395.039 189.43C395.176 189.763 395.372 190.018 395.627 190.196C395.882 190.373 396.185 190.462 396.536 190.462ZM402.076 192V184.474H404.072V192H402.076ZM403.081 183.319C402.775 183.319 402.511 183.212 402.288 182.997C402.064 182.779 401.953 182.517 401.953 182.211C401.953 181.901 402.064 181.639 402.288 181.425C402.511 181.206 402.775 181.097 403.081 181.097C403.39 181.097 403.655 181.206 403.873 181.425C404.092 181.639 404.202 181.901 404.202 182.211C404.202 182.517 404.092 182.779 403.873 182.997C403.655 183.212 403.39 183.319 403.081 183.319ZM408.976 192.028C408.064 192.028 407.408 191.868 407.007 191.549C406.606 191.226 406.405 190.699 406.405 189.97V185.978H405.243V184.474H406.405V182.676H408.422V184.474H409.974V185.978H408.422V189.512C408.422 189.849 408.497 190.098 408.647 190.257C408.802 190.412 409.048 190.49 409.386 190.49C409.513 190.49 409.618 190.487 409.7 190.483C409.787 190.474 409.878 190.464 409.974 190.455V191.939C409.851 191.962 409.702 191.982 409.529 192C409.356 192.018 409.171 192.028 408.976 192.028ZM414.693 192.157C413.923 192.157 413.26 192.003 412.704 191.693C412.148 191.378 411.721 190.929 411.425 190.346C411.129 189.758 410.981 189.056 410.981 188.24V188.227C410.981 187.416 411.131 186.718 411.432 186.135C411.733 185.552 412.159 185.103 412.71 184.788C413.266 184.469 413.927 184.31 414.693 184.31C415.458 184.31 416.117 184.467 416.668 184.781C417.224 185.096 417.653 185.547 417.954 186.135C418.254 186.718 418.405 187.416 418.405 188.227V188.24C418.405 189.056 418.257 189.758 417.96 190.346C417.664 190.929 417.238 191.378 416.682 191.693C416.131 192.003 415.468 192.157 414.693 192.157ZM414.693 190.592C415.048 190.592 415.349 190.499 415.595 190.312C415.841 190.125 416.03 189.856 416.162 189.505C416.295 189.154 416.361 188.733 416.361 188.24V188.227C416.361 187.735 416.295 187.315 416.162 186.969C416.03 186.618 415.839 186.349 415.588 186.162C415.342 185.971 415.044 185.875 414.693 185.875C414.342 185.875 414.041 185.971 413.79 186.162C413.544 186.349 413.355 186.618 413.223 186.969C413.091 187.315 413.025 187.735 413.025 188.227V188.24C413.025 188.737 413.089 189.161 413.216 189.512C413.348 189.863 413.537 190.132 413.784 190.319C414.034 190.501 414.337 190.592 414.693 190.592ZM419.802 192V184.474H421.798V185.643H421.921C422.044 185.233 422.269 184.916 422.598 184.693C422.926 184.465 423.334 184.351 423.821 184.351C423.958 184.351 424.09 184.36 424.218 184.378C424.35 184.396 424.466 184.419 424.566 184.447V186.19C424.416 186.153 424.263 186.126 424.108 186.108C423.958 186.085 423.805 186.073 423.65 186.073C423.272 186.073 422.944 186.144 422.666 186.285C422.388 186.422 422.174 186.618 422.023 186.873C421.873 187.128 421.798 187.434 421.798 187.789V192H419.802ZM425.683 192V184.474H427.679V192H425.683ZM426.688 183.319C426.383 183.319 426.118 183.212 425.895 182.997C425.672 182.779 425.56 182.517 425.56 182.211C425.56 181.901 425.672 181.639 425.895 181.425C426.118 181.206 426.383 181.097 426.688 181.097C426.998 181.097 427.262 181.206 427.481 181.425C427.7 181.639 427.809 181.901 427.809 182.211C427.809 182.517 427.7 182.779 427.481 182.997C427.262 183.212 426.998 183.319 426.688 183.319ZM431.947 192.157C431.387 192.157 430.915 192.048 430.532 191.829C430.154 191.611 429.869 191.292 429.678 190.872C429.486 190.448 429.39 189.938 429.39 189.341V184.474H431.387V188.883C431.387 189.416 431.491 189.82 431.701 190.093C431.915 190.366 432.259 190.503 432.733 190.503C432.979 190.503 433.196 190.464 433.383 190.387C433.574 190.305 433.734 190.191 433.861 190.045C433.989 189.899 434.084 189.724 434.148 189.519C434.217 189.309 434.251 189.077 434.251 188.822V184.474H436.247V192H434.251V190.838H434.128C434.014 191.112 433.854 191.349 433.649 191.549C433.444 191.745 433.198 191.895 432.911 192C432.624 192.105 432.303 192.157 431.947 192.157ZM438.02 192V184.474H440.016V185.65H440.139C440.298 185.226 440.563 184.898 440.932 184.665C441.301 184.428 441.732 184.31 442.224 184.31C442.566 184.31 442.876 184.367 443.154 184.481C443.432 184.59 443.669 184.747 443.865 184.952C444.061 185.157 444.211 185.406 444.316 185.698H444.439C444.553 185.42 444.721 185.178 444.945 184.973C445.168 184.763 445.43 184.601 445.731 184.488C446.032 184.369 446.357 184.31 446.708 184.31C447.21 184.31 447.64 184.412 448 184.617C448.365 184.823 448.645 185.114 448.841 185.492C449.042 185.866 449.142 186.313 449.142 186.832V192H447.146V187.331C447.146 187.026 447.1 186.773 447.009 186.573C446.918 186.372 446.779 186.222 446.592 186.121C446.41 186.017 446.18 185.964 445.902 185.964C445.633 185.964 445.398 186.026 445.198 186.149C445.002 186.272 444.849 186.438 444.74 186.648C444.63 186.857 444.576 187.099 444.576 187.372V192H442.579V187.242C442.579 186.974 442.529 186.743 442.429 186.552C442.333 186.361 442.192 186.215 442.005 186.115C441.823 186.014 441.602 185.964 441.342 185.964C441.082 185.964 440.852 186.03 440.652 186.162C440.456 186.29 440.301 186.468 440.187 186.696C440.073 186.919 440.016 187.174 440.016 187.461V192H438.02Z" fill="black"/>
</g>
<g id="lecture_hall_06">
<rect id="room_lecture_hall_06" x="875" y="470" width="130" height="112" rx="10" fill="#D9D9D9" fill-opacity="0.9"/>
<rect id="entrance_lecture_hall_06" width="8" height="43" rx="4" transform="matrix(1 0 0 -1 871 551)" fill="#A4A4A4"/>
<path id="label_lecture_hall_06" d="M921.196 529V519.136H923.261V523.142H927.704V519.136H929.769V529H927.704V524.844H923.261V529H921.196ZM933.784 529.116C933.31 529.116 932.886 529.025 932.512 528.843C932.143 528.656 931.854 528.394 931.644 528.057C931.434 527.715 931.33 527.316 931.33 526.861V526.847C931.33 526.396 931.441 526.008 931.665 525.685C931.892 525.361 932.223 525.108 932.656 524.926C933.093 524.739 933.624 524.628 934.249 524.591L937.051 524.42V525.637L934.549 525.801C934.121 525.824 933.802 525.915 933.592 526.074C933.383 526.234 933.278 526.45 933.278 526.724V526.738C933.278 527.025 933.387 527.25 933.606 527.414C933.825 527.578 934.107 527.66 934.454 527.66C934.763 527.66 935.039 527.599 935.281 527.476C935.522 527.353 935.714 527.186 935.855 526.977C935.996 526.763 936.067 526.523 936.067 526.259V523.86C936.067 523.531 935.958 523.281 935.739 523.108C935.525 522.93 935.212 522.841 934.802 522.841C934.442 522.841 934.148 522.903 933.92 523.026C933.697 523.144 933.547 523.315 933.469 523.538L933.456 523.566H931.61L931.617 523.504C931.671 523.062 931.838 522.677 932.116 522.349C932.398 522.021 932.777 521.766 933.25 521.583C933.729 521.401 934.283 521.31 934.912 521.31C935.577 521.31 936.142 521.412 936.607 521.617C937.072 521.818 937.425 522.11 937.666 522.492C937.913 522.871 938.036 523.326 938.036 523.86V529H936.067V528.002H935.944C935.816 528.235 935.645 528.435 935.431 528.604C935.221 528.768 934.975 528.895 934.693 528.987C934.415 529.073 934.112 529.116 933.784 529.116ZM939.829 529V518.596H941.825V529H939.829ZM943.728 529V518.596H945.724V529H943.728ZM954.869 529.253C954.294 529.253 953.761 529.151 953.269 528.946C952.777 528.74 952.344 528.428 951.97 528.009C951.601 527.59 951.312 527.061 951.102 526.423C950.897 525.785 950.794 525.031 950.794 524.16V524.147C950.794 523.048 950.958 522.107 951.287 521.323C951.619 520.535 952.091 519.931 952.702 519.512C953.312 519.093 954.037 518.883 954.875 518.883C955.513 518.883 956.088 518.999 956.598 519.232C957.108 519.464 957.528 519.781 957.856 520.182C958.189 520.583 958.405 521.041 958.505 521.556L958.519 521.624H956.502L956.475 521.563C956.398 521.353 956.284 521.173 956.133 521.023C955.987 520.868 955.81 520.747 955.6 520.66C955.39 520.574 955.151 520.531 954.882 520.531C954.408 520.531 954.019 520.672 953.713 520.954C953.408 521.237 953.178 521.62 953.023 522.103C952.872 522.586 952.784 523.126 952.756 523.723C952.752 523.791 952.749 523.86 952.749 523.928C952.749 523.992 952.749 524.06 952.749 524.133L953.057 525.781C953.057 526.127 953.137 526.439 953.296 526.717C953.456 526.995 953.672 527.216 953.946 527.38C954.219 527.54 954.522 527.619 954.855 527.619C955.188 527.619 955.488 527.54 955.757 527.38C956.031 527.221 956.247 527.006 956.407 526.738C956.571 526.464 956.653 526.159 956.653 525.822V525.808C956.653 525.462 956.575 525.156 956.42 524.892C956.265 524.623 956.053 524.411 955.785 524.256C955.52 524.101 955.215 524.024 954.869 524.024C954.531 524.024 954.226 524.099 953.953 524.249C953.679 524.4 953.46 524.607 953.296 524.871C953.137 525.131 953.057 525.432 953.057 525.774V525.781H952.647V523.948H952.886C953.009 523.693 953.182 523.456 953.406 523.238C953.629 523.019 953.909 522.843 954.246 522.711C954.584 522.574 954.978 522.506 955.429 522.506C956.072 522.506 956.635 522.645 957.118 522.923C957.601 523.201 957.977 523.584 958.246 524.072C958.514 524.559 958.649 525.115 958.649 525.74V525.753C958.649 526.423 958.487 527.022 958.163 527.551C957.844 528.08 957.4 528.497 956.83 528.802C956.265 529.103 955.611 529.253 954.869 529.253Z" fill="black"/>
</g>
<g id="lecture_hall_04">
<rect id="room_lecture_hall_04" x="382" y="502" width="147" height="111" rx="10" fill="#D9D9D9" fill-opacity="0.9"/>
<rect id="entrance_lecture_hall_04" width="5" height="37" rx="2.5" transform="matrix(1 0 0 -1 527 576)" fill="#A4A4A4"/>
<path id="label_lecture_hall_04" d="M437.196 563V553.136H439.261V557.142H443.704V553.136H445.769V563H443.704V558.844H439.261V563H437.196ZM449.784 563.116C449.31 563.116 448.886 563.025 448.512 562.843C448.143 562.656 447.854 562.394 447.644 562.057C447.434 561.715 447.33 561.316 447.33 560.861V560.847C447.33 560.396 447.441 560.008 447.665 559.685C447.892 559.361 448.223 559.108 448.656 558.926C449.093 558.739 449.624 558.628 450.249 558.591L453.051 558.42V559.637L450.549 559.801C450.121 559.824 449.802 559.915 449.592 560.074C449.383 560.234 449.278 560.45 449.278 560.724V560.738C449.278 561.025 449.387 561.25 449.606 561.414C449.825 561.578 450.107 561.66 450.454 561.66C450.763 561.66 451.039 561.599 451.281 561.476C451.522 561.353 451.714 561.186 451.855 560.977C451.996 560.763 452.067 560.523 452.067 560.259V557.86C452.067 557.531 451.958 557.281 451.739 557.108C451.525 556.93 451.212 556.841 450.802 556.841C450.442 556.841 450.148 556.903 449.92 557.026C449.697 557.144 449.547 557.315 449.469 557.538L449.456 557.566H447.61L447.617 557.504C447.671 557.062 447.838 556.677 448.116 556.349C448.398 556.021 448.777 555.766 449.25 555.583C449.729 555.401 450.283 555.31 450.912 555.31C451.577 555.31 452.142 555.412 452.607 555.617C453.072 555.818 453.425 556.11 453.666 556.492C453.913 556.871 454.036 557.326 454.036 557.86V563H452.067V562.002H451.944C451.816 562.235 451.645 562.435 451.431 562.604C451.221 562.768 450.975 562.895 450.693 562.987C450.415 563.073 450.112 563.116 449.784 563.116ZM455.829 563V552.596H457.825V563H455.829ZM459.728 563V552.596H461.724V563H459.728ZM471.511 563V561.189H466.678V559.569C466.929 559.122 467.182 558.68 467.437 558.242C467.692 557.8 467.95 557.363 468.209 556.93C468.474 556.492 468.736 556.062 468.996 555.638C469.26 555.21 469.524 554.788 469.788 554.373C470.053 553.954 470.317 553.542 470.581 553.136H473.48V559.534H474.765V561.189H473.48V563H471.511ZM468.538 559.589H471.552V554.701H471.443C471.251 554.998 471.055 555.301 470.855 555.611C470.659 555.92 470.461 556.237 470.26 556.561C470.064 556.884 469.866 557.21 469.665 557.538C469.469 557.862 469.276 558.188 469.084 558.516C468.898 558.839 468.715 559.161 468.538 559.48V559.589Z" fill="black"/>
</g>
<g id="office_04">
<rect id="room_office_04" x="400" y="395" width="111" height="78" rx="10" fill="#D9D9D9" fill-opacity="0.9"/>
<path id="label_office_04" d="M433.51 441.253C432.535 441.253 431.691 441.043 430.98 440.624C430.27 440.2 429.72 439.601 429.333 438.826C428.95 438.051 428.759 437.133 428.759 436.071V436.058C428.759 434.991 428.952 434.073 429.34 433.303C429.732 432.528 430.283 431.931 430.994 431.512C431.705 431.092 432.544 430.883 433.51 430.883C434.48 430.883 435.319 431.092 436.025 431.512C436.736 431.931 437.285 432.528 437.673 433.303C438.06 434.077 438.254 434.996 438.254 436.058V436.071C438.254 437.133 438.06 438.051 437.673 438.826C437.29 439.601 436.743 440.2 436.032 440.624C435.321 441.043 434.48 441.253 433.51 441.253ZM433.51 439.503C434.043 439.503 434.508 439.362 434.904 439.079C435.301 438.797 435.606 438.398 435.82 437.883C436.039 437.368 436.148 436.764 436.148 436.071V436.058C436.148 435.36 436.039 434.757 435.82 434.246C435.606 433.731 435.301 433.335 434.904 433.057C434.508 432.774 434.043 432.633 433.51 432.633C432.977 432.633 432.512 432.774 432.115 433.057C431.719 433.335 431.411 433.731 431.192 434.246C430.974 434.757 430.864 435.36 430.864 436.058V436.071C430.864 436.764 430.971 437.368 431.186 437.883C431.404 438.398 431.71 438.797 432.102 439.079C432.498 439.362 432.967 439.503 433.51 439.503ZM440.369 441V434.978H439.152V433.474H440.369V432.77C440.369 432.268 440.458 431.851 440.635 431.519C440.813 431.186 441.091 430.938 441.469 430.773C441.852 430.605 442.346 430.521 442.953 430.521C443.158 430.521 443.342 430.527 443.506 430.541C443.675 430.555 443.832 430.573 443.978 430.596V431.929C443.914 431.915 443.83 431.906 443.725 431.901C443.625 431.892 443.511 431.888 443.383 431.888C442.996 431.888 442.722 431.977 442.563 432.154C442.403 432.327 442.324 432.578 442.324 432.906V433.474H443.916V434.978H442.365V441H440.369ZM445.922 441V434.978H444.705V433.474H445.922V432.77C445.922 432.268 446.011 431.851 446.188 431.519C446.366 431.186 446.644 430.938 447.022 430.773C447.405 430.605 447.9 430.521 448.506 430.521C448.711 430.521 448.895 430.527 449.06 430.541C449.228 430.555 449.385 430.573 449.531 430.596V431.929C449.467 431.915 449.383 431.906 449.278 431.901C449.178 431.892 449.064 431.888 448.936 431.888C448.549 431.888 448.276 431.977 448.116 432.154C447.957 432.327 447.877 432.578 447.877 432.906V433.474H449.47V434.978H447.918V441H445.922ZM450.839 441V433.474H452.835V441H450.839ZM451.844 432.318C451.539 432.318 451.275 432.211 451.051 431.997C450.828 431.778 450.716 431.516 450.716 431.211C450.716 430.901 450.828 430.639 451.051 430.425C451.275 430.206 451.539 430.097 451.844 430.097C452.154 430.097 452.418 430.206 452.637 430.425C452.856 430.639 452.965 430.901 452.965 431.211C452.965 431.516 452.856 431.778 452.637 431.997C452.418 432.211 452.154 432.318 451.844 432.318ZM457.931 441.157C457.147 441.157 456.479 441.005 455.928 440.699C455.381 440.389 454.964 439.943 454.677 439.359C454.39 438.771 454.246 438.061 454.246 437.227V437.213C454.246 436.383 454.39 435.679 454.677 435.101C454.964 434.522 455.381 434.08 455.928 433.774C456.479 433.465 457.147 433.31 457.931 433.31C458.596 433.31 459.168 433.424 459.646 433.651C460.125 433.879 460.503 434.201 460.781 434.615C461.059 435.03 461.228 435.518 461.287 436.078V436.099H459.434L459.428 436.085C459.359 435.72 459.2 435.429 458.949 435.21C458.703 434.987 458.366 434.875 457.937 434.875C457.582 434.875 457.279 434.966 457.028 435.148C456.782 435.326 456.595 435.588 456.468 435.935C456.34 436.281 456.276 436.707 456.276 437.213V437.227C456.276 437.732 456.34 438.163 456.468 438.519C456.6 438.869 456.789 439.136 457.035 439.318C457.281 439.501 457.582 439.592 457.937 439.592C458.348 439.592 458.676 439.496 458.922 439.305C459.168 439.113 459.334 438.826 459.421 438.443L459.434 438.423L461.28 438.416V438.464C461.207 439.006 461.032 439.48 460.754 439.886C460.476 440.291 460.1 440.606 459.626 440.829C459.152 441.048 458.587 441.157 457.931 441.157ZM465.924 441.157C465.163 441.157 464.507 441 463.955 440.686C463.409 440.367 462.987 439.915 462.691 439.332C462.395 438.749 462.246 438.054 462.246 437.247V437.24C462.246 436.443 462.392 435.75 462.684 435.162C462.98 434.574 463.397 434.118 463.935 433.795C464.477 433.471 465.113 433.31 465.842 433.31C466.576 433.31 467.209 433.467 467.743 433.781C468.276 434.096 468.686 434.535 468.973 435.101C469.26 435.666 469.404 436.329 469.404 437.09V437.712H463.245V436.461H468.447L467.51 437.644V436.844C467.51 436.393 467.44 436.017 467.298 435.716C467.162 435.415 466.97 435.189 466.724 435.039C466.482 434.884 466.2 434.807 465.876 434.807C465.557 434.807 465.273 434.886 465.022 435.046C464.776 435.201 464.58 435.431 464.434 435.736C464.293 436.037 464.222 436.406 464.222 436.844V437.65C464.222 438.074 464.293 438.437 464.434 438.737C464.575 439.038 464.776 439.268 465.036 439.428C465.295 439.587 465.605 439.667 465.965 439.667C466.257 439.667 466.505 439.624 466.71 439.537C466.915 439.451 467.079 439.35 467.203 439.236C467.33 439.118 467.417 439.011 467.462 438.915L467.483 438.874H469.342L469.329 438.942C469.269 439.179 469.162 439.428 469.007 439.688C468.852 439.943 468.638 440.182 468.365 440.405C468.096 440.629 467.759 440.811 467.353 440.952C466.952 441.089 466.476 441.157 465.924 441.157ZM478.76 441V439.188H473.927V437.568C474.178 437.122 474.431 436.68 474.686 436.242C474.941 435.8 475.199 435.363 475.458 434.93C475.723 434.492 475.985 434.062 476.244 433.638C476.509 433.209 476.773 432.788 477.037 432.373C477.302 431.954 477.566 431.541 477.83 431.136H480.729V437.534H482.014V439.188H480.729V441H478.76ZM475.786 437.589H478.801V432.701H478.692C478.5 432.997 478.304 433.3 478.104 433.61C477.908 433.92 477.71 434.237 477.509 434.561C477.313 434.884 477.115 435.21 476.914 435.538C476.718 435.862 476.525 436.188 476.333 436.516C476.147 436.839 475.964 437.16 475.786 437.479V437.589Z" fill="black"/>
<rect id="entrance_office_04" width="31" height="6" rx="3" transform="matrix(1 0 0 -1 438 399)" fill="#A4A4A4"/>
</g>
<g id="office_03">
<rect id="room_office_03" x="532" y="393" width="63" height="94" rx="10" fill="#D9D9D9" fill-opacity="0.9"/>
<path id="label_office_03" d="M545.723 443.217C544.887 443.217 544.164 443.037 543.555 442.678C542.945 442.315 542.475 441.801 542.143 441.137C541.814 440.473 541.65 439.686 541.65 438.776V438.764C541.65 437.85 541.816 437.063 542.148 436.403C542.484 435.739 542.957 435.227 543.566 434.867C544.176 434.508 544.895 434.328 545.723 434.328C546.555 434.328 547.273 434.508 547.879 434.867C548.488 435.227 548.959 435.739 549.291 436.403C549.623 437.067 549.789 437.854 549.789 438.764V438.776C549.789 439.686 549.623 440.473 549.291 441.137C548.963 441.801 548.494 442.315 547.885 442.678C547.275 443.037 546.555 443.217 545.723 443.217ZM545.723 441.717C546.18 441.717 546.578 441.596 546.918 441.354C547.258 441.112 547.52 440.77 547.703 440.328C547.891 439.887 547.984 439.369 547.984 438.776V438.764C547.984 438.166 547.891 437.649 547.703 437.211C547.52 436.77 547.258 436.43 546.918 436.192C546.578 435.949 546.18 435.828 545.723 435.828C545.266 435.828 544.867 435.949 544.527 436.192C544.188 436.43 543.924 436.77 543.736 437.211C543.549 437.649 543.455 438.166 543.455 438.764V438.776C543.455 439.369 543.547 439.887 543.73 440.328C543.918 440.77 544.18 441.112 544.516 441.354C544.855 441.596 545.258 441.717 545.723 441.717ZM551.569 443V437.838H550.526V436.549H551.569V435.946C551.569 435.516 551.645 435.158 551.797 434.873C551.95 434.588 552.188 434.375 552.512 434.235C552.84 434.09 553.264 434.018 553.784 434.018C553.959 434.018 554.118 434.024 554.258 434.035C554.403 434.047 554.538 434.063 554.663 434.082V435.225C554.608 435.213 554.536 435.205 554.446 435.201C554.36 435.194 554.262 435.19 554.153 435.19C553.821 435.19 553.586 435.266 553.45 435.418C553.313 435.567 553.245 435.781 553.245 436.063V436.549H554.61V437.838H553.28V443H551.569ZM556.296 443V437.838H555.253V436.549H556.296V435.946C556.296 435.516 556.372 435.158 556.524 434.873C556.677 434.588 556.915 434.375 557.239 434.235C557.567 434.09 557.991 434.018 558.511 434.018C558.686 434.018 558.845 434.024 558.985 434.035C559.13 434.047 559.265 434.063 559.39 434.082V435.225C559.335 435.213 559.263 435.205 559.173 435.201C559.087 435.194 558.989 435.19 558.88 435.19C558.548 435.19 558.313 435.266 558.177 435.418C558.04 435.567 557.972 435.781 557.972 436.063V436.549H559.337V437.838H558.007V443H556.296ZM560.478 443V436.549H562.189V443H560.478ZM561.339 435.559C561.078 435.559 560.851 435.467 560.66 435.283C560.468 435.096 560.372 434.871 560.372 434.61C560.372 434.344 560.468 434.119 560.66 433.936C560.851 433.748 561.078 433.655 561.339 433.655C561.605 433.655 561.831 433.748 562.019 433.936C562.206 434.119 562.3 434.344 562.3 434.61C562.3 434.871 562.206 435.096 562.019 435.283C561.831 435.467 561.605 435.559 561.339 435.559ZM566.523 443.135C565.851 443.135 565.279 443.004 564.807 442.742C564.338 442.477 563.98 442.094 563.734 441.594C563.488 441.09 563.365 440.481 563.365 439.766V439.754C563.365 439.043 563.488 438.44 563.734 437.944C563.98 437.448 564.338 437.069 564.807 436.807C565.279 436.541 565.851 436.408 566.523 436.408C567.094 436.408 567.584 436.506 567.994 436.701C568.404 436.897 568.728 437.172 568.967 437.528C569.205 437.883 569.35 438.301 569.4 438.781V438.799H567.812L567.807 438.787C567.748 438.475 567.611 438.225 567.396 438.037C567.185 437.846 566.896 437.75 566.529 437.75C566.225 437.75 565.965 437.828 565.75 437.985C565.539 438.137 565.379 438.362 565.269 438.658C565.16 438.955 565.105 439.321 565.105 439.754V439.766C565.105 440.199 565.16 440.569 565.269 440.873C565.383 441.174 565.545 441.403 565.756 441.559C565.967 441.715 566.225 441.793 566.529 441.793C566.881 441.793 567.162 441.711 567.373 441.547C567.584 441.383 567.726 441.137 567.801 440.809L567.812 440.791L569.394 440.785V440.826C569.332 441.291 569.182 441.698 568.943 442.045C568.705 442.393 568.383 442.662 567.976 442.854C567.57 443.041 567.086 443.135 566.523 443.135ZM573.342 443.135C572.69 443.135 572.127 443 571.655 442.731C571.186 442.457 570.825 442.071 570.571 441.571C570.317 441.071 570.19 440.475 570.19 439.783V439.778C570.19 439.094 570.315 438.5 570.565 437.996C570.819 437.492 571.176 437.102 571.637 436.824C572.102 436.547 572.647 436.408 573.272 436.408C573.901 436.408 574.444 436.543 574.901 436.813C575.358 437.082 575.709 437.459 575.955 437.944C576.202 438.428 576.325 438.996 576.325 439.649V440.182H571.045V439.11H575.504L574.702 440.123V439.438C574.702 439.051 574.641 438.729 574.52 438.471C574.403 438.213 574.239 438.02 574.028 437.891C573.821 437.758 573.579 437.692 573.301 437.692C573.028 437.692 572.784 437.76 572.569 437.897C572.358 438.03 572.19 438.227 572.065 438.489C571.944 438.746 571.883 439.063 571.883 439.438V440.129C571.883 440.492 571.944 440.803 572.065 441.061C572.186 441.319 572.358 441.516 572.58 441.653C572.803 441.789 573.069 441.858 573.377 441.858C573.627 441.858 573.84 441.821 574.016 441.746C574.192 441.672 574.332 441.586 574.438 441.489C574.547 441.387 574.621 441.295 574.661 441.213L574.678 441.178H576.272L576.26 441.237C576.209 441.44 576.118 441.653 575.985 441.875C575.852 442.094 575.668 442.299 575.434 442.49C575.204 442.682 574.914 442.838 574.567 442.959C574.223 443.076 573.815 443.135 573.342 443.135ZM583.517 443.188C582.88 443.188 582.322 443.082 581.841 442.871C581.365 442.656 580.988 442.36 580.71 441.981C580.433 441.598 580.273 441.155 580.23 440.651L580.224 440.574H581.917L581.923 440.639C581.951 440.858 582.031 441.053 582.163 441.225C582.3 441.393 582.484 441.526 582.714 441.623C582.945 441.717 583.212 441.764 583.517 441.764C583.818 441.764 584.079 441.713 584.302 441.612C584.529 441.506 584.702 441.362 584.824 441.178C584.949 440.994 585.011 440.783 585.011 440.545V440.533C585.011 440.127 584.867 439.817 584.577 439.602C584.292 439.387 583.894 439.28 583.382 439.28H582.415V438.02H583.359C583.656 438.02 583.913 437.971 584.132 437.873C584.351 437.776 584.521 437.641 584.642 437.469C584.763 437.293 584.824 437.092 584.824 436.865V436.854C584.824 436.619 584.771 436.418 584.665 436.25C584.564 436.078 584.413 435.948 584.214 435.858C584.019 435.764 583.783 435.717 583.505 435.717C583.228 435.717 582.984 435.764 582.773 435.858C582.562 435.951 582.394 436.086 582.269 436.262C582.144 436.434 582.07 436.637 582.046 436.871L582.04 436.924H580.411L580.417 436.854C580.46 436.346 580.613 435.906 580.874 435.535C581.14 435.16 581.495 434.871 581.941 434.668C582.39 434.461 582.911 434.358 583.505 434.358C584.111 434.358 584.638 434.453 585.087 434.645C585.536 434.832 585.882 435.096 586.124 435.436C586.37 435.772 586.494 436.166 586.494 436.619V436.631C586.494 436.983 586.415 437.291 586.259 437.557C586.103 437.823 585.892 438.041 585.626 438.213C585.361 438.385 585.062 438.506 584.73 438.576V438.612C585.359 438.67 585.863 438.873 586.242 439.221C586.62 439.569 586.81 440.03 586.81 440.604V440.615C586.81 441.127 586.671 441.576 586.394 441.963C586.12 442.35 585.738 442.651 585.245 442.865C584.753 443.08 584.177 443.188 583.517 443.188Z" fill="black"/>
<rect id="entrance_office_03" width="27" height="4" rx="2" transform="matrix(1 0 0 -1 550 489)" fill="#A4A4A4"/>
</g>
<g id="guys_washroom_f1_01">
<rect id="room_guys_washroom_f1_01" x="793.576" y="589" width="57" height="60" rx="10" fill="#D9D9D9" fill-opacity="0.9"/>
<path id="label_guys_washroom_f1_01" d="M816.429 623.597V618.631C816.429 617.758 816.634 616.994 817.044 616.337C817.461 615.681 818.032 615.174 818.755 614.816C819.479 614.458 820.314 614.279 821.261 614.279H823.04C823.987 614.279 824.822 614.458 825.545 614.816C826.276 615.174 826.847 615.681 827.257 616.337C827.667 616.994 827.872 617.758 827.872 618.631V623.597C827.872 623.918 827.76 624.19 827.536 624.414C827.32 624.63 827.055 624.738 826.742 624.738C826.429 624.738 826.161 624.63 825.937 624.414C825.721 624.19 825.612 623.918 825.612 623.597V619.145C825.612 618.929 825.504 618.821 825.288 618.821C825.072 618.821 824.964 618.929 824.964 619.145V632.691C824.964 633.042 824.841 633.333 824.594 633.564C824.356 633.803 824.065 633.922 823.722 633.922C823.379 633.922 823.088 633.803 822.849 633.564C822.611 633.325 822.491 633.034 822.491 632.691V624.425C822.491 624.335 822.458 624.257 822.391 624.19C822.324 624.123 822.245 624.089 822.156 624.089C822.059 624.089 821.977 624.123 821.91 624.19C821.85 624.257 821.82 624.335 821.82 624.425V632.691C821.82 633.034 821.701 633.325 821.462 633.564C821.224 633.803 820.933 633.922 820.59 633.922C820.239 633.922 819.945 633.803 819.706 633.564C819.468 633.333 819.348 633.042 819.348 632.691V619.145C819.348 618.929 819.24 618.821 819.024 618.821C818.8 618.821 818.688 618.929 818.688 619.145V623.597C818.688 623.918 818.576 624.19 818.353 624.414C818.136 624.63 817.872 624.738 817.558 624.738C817.245 624.738 816.977 624.63 816.753 624.414C816.537 624.19 816.429 623.918 816.429 623.597ZM822.156 613.049C821.671 613.049 821.227 612.933 820.825 612.702C820.43 612.463 820.113 612.146 819.874 611.751C819.635 611.348 819.516 610.905 819.516 610.42C819.516 609.935 819.635 609.495 819.874 609.1C820.113 608.705 820.43 608.388 820.825 608.149C821.227 607.911 821.671 607.791 822.156 607.791C822.641 607.791 823.081 607.911 823.476 608.149C823.871 608.388 824.188 608.705 824.427 609.1C824.665 609.495 824.785 609.935 824.785 610.42C824.785 610.905 824.665 611.348 824.427 611.751C824.188 612.146 823.871 612.463 823.476 612.702C823.081 612.933 822.641 613.049 822.156 613.049Z" fill="black"/>
<rect id="entrance_guys_washroom_f1_01" width="6.71337" height="31.3291" rx="3.35668" transform="matrix(1 0 0 -1 791 634.903)" fill="#A4A4A4"/>
</g>
<g id="ladies_washroom_f1_01">
<rect id="room_ladies_washroom_f1_01" x="869" y="148" width="70" height="89" rx="10" fill="#D9D9D9" fill-opacity="0.9"/>
<rect id="entrance_ladies_washroom_f1_01" width="30" height="6" rx="3" transform="matrix(1 0 0 -1 889 240)" fill="#A4A4A4"/>
<path id="label_ladies_washroom_f1_01" d="M904.844 183.049C904.359 183.049 903.919 182.933 903.524 182.702C903.129 182.463 902.812 182.147 902.573 181.751C902.334 181.349 902.215 180.905 902.215 180.42C902.215 179.935 902.334 179.495 902.573 179.1C902.812 178.705 903.129 178.388 903.524 178.149C903.919 177.911 904.359 177.791 904.844 177.791C905.329 177.791 905.769 177.911 906.164 178.149C906.566 178.388 906.887 178.705 907.126 179.1C907.364 179.495 907.484 179.935 907.484 180.42C907.484 180.905 907.364 181.349 907.126 181.751C906.887 182.147 906.566 182.463 906.164 182.702C905.769 182.933 905.329 183.049 904.844 183.049ZM903.278 203.922C902.942 203.922 902.651 203.803 902.405 203.564C902.167 203.333 902.047 203.042 902.047 202.692V197.837H900.671C900.343 197.837 900.112 197.718 899.978 197.479C899.844 197.233 899.825 196.946 899.922 196.618L902.293 189.212C902.353 189.026 902.327 188.881 902.215 188.776C902.111 188.672 901.984 188.634 901.835 188.664C901.686 188.694 901.581 188.81 901.522 189.011L899.989 193.765C899.87 194.131 899.676 194.377 899.407 194.503C899.139 194.63 898.87 194.656 898.602 194.582C898.334 194.5 898.125 194.339 897.976 194.101C897.826 193.855 897.808 193.545 897.92 193.172L899.463 188.418C899.769 187.479 900.116 186.703 900.504 186.092C900.899 185.473 901.395 185.014 901.991 184.716C902.588 184.417 903.345 184.268 904.262 184.268H905.437C906.354 184.268 907.111 184.417 907.707 184.716C908.304 185.014 908.796 185.473 909.184 186.092C909.579 186.703 909.93 187.479 910.236 188.418L911.768 193.172C911.887 193.545 911.872 193.855 911.723 194.101C911.574 194.339 911.362 194.5 911.086 194.582C910.817 194.656 910.549 194.63 910.28 194.503C910.019 194.377 909.829 194.131 909.71 193.765L908.177 189.011C908.11 188.81 908.002 188.694 907.853 188.664C907.704 188.634 907.573 188.672 907.461 188.776C907.357 188.881 907.338 189.026 907.405 189.212L909.766 196.618C909.87 196.946 909.855 197.233 909.721 197.479C909.587 197.718 909.352 197.837 909.016 197.837H907.652V202.692C907.652 203.042 907.528 203.333 907.282 203.564C907.044 203.803 906.753 203.922 906.41 203.922C906.074 203.922 905.783 203.803 905.537 203.564C905.299 203.326 905.179 203.035 905.179 202.692V197.837C905.179 197.74 905.146 197.658 905.079 197.591C905.019 197.524 904.941 197.49 904.844 197.49C904.754 197.49 904.676 197.524 904.609 197.591C904.549 197.658 904.519 197.74 904.519 197.837V202.692C904.519 203.035 904.396 203.326 904.15 203.564C903.912 203.803 903.621 203.922 903.278 203.922Z" fill="black"/>
</g>
<g id="elevator_f1_01">
<rect id="room_elevator_f1_01" x="616.398" y="590.897" width="58.0227" height="61.5392" rx="10" fill="#D9D9D9" fill-opacity="0.9"/>
<rect id="entrance_elevator_f1_01" width="29" height="5" rx="2.5" transform="matrix(1 0 0 -1 631 594)" fill="#A4A4A4"/>
<path id="label_elevator_f1_01" d="M639.357 633.446C638.165 633.446 637.252 633.129 636.617 632.495C635.983 631.868 635.666 630.962 635.666 629.777V617.126C635.666 615.941 635.983 615.035 636.617 614.408C637.252 613.774 638.165 613.457 639.357 613.457H651.965C653.157 613.457 654.07 613.774 654.704 614.408C655.339 615.035 655.656 615.941 655.656 617.126V629.777C655.656 630.962 655.339 631.868 654.704 632.495C654.07 633.129 653.157 633.446 651.965 633.446H639.357ZM639.649 630.749H651.673C652.091 630.749 652.408 630.645 652.624 630.435C652.847 630.226 652.958 629.899 652.958 629.453V617.461C652.958 617.015 652.847 616.687 652.624 616.478C652.408 616.262 652.091 616.154 651.673 616.154H639.649C639.231 616.154 638.91 616.262 638.687 616.478C638.471 616.687 638.363 617.015 638.363 617.461V629.453C638.363 629.899 638.471 630.226 638.687 630.435C638.91 630.645 639.231 630.749 639.649 630.749ZM642.305 626.776C642.04 626.776 641.827 626.7 641.667 626.546C641.507 626.393 641.413 626.201 641.385 625.971C641.364 625.734 641.423 625.501 641.563 625.271L644.835 619.719C644.96 619.503 645.131 619.36 645.347 619.29C645.57 619.214 645.79 619.21 646.006 619.28C646.222 619.35 646.396 619.496 646.529 619.719L649.801 625.271C649.933 625.508 649.989 625.741 649.968 625.971C649.947 626.201 649.857 626.393 649.697 626.546C649.536 626.7 649.32 626.776 649.048 626.776H642.305Z" fill="black"/>
</g>
<g id="elevator_f1_02">
<rect id="room_elevator_f1_02" x="153" y="362.897" width="58.0227" height="61.5392" rx="10" fill="#D9D9D9" fill-opacity="0.9"/>
<rect id="entrance_elevator_f1_02" width="29" height="5" rx="2.5" transform="matrix(1 0 0 -1 167.602 366)" fill="#A4A4A4"/>
<path id="label_elevator_f1_02" d="M175.958 405.447C174.766 405.447 173.853 405.13 173.219 404.495C172.585 403.868 172.268 402.962 172.268 401.777V389.127C172.268 387.942 172.585 387.036 173.219 386.408C173.853 385.774 174.766 385.457 175.958 385.457H188.567C189.759 385.457 190.672 385.774 191.306 386.408C191.94 387.036 192.257 387.942 192.257 389.127V401.777C192.257 402.962 191.94 403.868 191.306 404.495C190.672 405.13 189.759 405.447 188.567 405.447H175.958ZM176.251 402.749H188.274C188.692 402.749 189.009 402.645 189.225 402.436C189.449 402.227 189.56 401.899 189.56 401.453V389.461C189.56 389.015 189.449 388.687 189.225 388.478C189.009 388.262 188.692 388.154 188.274 388.154H176.251C175.833 388.154 175.512 388.262 175.289 388.478C175.073 388.687 174.965 389.015 174.965 389.461V401.453C174.965 401.899 175.073 402.227 175.289 402.436C175.512 402.645 175.833 402.749 176.251 402.749ZM178.906 398.776C178.642 398.776 178.429 398.7 178.269 398.546C178.108 398.393 178.014 398.201 177.986 397.971C177.965 397.734 178.025 397.501 178.164 397.271L181.437 391.719C181.562 391.503 181.733 391.36 181.949 391.291C182.172 391.214 182.391 391.211 182.607 391.28C182.824 391.35 182.998 391.496 183.13 391.719L186.403 397.271C186.535 397.508 186.591 397.741 186.57 397.971C186.549 398.201 186.458 398.393 186.298 398.546C186.138 398.7 185.922 398.776 185.65 398.776H178.906Z" fill="black"/>
</g>
<g id="stairs_f1_01">
<rect id="room_stairs_f1_01" x="716" y="713" width="34" height="34" rx="5" fill="#D9D9D9" fill-opacity="0.9"/>
<path id="label_stairs_f1_01" d="M733.144 723.967C732.847 723.967 732.576 723.896 732.33 723.755C732.089 723.609 731.895 723.415 731.749 723.174C731.603 722.928 731.53 722.657 731.53 722.36C731.53 722.064 731.603 721.795 731.749 721.554C731.895 721.308 732.089 721.112 732.33 720.966C732.576 720.82 732.847 720.747 733.144 720.747C733.435 720.747 733.704 720.82 733.95 720.966C734.196 721.112 734.39 721.308 734.531 721.554C734.677 721.795 734.75 722.064 734.75 722.36C734.75 722.657 734.677 722.928 734.531 723.174C734.39 723.415 734.196 723.609 733.95 723.755C733.704 723.896 733.435 723.967 733.144 723.967ZM734.032 735.615C733.786 735.547 733.62 735.417 733.533 735.226C733.447 735.039 733.435 734.845 733.499 734.645L734.271 732.054L731.414 731.384C730.817 731.243 730.416 730.999 730.211 730.652C730.01 730.301 729.942 729.868 730.006 729.354L730.313 726.872C730.323 726.822 730.309 726.788 730.272 726.77C730.241 726.747 730.204 726.747 730.163 726.77L729.329 727.289V729.688C729.329 729.907 729.249 730.094 729.09 730.249C728.935 730.404 728.75 730.481 728.536 730.481C728.322 730.481 728.135 730.404 727.976 730.249C727.821 730.094 727.743 729.907 727.743 729.688V726.858C727.743 726.722 727.777 726.594 727.846 726.476C727.914 726.353 728.003 726.257 728.112 726.188L730.402 724.76C730.635 724.618 730.901 724.516 731.202 724.452C731.507 724.384 731.847 724.384 732.221 724.452L732.617 724.534C732.959 724.598 733.262 724.735 733.526 724.944C733.791 725.149 734 725.405 734.155 725.71L735.058 727.494H737.402C737.612 727.494 737.794 727.572 737.949 727.727C738.109 727.877 738.188 728.059 738.188 728.273C738.188 728.497 738.109 728.684 737.949 728.834C737.794 728.984 737.612 729.06 737.402 729.06H734.572C734.249 729.06 734.012 728.916 733.861 728.629L733.342 727.61C733.314 727.556 733.276 727.533 733.226 727.542C733.175 727.551 733.148 727.581 733.144 727.631L732.822 729.784L735.536 730.721C735.75 730.794 735.898 730.926 735.98 731.117C736.067 731.304 736.081 731.495 736.021 731.691L735.003 735.089C734.93 735.34 734.789 735.499 734.579 735.567C734.369 735.636 734.187 735.652 734.032 735.615ZM728.816 738.151C728.63 738.033 728.513 737.867 728.468 737.652C728.427 737.438 728.468 737.24 728.591 737.058L730.594 734.057L730.737 731.979C730.815 732.006 730.895 732.033 730.977 732.061C731.059 732.088 731.147 732.113 731.243 732.136L732.446 732.416L732.166 734.344C732.143 734.508 732.082 734.665 731.981 734.815L729.896 737.919C729.755 738.129 729.575 738.243 729.356 738.261C729.138 738.279 728.958 738.243 728.816 738.151ZM731.893 739.368C731.738 739.368 731.61 739.313 731.51 739.204C731.414 739.099 731.366 738.974 731.366 738.828C731.366 738.691 731.416 738.571 731.517 738.466C731.617 738.366 731.742 738.315 731.893 738.315H733.602V737.078C733.602 736.932 733.652 736.807 733.752 736.702C733.857 736.602 733.98 736.552 734.121 736.552H735.83V735.321C735.83 735.18 735.878 735.057 735.974 734.952C736.074 734.847 736.199 734.795 736.35 734.795H738.059V733.564C738.059 733.423 738.109 733.3 738.209 733.195C738.309 733.09 738.435 733.038 738.585 733.038H740.779C740.925 733.038 741.05 733.09 741.155 733.195C741.26 733.3 741.312 733.423 741.312 733.564C741.312 733.71 741.26 733.836 741.155 733.94C741.05 734.045 740.925 734.098 740.779 734.098H739.111V735.321C739.111 735.467 739.059 735.59 738.954 735.69C738.854 735.795 738.731 735.848 738.585 735.848H736.876V737.078C736.876 737.229 736.824 737.354 736.719 737.454C736.618 737.559 736.495 737.611 736.35 737.611H734.654V738.828C734.654 738.979 734.602 739.106 734.497 739.211C734.392 739.316 734.267 739.368 734.121 739.368H731.893Z" fill="black"/>
<rect id="entrance_stairs_f1_01" width="25" height="7" rx="3.5" transform="matrix(1 0 0 -1 721 715)" fill="#A4A4A4"/>
</g>
<g id="stairs_f1_02">
<rect id="room_stairs_f1_02" x="39" y="371" width="34" height="34" rx="5" fill="#D9D9D9" fill-opacity="0.9"/>
<path id="label_stairs_f1_02" d="M56.1436 381.967C55.8473 381.967 55.5762 381.896 55.3301 381.755C55.0885 381.609 54.8949 381.415 54.749 381.174C54.6032 380.928 54.5303 380.657 54.5303 380.36C54.5303 380.064 54.6032 379.795 54.749 379.554C54.8949 379.308 55.0885 379.112 55.3301 378.966C55.5762 378.82 55.8473 378.747 56.1436 378.747C56.4352 378.747 56.7041 378.82 56.9502 378.966C57.1963 379.112 57.39 379.308 57.5312 379.554C57.6771 379.795 57.75 380.064 57.75 380.36C57.75 380.657 57.6771 380.928 57.5312 381.174C57.39 381.415 57.1963 381.609 56.9502 381.755C56.7041 381.896 56.4352 381.967 56.1436 381.967ZM57.0322 393.615C56.7861 393.547 56.6198 393.417 56.5332 393.226C56.4466 393.039 56.4352 392.845 56.499 392.645L57.2715 390.054L54.4141 389.384C53.8171 389.243 53.416 388.999 53.2109 388.652C53.0104 388.301 52.9421 387.868 53.0059 387.354L53.3135 384.872C53.3226 384.822 53.3089 384.788 53.2725 384.77C53.2406 384.747 53.2041 384.747 53.1631 384.77L52.3291 385.289V387.688C52.3291 387.907 52.2493 388.094 52.0898 388.249C51.9349 388.404 51.7503 388.481 51.5361 388.481C51.3219 388.481 51.1351 388.404 50.9756 388.249C50.8206 388.094 50.7432 387.907 50.7432 387.688V384.858C50.7432 384.722 50.7773 384.594 50.8457 384.476C50.9141 384.353 51.0029 384.257 51.1123 384.188L53.4023 382.76C53.6348 382.618 53.9014 382.516 54.2021 382.452C54.5075 382.384 54.847 382.384 55.2207 382.452L55.6172 382.534C55.959 382.598 56.262 382.735 56.5264 382.944C56.7907 383.149 57.0003 383.405 57.1553 383.71L58.0576 385.494H60.4023C60.612 385.494 60.7943 385.572 60.9492 385.727C61.1087 385.877 61.1885 386.059 61.1885 386.273C61.1885 386.497 61.1087 386.684 60.9492 386.834C60.7943 386.984 60.612 387.06 60.4023 387.06H57.5723C57.2487 387.06 57.0117 386.916 56.8613 386.629L56.3418 385.61C56.3145 385.556 56.2757 385.533 56.2256 385.542C56.1755 385.551 56.1481 385.581 56.1436 385.631L55.8223 387.784L58.5361 388.721C58.7503 388.794 58.8984 388.926 58.9805 389.117C59.0671 389.304 59.0807 389.495 59.0215 389.691L58.0029 393.089C57.93 393.34 57.7887 393.499 57.5791 393.567C57.3695 393.636 57.1872 393.652 57.0322 393.615ZM51.8164 396.151C51.6296 396.033 51.5133 395.867 51.4678 395.652C51.4268 395.438 51.4678 395.24 51.5908 395.058L53.5938 392.057L53.7373 389.979C53.8148 390.006 53.8945 390.033 53.9766 390.061C54.0586 390.088 54.1475 390.113 54.2432 390.136L55.4463 390.416L55.166 392.344C55.1432 392.508 55.0817 392.665 54.9814 392.815L52.8965 395.919C52.7552 396.129 52.5752 396.243 52.3564 396.261C52.1377 396.279 51.9577 396.243 51.8164 396.151ZM54.8926 397.368C54.7376 397.368 54.61 397.313 54.5098 397.204C54.4141 397.099 54.3662 396.974 54.3662 396.828C54.3662 396.691 54.4163 396.571 54.5166 396.466C54.6169 396.366 54.7422 396.315 54.8926 396.315H56.6016V395.078C56.6016 394.932 56.6517 394.807 56.752 394.702C56.8568 394.602 56.9798 394.552 57.1211 394.552H58.8301V393.321C58.8301 393.18 58.8779 393.057 58.9736 392.952C59.0739 392.847 59.1992 392.795 59.3496 392.795H61.0586V391.564C61.0586 391.423 61.1087 391.3 61.209 391.195C61.3092 391.09 61.4346 391.038 61.585 391.038H63.7793C63.9251 391.038 64.0505 391.09 64.1553 391.195C64.2601 391.3 64.3125 391.423 64.3125 391.564C64.3125 391.71 64.2601 391.836 64.1553 391.94C64.0505 392.045 63.9251 392.098 63.7793 392.098H62.1113V393.321C62.1113 393.467 62.0589 393.59 61.9541 393.69C61.8538 393.795 61.7308 393.848 61.585 393.848H59.876V395.078C59.876 395.229 59.8236 395.354 59.7188 395.454C59.6185 395.559 59.4954 395.611 59.3496 395.611H57.6543V396.828C57.6543 396.979 57.6019 397.106 57.4971 397.211C57.3923 397.316 57.2669 397.368 57.1211 397.368H54.8926Z" fill="black"/>
<rect id="entrance_stairs_f1_02" width="25" height="7" rx="3.5" transform="matrix(1 0 0 -1 43 373)" fill="#A4A4A4"/>
</g>
</g>
</g>
</svg>
