<svg width="1024" height="768" viewBox="0 0 1024 768" fill="none" xmlns="http://www.w3.org/2000/svg">
<g id="ground_floor">
<g id="hallways">
<rect id="Rectangle 26" x="940" y="599" width="24" height="10" fill="#E8E8E8"/>
<rect id="Rectangle 13" x="898" y="585" width="111" height="14" fill="#E8E8E8"/>
<rect id="Rectangle 5" x="536" y="668" width="107" height="100" fill="#E8E8E8"/>
<rect id="Rectangle 6" x="536" y="553" width="71" height="115" fill="#E8E8E8"/>
<rect id="Rectangle 22" x="528" y="614" width="8" height="25" fill="#E8E8E8"/>
<rect id="Rectangle 8" x="607" y="553" width="196" height="34" fill="#E8E8E8"/>
<rect id="Rectangle 28" x="669" y="553" width="3" height="40" transform="rotate(-90 669 553)" fill="#E8E8E8"/>
<rect id="Rectangle 23" x="633" y="587" width="25" height="3" fill="#E8E8E8"/>
<rect id="Rectangle 12" x="803" y="553" width="221" height="32" fill="#E8E8E8"/>
<rect id="Rectangle 10" x="732" y="587" width="71" height="65" fill="#E8E8E8"/>
<rect id="Rectangle 25" x="803" y="630" width="7" height="22" fill="#E8E8E8"/>
<rect id="Rectangle 24" x="762" y="652" width="20" height="7" fill="#E8E8E8"/>
<path id="Rectangle 11" d="M756 412H803V553H756V412Z" fill="#E8E8E8"/>
<rect id="Rectangle 27" x="767" y="404" width="26" height="8" fill="#E8E8E8"/>
<path id="Rectangle 9" d="M687 587H732V710H687V587Z" fill="#E8E8E8"/>
<rect id="Rectangle 7" x="382" y="553" width="154" height="32" fill="#E8E8E8"/>
<rect id="Rectangle 21" x="417" y="549" width="37" height="4" fill="#E8E8E8"/>
<rect id="Rectangle 20" x="336" y="553" width="7" height="32" fill="#E8E8E8"/>
<rect id="Rectangle 17" x="343" y="191" width="39" height="577" fill="#E8E8E8"/>
<rect id="Rectangle 30" x="334" y="317" width="9" height="23" fill="#E8E8E8"/>
<rect id="Rectangle 29" x="333" y="191" width="55" height="24" fill="#E8E8E8"/>
<path id="Rectangle 18" d="M292 369H343V411H292V369Z" fill="#E8E8E8"/>
<rect id="Rectangle 16" x="147" y="511" width="26" height="257" fill="#E8E8E8"/>
<rect id="Rectangle 19" x="141" y="556" width="37" height="26" fill="#E8E8E8"/>
</g>
<g id="interactables">
<g id="lecture_hall_03">
<rect id="room_lecture_hall_03" x="602" y="435" width="130" height="112" rx="10" fill="#D9D9D9"/>
<rect id="entrance_lecture_hall_03" width="44" height="8" rx="4" transform="matrix(1 0 0 -1 667 551)" fill="#A4A4A4"/>
<path id="label_lecture_hall_03" d="M648.196 494V484.136H650.261V488.142H654.704V484.136H656.769V494H654.704V489.844H650.261V494H648.196ZM660.784 494.116C660.31 494.116 659.886 494.025 659.512 493.843C659.143 493.656 658.854 493.394 658.644 493.057C658.434 492.715 658.33 492.316 658.33 491.861V491.847C658.33 491.396 658.441 491.008 658.665 490.685C658.892 490.361 659.223 490.108 659.656 489.926C660.093 489.739 660.624 489.628 661.249 489.591L664.051 489.42V490.637L661.549 490.801C661.121 490.824 660.802 490.915 660.592 491.074C660.383 491.234 660.278 491.45 660.278 491.724V491.738C660.278 492.025 660.387 492.25 660.606 492.414C660.825 492.578 661.107 492.66 661.454 492.66C661.763 492.66 662.039 492.599 662.281 492.476C662.522 492.353 662.714 492.186 662.855 491.977C662.996 491.763 663.067 491.523 663.067 491.259V488.86C663.067 488.531 662.958 488.281 662.739 488.108C662.525 487.93 662.212 487.841 661.802 487.841C661.442 487.841 661.148 487.903 660.92 488.026C660.697 488.144 660.547 488.315 660.469 488.538L660.456 488.566H658.61L658.617 488.504C658.671 488.062 658.838 487.677 659.116 487.349C659.398 487.021 659.777 486.766 660.25 486.583C660.729 486.401 661.283 486.31 661.912 486.31C662.577 486.31 663.142 486.412 663.607 486.617C664.072 486.818 664.425 487.11 664.666 487.492C664.913 487.871 665.036 488.326 665.036 488.86V494H663.067V493.002H662.944C662.816 493.235 662.645 493.435 662.431 493.604C662.221 493.768 661.975 493.895 661.693 493.987C661.415 494.073 661.112 494.116 660.784 494.116ZM666.829 494V483.596H668.825V494H666.829ZM670.728 494V483.596H672.724V494H670.728ZM681.622 494.219C680.88 494.219 680.228 494.096 679.667 493.85C679.111 493.599 678.672 493.253 678.348 492.811C678.024 492.364 677.838 491.847 677.788 491.259L677.781 491.17H679.756L679.763 491.245C679.795 491.501 679.888 491.728 680.043 491.929C680.203 492.125 680.417 492.28 680.686 492.394C680.955 492.503 681.267 492.558 681.622 492.558C681.973 492.558 682.279 492.499 682.538 492.38C682.803 492.257 683.006 492.088 683.147 491.874C683.293 491.66 683.366 491.414 683.366 491.136V491.122C683.366 490.648 683.197 490.286 682.86 490.035C682.527 489.785 682.062 489.659 681.465 489.659H680.337V488.19H681.438C681.784 488.19 682.085 488.133 682.34 488.019C682.595 487.905 682.794 487.748 682.935 487.547C683.076 487.342 683.147 487.107 683.147 486.843V486.829C683.147 486.556 683.085 486.321 682.962 486.125C682.844 485.925 682.668 485.772 682.436 485.667C682.208 485.558 681.932 485.503 681.609 485.503C681.285 485.503 681 485.558 680.754 485.667C680.508 485.777 680.312 485.934 680.166 486.139C680.021 486.339 679.934 486.576 679.907 486.85L679.9 486.911H677.999L678.006 486.829C678.056 486.237 678.234 485.724 678.539 485.291C678.849 484.854 679.264 484.517 679.784 484.28C680.308 484.038 680.916 483.917 681.609 483.917C682.315 483.917 682.93 484.029 683.454 484.252C683.979 484.471 684.382 484.779 684.664 485.175C684.952 485.567 685.095 486.027 685.095 486.556V486.57C685.095 486.98 685.004 487.34 684.822 487.65C684.639 487.96 684.393 488.215 684.083 488.415C683.774 488.616 683.425 488.757 683.038 488.839V488.88C683.771 488.948 684.359 489.185 684.801 489.591C685.243 489.997 685.464 490.534 685.464 491.204V491.218C685.464 491.815 685.302 492.339 684.979 492.79C684.66 493.241 684.213 493.592 683.639 493.843C683.065 494.094 682.393 494.219 681.622 494.219Z" fill="black"/>
</g>
<g id="lecture_hall_02">
<rect id="room_lecture_hall_02" x="399" y="435" width="147" height="111" rx="10" fill="#D9D9D9"/>
<rect id="entrance_lecture_hall_02" width="43" height="8" rx="4" transform="matrix(1 0 0 -1 414 550)" fill="#A4A4A4"/>
<path id="label_lecture_hall_02" d="M454.196 496V486.136H456.261V490.142H460.704V486.136H462.769V496H460.704V491.844H456.261V496H454.196ZM466.784 496.116C466.31 496.116 465.886 496.025 465.512 495.843C465.143 495.656 464.854 495.394 464.644 495.057C464.434 494.715 464.33 494.316 464.33 493.861V493.847C464.33 493.396 464.441 493.008 464.665 492.685C464.892 492.361 465.223 492.108 465.656 491.926C466.093 491.739 466.624 491.628 467.249 491.591L470.051 491.42V492.637L467.549 492.801C467.121 492.824 466.802 492.915 466.592 493.074C466.383 493.234 466.278 493.45 466.278 493.724V493.738C466.278 494.025 466.387 494.25 466.606 494.414C466.825 494.578 467.107 494.66 467.454 494.66C467.763 494.66 468.039 494.599 468.281 494.476C468.522 494.353 468.714 494.186 468.855 493.977C468.996 493.763 469.067 493.523 469.067 493.259V490.86C469.067 490.531 468.958 490.281 468.739 490.108C468.525 489.93 468.212 489.841 467.802 489.841C467.442 489.841 467.148 489.903 466.92 490.026C466.697 490.144 466.547 490.315 466.469 490.538L466.456 490.566H464.61L464.617 490.504C464.671 490.062 464.838 489.677 465.116 489.349C465.398 489.021 465.777 488.766 466.25 488.583C466.729 488.401 467.283 488.31 467.912 488.31C468.577 488.31 469.142 488.412 469.607 488.617C470.072 488.818 470.425 489.11 470.666 489.492C470.913 489.871 471.036 490.326 471.036 490.86V496H469.067V495.002H468.944C468.816 495.235 468.645 495.435 468.431 495.604C468.221 495.768 467.975 495.895 467.693 495.987C467.415 496.073 467.112 496.116 466.784 496.116ZM472.829 496V485.596H474.825V496H472.829ZM476.728 496V485.596H478.724V496H476.728ZM483.938 496V494.613L487.117 491.475C487.581 491.028 487.941 490.661 488.197 490.374C488.452 490.083 488.63 489.83 488.73 489.615C488.83 489.397 488.88 489.171 488.88 488.939V488.918C488.88 488.636 488.819 488.387 488.696 488.173C488.577 487.959 488.404 487.793 488.176 487.674C487.948 487.551 487.677 487.49 487.363 487.49C487.044 487.49 486.761 487.558 486.515 487.695C486.269 487.827 486.078 488.011 485.941 488.248C485.804 488.481 485.736 488.754 485.736 489.069V489.103H483.829L483.822 489.069C483.822 488.44 483.974 487.886 484.28 487.407C484.59 486.929 485.016 486.555 485.558 486.286C486.105 486.017 486.738 485.883 487.458 485.883C488.137 485.883 488.734 486.004 489.249 486.245C489.769 486.487 490.175 486.822 490.466 487.25C490.762 487.679 490.911 488.178 490.911 488.747V488.768C490.911 489.142 490.838 489.508 490.692 489.868C490.546 490.224 490.3 490.609 489.954 491.024C489.607 491.438 489.133 491.924 488.532 492.48L486.153 494.701L486.706 493.799V494.701L486.153 494.339H491.054V496H483.938Z" fill="black"/>
</g>
<g id="lecture_hall_01">
<rect id="room_lecture_hall_01" x="387.192" y="590.263" width="138.693" height="160.737" rx="10" fill="#D9D9D9"/>
<rect id="entrance_lecture_hall_01" width="7.34797" height="33.9843" rx="3.67398" transform="matrix(1 0 0 -1 522.211 643.536)" fill="#A4A4A4"/>
<path id="label_lecture_hall_01" d="M439.196 676V666.136H441.261V670.142H445.704V666.136H447.769V676H445.704V671.844H441.261V676H439.196ZM451.784 676.116C451.31 676.116 450.886 676.025 450.512 675.843C450.143 675.656 449.854 675.394 449.644 675.057C449.434 674.715 449.33 674.316 449.33 673.86V673.847C449.33 673.396 449.441 673.008 449.665 672.685C449.892 672.361 450.223 672.108 450.656 671.926C451.093 671.739 451.624 671.627 452.249 671.591L455.051 671.42V672.637L452.549 672.801C452.121 672.824 451.802 672.915 451.592 673.074C451.383 673.234 451.278 673.45 451.278 673.724V673.737C451.278 674.024 451.387 674.25 451.606 674.414C451.825 674.578 452.107 674.66 452.454 674.66C452.763 674.66 453.039 674.599 453.281 674.476C453.522 674.353 453.714 674.186 453.855 673.977C453.996 673.762 454.067 673.523 454.067 673.259V670.859C454.067 670.531 453.958 670.281 453.739 670.107C453.525 669.93 453.212 669.841 452.802 669.841C452.442 669.841 452.148 669.902 451.92 670.025C451.697 670.144 451.547 670.315 451.469 670.538L451.456 670.565H449.61L449.617 670.504C449.671 670.062 449.838 669.677 450.116 669.349C450.398 669.021 450.777 668.765 451.25 668.583C451.729 668.401 452.283 668.31 452.912 668.31C453.577 668.31 454.142 668.412 454.607 668.617C455.072 668.818 455.425 669.109 455.666 669.492C455.913 669.87 456.036 670.326 456.036 670.859V676H454.067V675.002H453.944C453.816 675.234 453.645 675.435 453.431 675.604C453.221 675.768 452.975 675.895 452.693 675.986C452.415 676.073 452.112 676.116 451.784 676.116ZM457.829 676V665.596H459.825V676H457.829ZM461.728 676V665.596H463.724V676H461.728ZM471.351 676V668.084H471.228L468.808 669.766V667.906L471.358 666.136H473.415V676H471.351Z" fill="black"/>
</g>
<g id="office_02">
<rect id="room_office_02" x="898" y="608" width="111" height="78" rx="10" fill="#D9D9D9"/>
<path id="label_office_02" d="M931.51 654.253C930.535 654.253 929.691 654.043 928.98 653.624C928.27 653.2 927.72 652.601 927.333 651.826C926.95 651.051 926.759 650.133 926.759 649.071V649.058C926.759 647.991 926.952 647.073 927.34 646.303C927.732 645.528 928.283 644.931 928.994 644.512C929.705 644.092 930.544 643.883 931.51 643.883C932.48 643.883 933.319 644.092 934.025 644.512C934.736 644.931 935.285 645.528 935.673 646.303C936.06 647.077 936.254 647.996 936.254 649.058V649.071C936.254 650.133 936.06 651.051 935.673 651.826C935.29 652.601 934.743 653.2 934.032 653.624C933.321 654.043 932.48 654.253 931.51 654.253ZM931.51 652.503C932.043 652.503 932.508 652.362 932.904 652.079C933.301 651.797 933.606 651.398 933.82 650.883C934.039 650.368 934.148 649.764 934.148 649.071V649.058C934.148 648.36 934.039 647.757 933.82 647.246C933.606 646.731 933.301 646.335 932.904 646.057C932.508 645.774 932.043 645.633 931.51 645.633C930.977 645.633 930.512 645.774 930.115 646.057C929.719 646.335 929.411 646.731 929.192 647.246C928.974 647.757 928.864 648.36 928.864 649.058V649.071C928.864 649.764 928.971 650.368 929.186 650.883C929.404 651.398 929.71 651.797 930.102 652.079C930.498 652.362 930.967 652.503 931.51 652.503ZM938.369 654V647.978H937.152V646.474H938.369V645.77C938.369 645.268 938.458 644.851 938.635 644.519C938.813 644.186 939.091 643.938 939.469 643.773C939.852 643.605 940.346 643.521 940.953 643.521C941.158 643.521 941.342 643.527 941.506 643.541C941.675 643.555 941.832 643.573 941.978 643.596V644.929C941.914 644.915 941.83 644.906 941.725 644.901C941.625 644.892 941.511 644.888 941.383 644.888C940.996 644.888 940.722 644.977 940.563 645.154C940.403 645.327 940.324 645.578 940.324 645.906V646.474H941.916V647.978H940.365V654H938.369ZM943.922 654V647.978H942.705V646.474H943.922V645.77C943.922 645.268 944.011 644.851 944.188 644.519C944.366 644.186 944.644 643.938 945.022 643.773C945.405 643.605 945.9 643.521 946.506 643.521C946.711 643.521 946.895 643.527 947.06 643.541C947.228 643.555 947.385 643.573 947.531 643.596V644.929C947.467 644.915 947.383 644.906 947.278 644.901C947.178 644.892 947.064 644.888 946.936 644.888C946.549 644.888 946.276 644.977 946.116 645.154C945.957 645.327 945.877 645.578 945.877 645.906V646.474H947.47V647.978H945.918V654H943.922ZM948.839 654V646.474H950.835V654H948.839ZM949.844 645.318C949.539 645.318 949.275 645.211 949.051 644.997C948.828 644.778 948.716 644.516 948.716 644.211C948.716 643.901 948.828 643.639 949.051 643.425C949.275 643.206 949.539 643.097 949.844 643.097C950.154 643.097 950.418 643.206 950.637 643.425C950.856 643.639 950.965 643.901 950.965 644.211C950.965 644.516 950.856 644.778 950.637 644.997C950.418 645.211 950.154 645.318 949.844 645.318ZM955.931 654.157C955.147 654.157 954.479 654.005 953.928 653.699C953.381 653.389 952.964 652.943 952.677 652.359C952.39 651.771 952.246 651.061 952.246 650.227V650.213C952.246 649.383 952.39 648.679 952.677 648.101C952.964 647.522 953.381 647.08 953.928 646.774C954.479 646.465 955.147 646.31 955.931 646.31C956.596 646.31 957.168 646.424 957.646 646.651C958.125 646.879 958.503 647.201 958.781 647.615C959.059 648.03 959.228 648.518 959.287 649.078V649.099H957.434L957.428 649.085C957.359 648.72 957.2 648.429 956.949 648.21C956.703 647.987 956.366 647.875 955.937 647.875C955.582 647.875 955.279 647.966 955.028 648.148C954.782 648.326 954.595 648.588 954.468 648.935C954.34 649.281 954.276 649.707 954.276 650.213V650.227C954.276 650.732 954.34 651.163 954.468 651.519C954.6 651.869 954.789 652.136 955.035 652.318C955.281 652.501 955.582 652.592 955.937 652.592C956.348 652.592 956.676 652.496 956.922 652.305C957.168 652.113 957.334 651.826 957.421 651.443L957.434 651.423L959.28 651.416V651.464C959.207 652.006 959.032 652.48 958.754 652.886C958.476 653.291 958.1 653.606 957.626 653.829C957.152 654.048 956.587 654.157 955.931 654.157ZM963.924 654.157C963.163 654.157 962.507 654 961.955 653.686C961.409 653.367 960.987 652.915 960.691 652.332C960.395 651.749 960.246 651.054 960.246 650.247V650.24C960.246 649.443 960.392 648.75 960.684 648.162C960.98 647.574 961.397 647.118 961.935 646.795C962.477 646.471 963.113 646.31 963.842 646.31C964.576 646.31 965.209 646.467 965.743 646.781C966.276 647.096 966.686 647.535 966.973 648.101C967.26 648.666 967.404 649.329 967.404 650.09V650.712H961.245V649.461H966.447L965.51 650.644V649.844C965.51 649.393 965.44 649.017 965.298 648.716C965.162 648.415 964.97 648.189 964.724 648.039C964.482 647.884 964.2 647.807 963.876 647.807C963.557 647.807 963.273 647.886 963.022 648.046C962.776 648.201 962.58 648.431 962.434 648.736C962.293 649.037 962.222 649.406 962.222 649.844V650.65C962.222 651.074 962.293 651.437 962.434 651.737C962.575 652.038 962.776 652.268 963.036 652.428C963.295 652.587 963.605 652.667 963.965 652.667C964.257 652.667 964.505 652.624 964.71 652.537C964.915 652.451 965.079 652.35 965.203 652.236C965.33 652.118 965.417 652.011 965.462 651.915L965.483 651.874H967.342L967.329 651.942C967.269 652.179 967.162 652.428 967.007 652.688C966.852 652.943 966.638 653.182 966.365 653.405C966.096 653.629 965.759 653.811 965.353 653.952C964.952 654.089 964.476 654.157 963.924 654.157ZM972.187 654V652.612L975.366 649.475C975.83 649.028 976.19 648.661 976.446 648.374C976.701 648.082 976.879 647.829 976.979 647.615C977.079 647.396 977.129 647.171 977.129 646.938V646.918C977.129 646.635 977.068 646.387 976.945 646.173C976.826 645.959 976.653 645.792 976.425 645.674C976.197 645.551 975.926 645.489 975.612 645.489C975.293 645.489 975.01 645.558 974.764 645.694C974.518 645.826 974.327 646.011 974.19 646.248C974.053 646.48 973.985 646.754 973.985 647.068V647.103H972.077L972.071 647.068C972.071 646.439 972.223 645.886 972.529 645.407C972.839 644.929 973.265 644.555 973.807 644.286C974.354 644.017 974.987 643.883 975.707 643.883C976.386 643.883 976.983 644.004 977.498 644.245C978.018 644.487 978.424 644.822 978.715 645.25C979.011 645.678 979.16 646.177 979.16 646.747V646.768C979.16 647.141 979.087 647.508 978.941 647.868C978.795 648.224 978.549 648.609 978.202 649.023C977.856 649.438 977.382 649.924 976.781 650.479L974.402 652.701L974.955 651.799V652.701L974.402 652.339H979.303V654H972.187Z" fill="black"/>
<rect id="entrance_office_02" width="31" height="6" rx="3" transform="matrix(1 0 0 -1 936 612)" fill="#A4A4A4"/>
</g>
<g id="office_01">
<rect id="room_office_01" x="740.001" y="660" width="63" height="94" rx="10" fill="#D9D9D9"/>
<path id="label_office_01" d="M753.724 710.217C752.888 710.217 752.165 710.037 751.556 709.678C750.946 709.315 750.476 708.801 750.144 708.137C749.816 707.473 749.652 706.686 749.652 705.776V705.764C749.652 704.85 749.818 704.063 750.15 703.403C750.486 702.739 750.958 702.227 751.568 701.867C752.177 701.508 752.896 701.328 753.724 701.328C754.556 701.328 755.275 701.508 755.88 701.867C756.489 702.227 756.96 702.739 757.292 703.403C757.624 704.067 757.79 704.854 757.79 705.764V705.776C757.79 706.686 757.624 707.473 757.292 708.137C756.964 708.801 756.495 709.315 755.886 709.678C755.277 710.037 754.556 710.217 753.724 710.217ZM753.724 708.717C754.181 708.717 754.579 708.596 754.919 708.354C755.259 708.112 755.521 707.77 755.704 707.328C755.892 706.887 755.986 706.369 755.986 705.776V705.764C755.986 705.166 755.892 704.649 755.704 704.211C755.521 703.77 755.259 703.43 754.919 703.192C754.579 702.949 754.181 702.828 753.724 702.828C753.267 702.828 752.868 702.949 752.529 703.192C752.189 703.43 751.925 703.77 751.737 704.211C751.55 704.649 751.456 705.166 751.456 705.764V705.776C751.456 706.369 751.548 706.887 751.732 707.328C751.919 707.77 752.181 708.112 752.517 708.354C752.857 708.596 753.259 708.717 753.724 708.717ZM759.57 710V704.838H758.527V703.549H759.57V702.946C759.57 702.516 759.646 702.158 759.799 701.873C759.951 701.588 760.189 701.375 760.513 701.235C760.841 701.09 761.265 701.018 761.785 701.018C761.961 701.018 762.119 701.024 762.259 701.035C762.404 701.047 762.539 701.063 762.664 701.082V702.225C762.609 702.213 762.537 702.205 762.447 702.201C762.361 702.194 762.263 702.19 762.154 702.19C761.822 702.19 761.588 702.266 761.451 702.418C761.314 702.567 761.246 702.781 761.246 703.063V703.549H762.611V704.838H761.281V710H759.57ZM764.297 710V704.838H763.254V703.549H764.297V702.946C764.297 702.516 764.373 702.158 764.526 701.873C764.678 701.588 764.916 701.375 765.24 701.235C765.569 701.09 765.992 701.018 766.512 701.018C766.688 701.018 766.846 701.024 766.986 701.035C767.131 701.047 767.266 701.063 767.391 701.082V702.225C767.336 702.213 767.264 702.205 767.174 702.201C767.088 702.194 766.99 702.19 766.881 702.19C766.549 702.19 766.315 702.266 766.178 702.418C766.041 702.567 765.973 702.781 765.973 703.063V703.549H767.338V704.838H766.008V710H764.297ZM768.479 710V703.549H770.19V710H768.479ZM769.34 702.559C769.079 702.559 768.852 702.467 768.661 702.283C768.469 702.096 768.374 701.871 768.374 701.61C768.374 701.344 768.469 701.119 768.661 700.936C768.852 700.748 769.079 700.655 769.34 700.655C769.606 700.655 769.833 700.748 770.02 700.936C770.208 701.119 770.301 701.344 770.301 701.61C770.301 701.871 770.208 702.096 770.02 702.283C769.833 702.467 769.606 702.559 769.34 702.559ZM774.525 710.135C773.853 710.135 773.28 710.004 772.808 709.742C772.339 709.477 771.982 709.094 771.735 708.594C771.489 708.09 771.366 707.481 771.366 706.766V706.754C771.366 706.043 771.489 705.44 771.735 704.944C771.982 704.448 772.339 704.069 772.808 703.807C773.28 703.541 773.853 703.408 774.525 703.408C775.095 703.408 775.585 703.506 775.995 703.701C776.405 703.897 776.73 704.172 776.968 704.528C777.206 704.883 777.351 705.301 777.401 705.781V705.799H775.814L775.808 705.787C775.749 705.475 775.612 705.225 775.398 705.037C775.187 704.846 774.898 704.75 774.53 704.75C774.226 704.75 773.966 704.828 773.751 704.985C773.54 705.137 773.38 705.362 773.271 705.658C773.161 705.955 773.107 706.321 773.107 706.754V706.766C773.107 707.199 773.161 707.569 773.271 707.873C773.384 708.174 773.546 708.403 773.757 708.559C773.968 708.715 774.226 708.793 774.53 708.793C774.882 708.793 775.163 708.711 775.374 708.547C775.585 708.383 775.728 708.137 775.802 707.809L775.814 707.791L777.396 707.785V707.826C777.333 708.291 777.183 708.698 776.944 709.045C776.706 709.393 776.384 709.662 775.978 709.854C775.571 710.041 775.087 710.135 774.525 710.135ZM781.343 710.135C780.691 710.135 780.129 710 779.656 709.731C779.187 709.457 778.826 709.071 778.572 708.571C778.318 708.071 778.191 707.475 778.191 706.783V706.778C778.191 706.094 778.316 705.5 778.566 704.996C778.82 704.492 779.177 704.102 779.638 703.824C780.103 703.547 780.648 703.408 781.273 703.408C781.902 703.408 782.445 703.543 782.902 703.813C783.359 704.082 783.711 704.459 783.957 704.944C784.203 705.428 784.326 705.996 784.326 706.649V707.182H779.046V706.11H783.505L782.703 707.123V706.438C782.703 706.051 782.642 705.729 782.521 705.471C782.404 705.213 782.24 705.02 782.029 704.891C781.822 704.758 781.58 704.692 781.302 704.692C781.029 704.692 780.785 704.76 780.57 704.897C780.359 705.03 780.191 705.227 780.066 705.489C779.945 705.746 779.884 706.063 779.884 706.438V707.129C779.884 707.492 779.945 707.803 780.066 708.061C780.187 708.319 780.359 708.516 780.582 708.653C780.804 708.789 781.07 708.858 781.379 708.858C781.629 708.858 781.841 708.821 782.017 708.746C782.193 708.672 782.334 708.586 782.439 708.489C782.548 708.387 782.623 708.295 782.662 708.213L782.679 708.178H784.273L784.261 708.237C784.211 708.44 784.119 708.653 783.986 708.875C783.853 709.094 783.67 709.299 783.435 709.49C783.205 709.682 782.916 709.838 782.568 709.959C782.224 710.076 781.816 710.135 781.343 710.135ZM790.428 710V703.215H790.323L788.249 704.656V703.063L790.434 701.545H792.198V710H790.428Z" fill="black"/>
<rect id="entrance_office_01" width="27" height="4" rx="2" transform="matrix(1 0 0 -1 758 662)" fill="#A4A4A4"/>
</g>
<g id="dining_area">
<rect id="room_dining_area" x="13" y="506" width="127.454" height="245.027" rx="10" fill="#D9D9D9"/>
<path id="label_dining_area" d="M54.0162 614V604.136H57.899C58.8788 604.136 59.7128 604.327 60.4009 604.71C61.0891 605.088 61.6155 605.64 61.98 606.365C62.3446 607.089 62.5269 607.966 62.5269 608.996V609.01C62.5269 610.072 62.3446 610.974 61.98 611.717C61.62 612.46 61.0959 613.027 60.4078 613.419C59.7196 613.807 58.8834 614 57.899 614H54.0162ZM56.0806 612.298H57.5709C58.1815 612.298 58.6988 612.173 59.1226 611.922C59.5464 611.671 59.8677 611.305 60.0865 610.822C60.3098 610.334 60.4214 609.741 60.4214 609.044V609.031C60.4214 608.351 60.3075 607.775 60.0796 607.301C59.8563 606.823 59.5305 606.46 59.1021 606.214C58.6783 605.963 58.1679 605.838 57.5709 605.838H56.0806V612.298ZM64.0743 614V606.474H66.0704V614H64.0743ZM65.0791 605.319C64.7738 605.319 64.5095 605.212 64.2862 604.997C64.0629 604.779 63.9512 604.517 63.9512 604.211C63.9512 603.901 64.0629 603.639 64.2862 603.425C64.5095 603.206 64.7738 603.097 65.0791 603.097C65.389 603.097 65.6534 603.206 65.8721 603.425C66.0909 603.639 66.2002 603.901 66.2002 604.211C66.2002 604.517 66.0909 604.779 65.8721 604.997C65.6534 605.212 65.389 605.319 65.0791 605.319ZM67.8501 614V606.474H69.8462V607.636H69.9693C70.1424 607.226 70.4113 606.902 70.7759 606.665C71.1405 606.428 71.5917 606.31 72.1294 606.31C72.968 606.31 73.606 606.556 74.0435 607.048C74.4855 607.536 74.7066 608.231 74.7066 609.133V614H72.7105V609.584C72.7105 609.051 72.5988 608.648 72.3755 608.374C72.1522 608.101 71.8036 607.964 71.3296 607.964C71.0243 607.964 70.7599 608.035 70.5366 608.176C70.3179 608.313 70.147 608.506 70.0239 608.757C69.9055 609.008 69.8462 609.304 69.8462 609.646V614H67.8501ZM76.4248 614V606.474H78.4209V614H76.4248ZM77.4297 605.319C77.1243 605.319 76.86 605.212 76.6367 604.997C76.4134 604.779 76.3018 604.517 76.3018 604.211C76.3018 603.901 76.4134 603.639 76.6367 603.425C76.86 603.206 77.1243 603.097 77.4297 603.097C77.7396 603.097 78.0039 603.206 78.2227 603.425C78.4414 603.639 78.5508 603.901 78.5508 604.211C78.5508 604.517 78.4414 604.779 78.2227 604.997C78.0039 605.212 77.7396 605.319 77.4297 605.319ZM80.2007 614V606.474H82.1968V607.636H82.3198C82.493 607.226 82.7619 606.902 83.1264 606.665C83.491 606.428 83.9422 606.31 84.48 606.31C85.3185 606.31 85.9565 606.556 86.394 607.048C86.8361 607.536 87.0571 608.231 87.0571 609.133V614H85.061V609.584C85.061 609.051 84.9494 608.648 84.7261 608.374C84.5027 608.101 84.1541 607.964 83.6802 607.964C83.3748 607.964 83.1105 608.035 82.8872 608.176C82.6684 608.313 82.4975 608.506 82.3745 608.757C82.256 609.008 82.1968 609.304 82.1968 609.646V614H80.2007ZM92.0839 616.646C91.3867 616.646 90.7897 616.555 90.2929 616.372C89.8007 616.195 89.4134 615.942 89.1308 615.614C88.8483 615.29 88.6796 614.916 88.625 614.492V614.458H90.6005L90.6074 614.486C90.6621 614.704 90.817 614.882 91.0722 615.019C91.332 615.156 91.6829 615.224 92.125 615.224C92.6582 615.224 93.0729 615.103 93.3691 614.862C93.6653 614.625 93.8134 614.287 93.8134 613.85V612.448H93.6904C93.5537 612.713 93.3737 612.936 93.1504 613.118C92.9316 613.301 92.6764 613.44 92.3847 613.535C92.0976 613.627 91.7809 613.672 91.4345 613.672C90.8056 613.672 90.261 613.522 89.8007 613.221C89.345 612.916 88.9918 612.492 88.7412 611.949C88.4951 611.407 88.372 610.781 88.372 610.07V610.056C88.372 609.318 88.4951 608.67 88.7412 608.115C88.9918 607.559 89.3473 607.126 89.8076 606.816C90.2724 606.506 90.8261 606.351 91.4687 606.351C91.8151 606.351 92.1318 606.406 92.4189 606.515C92.7106 606.624 92.9658 606.779 93.1845 606.98C93.4033 607.18 93.5787 607.422 93.7109 607.704H93.8066V606.474H95.8027V613.768C95.8027 614.356 95.65 614.864 95.3447 615.292C95.0439 615.725 94.6155 616.058 94.0595 616.29C93.5035 616.527 92.845 616.646 92.0839 616.646ZM92.1113 612.141C92.4713 612.141 92.7789 612.054 93.0341 611.881C93.2893 611.703 93.4853 611.46 93.622 611.15C93.7633 610.84 93.8339 610.477 93.8339 610.063V610.049C93.8339 609.639 93.7633 609.277 93.622 608.962C93.4853 608.648 93.2893 608.404 93.0341 608.231C92.7789 608.058 92.4713 607.971 92.1113 607.971C91.7513 607.971 91.4459 608.058 91.1953 608.231C90.9446 608.404 90.7509 608.648 90.6142 608.962C90.4821 609.272 90.416 609.634 90.416 610.049V610.063C90.416 610.473 90.4821 610.835 90.6142 611.15C90.7509 611.46 90.9446 611.703 91.1953 611.881C91.4459 612.054 91.7513 612.141 92.1113 612.141ZM60.9036 634L64.3284 624.136H66.0852V626.105H65.4837L63.0706 634H60.9036ZM62.7356 631.608L63.2415 630.063H67.8011L68.3069 631.608H62.7356ZM68.013 634L65.6067 626.105V624.136H66.7552L70.1868 634H68.013ZM71.4334 634V626.474H73.4295V627.643H73.5525C73.6755 627.233 73.9011 626.916 74.2293 626.693C74.5574 626.465 74.9653 626.351 75.4529 626.351C75.5896 626.351 75.7218 626.36 75.8494 626.378C75.9815 626.396 76.0977 626.419 76.198 626.447V628.19C76.0476 628.153 75.8949 628.126 75.74 628.108C75.5896 628.085 75.4369 628.073 75.282 628.073C74.9037 628.073 74.5756 628.144 74.2976 628.285C74.0196 628.422 73.8054 628.618 73.655 628.873C73.5046 629.128 73.4295 629.434 73.4295 629.789V634H71.4334ZM80.4455 634.157C79.6845 634.157 79.0282 634 78.4768 633.686C77.9299 633.367 77.5084 632.916 77.2121 632.332C76.9159 631.749 76.7678 631.054 76.7678 630.247V630.24C76.7678 629.443 76.9136 628.75 77.2053 628.162C77.5015 627.574 77.9185 627.119 78.4563 626.795C78.9986 626.472 79.6343 626.31 80.3635 626.31C81.0972 626.31 81.7307 626.467 82.2639 626.781C82.7971 627.096 83.2073 627.536 83.4944 628.101C83.7815 628.666 83.925 629.329 83.925 630.09V630.712H77.7659V629.461H82.968L82.0315 630.644V629.844C82.0315 629.393 81.9608 629.017 81.8196 628.716C81.6828 628.415 81.4914 628.19 81.2453 628.039C81.0038 627.884 80.7213 627.807 80.3977 627.807C80.0787 627.807 79.7939 627.887 79.5432 628.046C79.2971 628.201 79.1011 628.431 78.9553 628.737C78.814 629.037 78.7434 629.406 78.7434 629.844V630.651C78.7434 631.074 78.814 631.437 78.9553 631.738C79.0966 632.038 79.2971 632.268 79.5569 632.428C79.8166 632.587 80.1265 632.667 80.4866 632.667C80.7782 632.667 81.0266 632.624 81.2317 632.537C81.4368 632.451 81.6008 632.351 81.7239 632.237C81.8515 632.118 81.9381 632.011 81.9836 631.915L82.0041 631.874H83.8635L83.8498 631.943C83.7906 632.18 83.6835 632.428 83.5286 632.688C83.3736 632.943 83.1594 633.182 82.886 633.406C82.6171 633.629 82.2799 633.811 81.8743 633.952C81.4732 634.089 80.997 634.157 80.4455 634.157ZM87.3796 634.116C86.9056 634.116 86.4818 634.025 86.1081 633.843C85.739 633.656 85.4496 633.394 85.24 633.057C85.0303 632.715 84.9255 632.316 84.9255 631.861V631.847C84.9255 631.396 85.0372 631.008 85.2605 630.685C85.4883 630.361 85.8187 630.108 86.2517 629.926C86.6892 629.739 87.2201 629.628 87.8445 629.591L90.6472 629.42V630.637L88.1452 630.801C87.7168 630.824 87.3978 630.915 87.1882 631.074C86.9786 631.234 86.8737 631.45 86.8737 631.724V631.738C86.8737 632.025 86.9831 632.25 87.2019 632.414C87.4206 632.578 87.7032 632.66 88.0495 632.66C88.3594 632.66 88.6351 632.599 88.8767 632.476C89.1182 632.353 89.3096 632.186 89.4509 631.977C89.5922 631.763 89.6628 631.523 89.6628 631.259V628.86C89.6628 628.531 89.5534 628.281 89.3347 628.108C89.1205 627.93 88.8083 627.841 88.3982 627.841C88.0381 627.841 87.7442 627.903 87.5163 628.026C87.293 628.144 87.1426 628.315 87.0652 628.538L87.0515 628.566H85.2058L85.2126 628.504C85.2673 628.062 85.4336 627.677 85.7116 627.349C85.9942 627.021 86.3724 626.766 86.8464 626.583C87.3249 626.401 87.8786 626.31 88.5075 626.31C89.1729 626.31 89.738 626.412 90.2029 626.617C90.6677 626.818 91.0209 627.11 91.2624 627.492C91.5085 627.871 91.6316 628.326 91.6316 628.86V634H89.6628V633.002H89.5398C89.4122 633.235 89.2413 633.435 89.0271 633.604C88.8174 633.768 88.5713 633.895 88.2888 633.987C88.0108 634.073 87.7077 634.116 87.3796 634.116Z" fill="black"/>
<rect id="entrance_dining_area" width="6" height="165" rx="3" transform="matrix(1 0 0 -1 137 710)" fill="#A4A4A4"/>
</g>
<g id="cafeteria">
<rect id="room_cafeteria" x="179.07" y="505.973" width="155.118" height="245.027" rx="10" fill="#D9D9D9"/>
<rect id="entrance_1_cafeteria" width="6.42947" height="46.8433" rx="3.21474" transform="matrix(1 0 0 -1 330.245 593.019)" fill="#A4A4A4"/>
<rect id="entrance_2_cafeteria" width="6.42947" height="46.8433" rx="3.21474" transform="matrix(1 0 0 -1 176.106 592.336)" fill="#A4A4A4"/>
<path id="label_cafeteria" d="M228.788 614.253C227.836 614.253 227.013 614.043 226.32 613.624C225.628 613.205 225.094 612.608 224.721 611.833C224.347 611.058 224.16 610.138 224.16 609.071V609.058C224.16 607.991 224.347 607.071 224.721 606.296C225.094 605.521 225.625 604.926 226.314 604.512C227.006 604.092 227.831 603.883 228.788 603.883C229.567 603.883 230.267 604.035 230.887 604.341C231.511 604.646 232.015 605.068 232.398 605.605C232.78 606.143 233.004 606.758 233.067 607.451V607.54H231.065L231.058 607.492C230.989 607.123 230.85 606.799 230.641 606.521C230.431 606.239 230.167 606.02 229.848 605.865C229.533 605.71 229.18 605.633 228.788 605.633C228.273 605.633 227.827 605.772 227.448 606.05C227.07 606.323 226.778 606.717 226.573 607.232C226.373 607.743 226.273 608.351 226.273 609.058V609.071C226.273 609.773 226.373 610.382 226.573 610.896C226.778 611.411 227.07 611.808 227.448 612.086C227.827 612.364 228.275 612.503 228.795 612.503C229.191 612.503 229.545 612.432 229.855 612.291C230.169 612.145 230.429 611.942 230.634 611.683C230.844 611.418 230.983 611.111 231.051 610.76L231.065 610.698H233.074V610.78C233.001 611.468 232.776 612.072 232.398 612.592C232.019 613.111 231.523 613.519 230.907 613.815C230.292 614.107 229.586 614.253 228.788 614.253ZM236.597 614.116C236.123 614.116 235.699 614.025 235.326 613.843C234.957 613.656 234.667 613.394 234.458 613.057C234.248 612.715 234.143 612.316 234.143 611.86V611.847C234.143 611.396 234.255 611.008 234.478 610.685C234.706 610.361 235.036 610.108 235.469 609.926C235.907 609.739 236.438 609.627 237.062 609.591L239.865 609.42V610.637L237.363 610.801C236.934 610.824 236.615 610.915 236.406 611.074C236.196 611.234 236.091 611.45 236.091 611.724V611.737C236.091 612.024 236.201 612.25 236.419 612.414C236.638 612.578 236.921 612.66 237.267 612.66C237.577 612.66 237.853 612.599 238.094 612.476C238.336 612.353 238.527 612.186 238.669 611.977C238.81 611.762 238.88 611.523 238.88 611.259V608.859C238.88 608.531 238.771 608.281 238.552 608.107C238.338 607.93 238.026 607.841 237.616 607.841C237.256 607.841 236.962 607.902 236.734 608.025C236.511 608.144 236.36 608.315 236.283 608.538L236.269 608.565H234.423L234.43 608.504C234.485 608.062 234.651 607.677 234.929 607.349C235.212 607.021 235.59 606.765 236.064 606.583C236.543 606.401 237.096 606.31 237.725 606.31C238.391 606.31 238.956 606.412 239.42 606.617C239.885 606.818 240.239 607.109 240.48 607.492C240.726 607.87 240.849 608.326 240.849 608.859V614H238.88V613.002H238.757C238.63 613.234 238.459 613.435 238.245 613.604C238.035 613.768 237.789 613.895 237.506 613.986C237.228 614.073 236.925 614.116 236.597 614.116ZM243.155 614V607.978H241.939V606.474H243.155V605.77C243.155 605.268 243.244 604.851 243.422 604.519C243.6 604.186 243.878 603.938 244.256 603.773C244.639 603.605 245.133 603.521 245.739 603.521C245.944 603.521 246.129 603.527 246.293 603.541C246.462 603.555 246.619 603.573 246.765 603.596V604.929C246.701 604.915 246.617 604.906 246.512 604.901C246.411 604.892 246.298 604.888 246.17 604.888C245.783 604.888 245.509 604.977 245.35 605.154C245.19 605.327 245.11 605.578 245.11 605.906V606.474H246.703V607.978H245.151V614H243.155ZM251.108 614.157C250.347 614.157 249.691 614 249.139 613.686C248.592 613.367 248.171 612.915 247.875 612.332C247.578 611.749 247.43 611.054 247.43 610.247V610.24C247.43 609.443 247.576 608.75 247.868 608.162C248.164 607.574 248.581 607.118 249.119 606.795C249.661 606.471 250.297 606.31 251.026 606.31C251.76 606.31 252.393 606.467 252.926 606.781C253.459 607.096 253.87 607.535 254.157 608.101C254.444 608.666 254.587 609.329 254.587 610.09V610.712H248.428V609.461H253.63L252.694 610.644V609.844C252.694 609.393 252.623 609.017 252.482 608.716C252.345 608.415 252.154 608.189 251.908 608.039C251.666 607.884 251.384 607.807 251.06 607.807C250.741 607.807 250.456 607.886 250.206 608.046C249.959 608.201 249.764 608.431 249.618 608.736C249.476 609.037 249.406 609.406 249.406 609.844V610.65C249.406 611.074 249.476 611.437 249.618 611.737C249.759 612.038 249.959 612.268 250.219 612.428C250.479 612.587 250.789 612.667 251.149 612.667C251.441 612.667 251.689 612.624 251.894 612.537C252.099 612.451 252.263 612.35 252.386 612.236C252.514 612.118 252.6 612.011 252.646 611.915L252.667 611.874H254.526L254.512 611.942C254.453 612.179 254.346 612.428 254.191 612.688C254.036 612.943 253.822 613.182 253.548 613.405C253.279 613.629 252.942 613.811 252.537 613.952C252.136 614.089 251.659 614.157 251.108 614.157ZM259.115 614.027C258.204 614.027 257.548 613.868 257.146 613.549C256.745 613.225 256.545 612.699 256.545 611.97V607.978H255.383V606.474H256.545V604.676H258.562V606.474H260.113V607.978H258.562V611.512C258.562 611.849 258.637 612.097 258.787 612.257C258.942 612.412 259.188 612.489 259.525 612.489C259.653 612.489 259.758 612.487 259.84 612.482C259.926 612.473 260.018 612.464 260.113 612.455V613.938C259.99 613.961 259.842 613.982 259.669 614C259.496 614.018 259.311 614.027 259.115 614.027ZM264.798 614.157C264.037 614.157 263.381 614 262.83 613.686C262.283 613.367 261.861 612.915 261.565 612.332C261.269 611.749 261.121 611.054 261.121 610.247V610.24C261.121 609.443 261.266 608.75 261.558 608.162C261.854 607.574 262.271 607.118 262.809 606.795C263.351 606.471 263.987 606.31 264.716 606.31C265.45 606.31 266.083 606.467 266.617 606.781C267.15 607.096 267.56 607.535 267.847 608.101C268.134 608.666 268.278 609.329 268.278 610.09V610.712H262.119V609.461H267.321L266.384 610.644V609.844C266.384 609.393 266.314 609.017 266.172 608.716C266.036 608.415 265.844 608.189 265.598 608.039C265.357 607.884 265.074 607.807 264.75 607.807C264.431 607.807 264.147 607.886 263.896 608.046C263.65 608.201 263.454 608.431 263.308 608.736C263.167 609.037 263.096 609.406 263.096 609.844V610.65C263.096 611.074 263.167 611.437 263.308 611.737C263.449 612.038 263.65 612.268 263.91 612.428C264.169 612.587 264.479 612.667 264.839 612.667C265.131 612.667 265.379 612.624 265.584 612.537C265.79 612.451 265.954 612.35 266.077 612.236C266.204 612.118 266.291 612.011 266.336 611.915L266.357 611.874H268.216L268.203 611.942C268.143 612.179 268.036 612.428 267.881 612.688C267.726 612.943 267.512 613.182 267.239 613.405C266.97 613.629 266.633 613.811 266.227 613.952C265.826 614.089 265.35 614.157 264.798 614.157ZM269.682 614V606.474H271.678V607.643H271.801C271.924 607.232 272.149 606.916 272.478 606.692C272.806 606.465 273.214 606.351 273.701 606.351C273.838 606.351 273.97 606.36 274.098 606.378C274.23 606.396 274.346 606.419 274.446 606.446V608.189C274.296 608.153 274.143 608.126 273.988 608.107C273.838 608.085 273.685 608.073 273.53 608.073C273.152 608.073 272.824 608.144 272.546 608.285C272.268 608.422 272.054 608.618 271.903 608.873C271.753 609.128 271.678 609.434 271.678 609.789V614H269.682ZM275.563 614V606.474H277.559V614H275.563ZM276.568 605.318C276.262 605.318 275.998 605.211 275.775 604.997C275.552 604.778 275.44 604.516 275.44 604.211C275.44 603.901 275.552 603.639 275.775 603.425C275.998 603.206 276.262 603.097 276.568 603.097C276.878 603.097 277.142 603.206 277.361 603.425C277.58 603.639 277.689 603.901 277.689 604.211C277.689 604.516 277.58 604.778 277.361 604.997C277.142 605.211 276.878 605.318 276.568 605.318ZM281.39 614.116C280.916 614.116 280.492 614.025 280.118 613.843C279.749 613.656 279.46 613.394 279.25 613.057C279.04 612.715 278.935 612.316 278.935 611.86V611.847C278.935 611.396 279.047 611.008 279.27 610.685C279.498 610.361 279.829 610.108 280.262 609.926C280.699 609.739 281.23 609.627 281.854 609.591L284.657 609.42V610.637L282.155 610.801C281.727 610.824 281.408 610.915 281.198 611.074C280.989 611.234 280.884 611.45 280.884 611.724V611.737C280.884 612.024 280.993 612.25 281.212 612.414C281.431 612.578 281.713 612.66 282.059 612.66C282.369 612.66 282.645 612.599 282.887 612.476C283.128 612.353 283.32 612.186 283.461 611.977C283.602 611.762 283.673 611.523 283.673 611.259V608.859C283.673 608.531 283.563 608.281 283.345 608.107C283.13 607.93 282.818 607.841 282.408 607.841C282.048 607.841 281.754 607.902 281.526 608.025C281.303 608.144 281.153 608.315 281.075 608.538L281.061 608.565H279.216L279.223 608.504C279.277 608.062 279.444 607.677 279.722 607.349C280.004 607.021 280.382 606.765 280.856 606.583C281.335 606.401 281.889 606.31 282.518 606.31C283.183 606.31 283.748 606.412 284.213 606.617C284.678 606.818 285.031 607.109 285.272 607.492C285.518 607.87 285.642 608.326 285.642 608.859V614H283.673V613.002H283.55C283.422 613.234 283.251 613.435 283.037 613.604C282.827 613.768 282.581 613.895 282.299 613.986C282.021 614.073 281.718 614.116 281.39 614.116Z" fill="black"/>
</g>
<g id="guys_washroom_fg_02">
<rect id="room_guys_washroom_fg_02" x="253.091" y="143.874" width="78.0721" height="90.0126" rx="10" fill="#D9D9D9"/>
<rect id="entrance_guys_washroom_fg_02" width="6.71337" height="31.3291" rx="3.35668" transform="matrix(1 0 0 -1 327.206 218.423)" fill="#A4A4A4"/>
<path id="label_guys_washroom_fg_02" d="M285.852 191.597V186.631C285.852 185.758 286.058 184.994 286.468 184.337C286.885 183.681 287.456 183.174 288.179 182.816C288.903 182.458 289.738 182.279 290.685 182.279H292.463C293.411 182.279 294.246 182.458 294.969 182.816C295.7 183.174 296.27 183.681 296.681 184.337C297.091 184.994 297.296 185.758 297.296 186.631V191.597C297.296 191.918 297.184 192.19 296.96 192.414C296.744 192.63 296.479 192.738 296.166 192.738C295.853 192.738 295.584 192.63 295.361 192.414C295.144 192.19 295.036 191.918 295.036 191.597V187.145C295.036 186.929 294.928 186.821 294.712 186.821C294.496 186.821 294.387 186.929 294.387 187.145V200.691C294.387 201.042 294.264 201.333 294.018 201.564C293.78 201.803 293.489 201.922 293.146 201.922C292.803 201.922 292.512 201.803 292.273 201.564C292.035 201.325 291.915 201.034 291.915 200.691V192.425C291.915 192.335 291.882 192.257 291.815 192.19C291.748 192.123 291.669 192.089 291.58 192.089C291.483 192.089 291.401 192.123 291.334 192.19C291.274 192.257 291.244 192.335 291.244 192.425V200.691C291.244 201.034 291.125 201.325 290.886 201.564C290.648 201.803 290.357 201.922 290.014 201.922C289.663 201.922 289.369 201.803 289.13 201.564C288.891 201.333 288.772 201.042 288.772 200.691V187.145C288.772 186.929 288.664 186.821 288.448 186.821C288.224 186.821 288.112 186.929 288.112 187.145V191.597C288.112 191.918 288 192.19 287.776 192.414C287.56 192.63 287.295 192.738 286.982 192.738C286.669 192.738 286.401 192.63 286.177 192.414C285.961 192.19 285.852 191.918 285.852 191.597ZM291.58 181.049C291.095 181.049 290.651 180.933 290.249 180.702C289.853 180.463 289.536 180.146 289.298 179.751C289.059 179.348 288.94 178.905 288.94 178.42C288.94 177.935 289.059 177.495 289.298 177.1C289.536 176.705 289.853 176.388 290.249 176.149C290.651 175.911 291.095 175.791 291.58 175.791C292.064 175.791 292.504 175.911 292.9 176.149C293.295 176.388 293.612 176.705 293.85 177.1C294.089 177.495 294.208 177.935 294.208 178.42C294.208 178.905 294.089 179.348 293.85 179.751C293.612 180.146 293.295 180.463 292.9 180.702C292.504 180.933 292.064 181.049 291.58 181.049Z" fill="black"/>
</g>
<g id="guys_washroom_fg_01">
<rect id="room_guys_washroom_fg_01" x="810.435" y="610.273" width="56.9467" height="88.1756" rx="10" fill="#D9D9D9"/>
<path id="label_guys_washroom_fg_01" d="M832.852 653.597V648.631C832.852 647.758 833.058 646.994 833.468 646.337C833.885 645.681 834.456 645.174 835.179 644.816C835.903 644.458 836.738 644.279 837.685 644.279H839.463C840.411 644.279 841.246 644.458 841.969 644.816C842.7 645.174 843.27 645.681 843.681 646.337C844.091 646.994 844.296 647.758 844.296 648.631V653.597C844.296 653.918 844.184 654.19 843.96 654.414C843.744 654.63 843.479 654.738 843.166 654.738C842.853 654.738 842.584 654.63 842.361 654.414C842.144 654.19 842.036 653.918 842.036 653.597V649.145C842.036 648.929 841.928 648.821 841.712 648.821C841.496 648.821 841.387 648.929 841.387 649.145V662.691C841.387 663.042 841.264 663.333 841.018 663.564C840.78 663.803 840.489 663.922 840.146 663.922C839.803 663.922 839.512 663.803 839.273 663.564C839.035 663.325 838.915 663.034 838.915 662.691V654.425C838.915 654.335 838.882 654.257 838.815 654.19C838.748 654.123 838.669 654.089 838.58 654.089C838.483 654.089 838.401 654.123 838.334 654.19C838.274 654.257 838.244 654.335 838.244 654.425V662.691C838.244 663.034 838.125 663.325 837.886 663.564C837.648 663.803 837.357 663.922 837.014 663.922C836.663 663.922 836.369 663.803 836.13 663.564C835.891 663.333 835.772 663.042 835.772 662.691V649.145C835.772 648.929 835.664 648.821 835.448 648.821C835.224 648.821 835.112 648.929 835.112 649.145V653.597C835.112 653.918 835 654.19 834.776 654.414C834.56 654.63 834.295 654.738 833.982 654.738C833.669 654.738 833.401 654.63 833.177 654.414C832.961 654.19 832.852 653.918 832.852 653.597ZM838.58 643.049C838.095 643.049 837.651 642.933 837.249 642.702C836.853 642.463 836.536 642.146 836.298 641.751C836.059 641.348 835.94 640.905 835.94 640.42C835.94 639.935 836.059 639.495 836.298 639.1C836.536 638.705 836.853 638.388 837.249 638.149C837.651 637.911 838.095 637.791 838.58 637.791C839.064 637.791 839.504 637.911 839.9 638.149C840.295 638.388 840.612 638.705 840.85 639.1C841.089 639.495 841.208 639.935 841.208 640.42C841.208 640.905 841.089 641.348 840.85 641.751C840.612 642.146 840.295 642.463 839.9 642.702C839.504 642.933 839.064 643.049 838.58 643.049Z" fill="black"/>
<rect id="entrance_guys_washroom_fg_01" width="6.71337" height="31.3291" rx="3.35668" transform="matrix(1 0 0 -1 807.424 655.903)" fill="#A4A4A4"/>
</g>
<g id="ladies_washroom_fg_02">
<rect id="room_ladies_washroom_fg_02" x="389.981" y="144.113" width="78.0721" height="90.0126" rx="10" fill="#D9D9D9"/>
<rect id="entrance_ladies_washroom_fg_02" width="6.71337" height="31.3291" rx="3.35668" transform="matrix(1 0 0 -1 388.095 219.107)" fill="#A4A4A4"/>
<path id="label_ladies_washroom_fg_02" d="M428.844 181.049C428.359 181.049 427.919 180.933 427.524 180.702C427.129 180.463 426.812 180.146 426.573 179.751C426.334 179.348 426.215 178.905 426.215 178.42C426.215 177.935 426.334 177.495 426.573 177.1C426.812 176.705 427.129 176.388 427.524 176.149C427.919 175.911 428.359 175.791 428.844 175.791C429.328 175.791 429.768 175.911 430.164 176.149C430.566 176.388 430.887 176.705 431.126 177.1C431.364 177.495 431.484 177.935 431.484 178.42C431.484 178.905 431.364 179.348 431.126 179.751C430.887 180.146 430.566 180.463 430.164 180.702C429.768 180.933 429.328 181.049 428.844 181.049ZM427.278 201.922C426.942 201.922 426.651 201.803 426.405 201.564C426.167 201.333 426.047 201.042 426.047 200.691V195.837H424.671C424.343 195.837 424.112 195.717 423.978 195.479C423.844 195.233 423.825 194.945 423.922 194.617L426.293 187.212C426.353 187.026 426.327 186.88 426.215 186.776C426.111 186.672 425.984 186.634 425.835 186.664C425.686 186.694 425.581 186.809 425.521 187.011L423.989 191.765C423.87 192.13 423.676 192.376 423.407 192.503C423.139 192.63 422.87 192.656 422.602 192.581C422.333 192.499 422.125 192.339 421.975 192.1C421.826 191.854 421.808 191.545 421.92 191.172L423.463 186.418C423.769 185.478 424.116 184.703 424.504 184.091C424.899 183.472 425.395 183.014 425.991 182.715C426.588 182.417 427.345 182.268 428.262 182.268H429.437C430.354 182.268 431.111 182.417 431.707 182.715C432.304 183.014 432.796 183.472 433.184 184.091C433.579 184.703 433.93 185.478 434.235 186.418L435.768 191.172C435.887 191.545 435.872 191.854 435.723 192.1C435.574 192.339 435.362 192.499 435.086 192.581C434.817 192.656 434.549 192.63 434.28 192.503C434.019 192.376 433.829 192.13 433.71 191.765L432.177 187.011C432.11 186.809 432.002 186.694 431.853 186.664C431.704 186.634 431.573 186.672 431.461 186.776C431.357 186.88 431.338 187.026 431.405 187.212L433.766 194.617C433.87 194.945 433.855 195.233 433.721 195.479C433.587 195.717 433.352 195.837 433.016 195.837H431.651V200.691C431.651 201.042 431.528 201.333 431.282 201.564C431.044 201.803 430.753 201.922 430.41 201.922C430.074 201.922 429.783 201.803 429.537 201.564C429.299 201.325 429.179 201.034 429.179 200.691V195.837C429.179 195.74 429.146 195.658 429.079 195.591C429.019 195.523 428.941 195.49 428.844 195.49C428.754 195.49 428.676 195.523 428.609 195.591C428.549 195.658 428.519 195.74 428.519 195.837V200.691C428.519 201.034 428.396 201.325 428.15 201.564C427.912 201.803 427.621 201.922 427.278 201.922Z" fill="black"/>
</g>
<g id="ladies_washroom_fg_01">
<rect id="room_ladies_washroom_fg_01" x="745" y="313" width="70" height="89" rx="10" fill="#D9D9D9"/>
<rect id="entrance_ladies_washroom_fg_01" width="30" height="6" rx="3" transform="matrix(1 0 0 -1 765 405)" fill="#A4A4A4"/>
<path id="label_ladies_washroom_fg_01" d="M780.844 348.049C780.359 348.049 779.919 347.933 779.524 347.702C779.129 347.463 778.812 347.147 778.573 346.751C778.334 346.349 778.215 345.905 778.215 345.42C778.215 344.935 778.334 344.495 778.573 344.1C778.812 343.705 779.129 343.388 779.524 343.149C779.919 342.911 780.359 342.791 780.844 342.791C781.329 342.791 781.769 342.911 782.164 343.149C782.566 343.388 782.887 343.705 783.126 344.1C783.364 344.495 783.484 344.935 783.484 345.42C783.484 345.905 783.364 346.349 783.126 346.751C782.887 347.147 782.566 347.463 782.164 347.702C781.769 347.933 781.329 348.049 780.844 348.049ZM779.278 368.922C778.942 368.922 778.651 368.803 778.405 368.564C778.167 368.333 778.047 368.042 778.047 367.692V362.837H776.671C776.343 362.837 776.112 362.718 775.978 362.479C775.844 362.233 775.825 361.946 775.922 361.618L778.293 354.212C778.353 354.026 778.327 353.881 778.215 353.776C778.111 353.672 777.984 353.634 777.835 353.664C777.686 353.694 777.581 353.81 777.522 354.011L775.989 358.765C775.87 359.131 775.676 359.377 775.407 359.503C775.139 359.63 774.87 359.656 774.602 359.582C774.334 359.5 774.125 359.339 773.976 359.101C773.826 358.855 773.808 358.545 773.92 358.172L775.463 353.418C775.769 352.479 776.116 351.703 776.504 351.092C776.899 350.473 777.395 350.014 777.991 349.716C778.588 349.417 779.345 349.268 780.262 349.268H781.437C782.354 349.268 783.111 349.417 783.707 349.716C784.304 350.014 784.796 350.473 785.184 351.092C785.579 351.703 785.93 352.479 786.236 353.418L787.768 358.172C787.887 358.545 787.872 358.855 787.723 359.101C787.574 359.339 787.362 359.5 787.086 359.582C786.817 359.656 786.549 359.63 786.28 359.503C786.019 359.377 785.829 359.131 785.71 358.765L784.177 354.011C784.11 353.81 784.002 353.694 783.853 353.664C783.704 353.634 783.573 353.672 783.461 353.776C783.357 353.881 783.338 354.026 783.405 354.212L785.766 361.618C785.87 361.946 785.855 362.233 785.721 362.479C785.587 362.718 785.352 362.837 785.016 362.837H783.652V367.692C783.652 368.042 783.528 368.333 783.282 368.564C783.044 368.803 782.753 368.922 782.41 368.922C782.074 368.922 781.783 368.803 781.537 368.564C781.299 368.326 781.179 368.035 781.179 367.692V362.837C781.179 362.74 781.146 362.658 781.079 362.591C781.019 362.524 780.941 362.49 780.844 362.49C780.754 362.49 780.676 362.524 780.609 362.591C780.549 362.658 780.519 362.74 780.519 362.837V367.692C780.519 368.035 780.396 368.326 780.15 368.564C779.912 368.803 779.621 368.922 779.278 368.922Z" fill="black"/>
</g>
<g id="elevator_fg_02">
<rect id="room_elevator_fg_02" x="272.38" y="296.345" width="58.0227" height="61.5392" rx="10" fill="#D9D9D9"/>
<rect id="entrance_elevator_fg_02" width="6.71337" height="31.3291" rx="3.35668" transform="matrix(1 0 0 -1 327.575 343.338)" fill="#A4A4A4"/>
<path id="label_elevator_fg_02" d="M294.357 337.446C293.165 337.446 292.252 337.129 291.617 336.495C290.983 335.868 290.666 334.962 290.666 333.777V321.126C290.666 319.941 290.983 319.035 291.617 318.408C292.252 317.774 293.165 317.457 294.357 317.457H306.965C308.157 317.457 309.07 317.774 309.705 318.408C310.339 319.035 310.656 319.941 310.656 321.126V333.777C310.656 334.962 310.339 335.868 309.705 336.495C309.07 337.129 308.157 337.446 306.965 337.446H294.357ZM294.649 334.749H306.673C307.091 334.749 307.408 334.645 307.624 334.435C307.847 334.226 307.959 333.899 307.959 333.453V321.461C307.959 321.015 307.847 320.687 307.624 320.478C307.408 320.262 307.091 320.154 306.673 320.154H294.649C294.231 320.154 293.911 320.262 293.688 320.478C293.471 320.687 293.363 321.015 293.363 321.461V333.453C293.363 333.899 293.471 334.226 293.688 334.435C293.911 334.645 294.231 334.749 294.649 334.749ZM297.305 330.776C297.04 330.776 296.827 330.7 296.667 330.546C296.507 330.393 296.413 330.201 296.385 329.971C296.364 329.734 296.423 329.501 296.563 329.271L299.835 323.719C299.96 323.503 300.131 323.36 300.347 323.29C300.57 323.214 300.79 323.21 301.006 323.28C301.222 323.35 301.396 323.496 301.529 323.719L304.801 329.271C304.934 329.508 304.989 329.741 304.968 329.971C304.947 330.201 304.857 330.393 304.697 330.546C304.536 330.7 304.32 330.776 304.048 330.776H297.305Z" fill="black"/>
</g>
<g id="elevator_fg_01">
<rect id="room_elevator_fg_01" x="616.398" y="590.897" width="58.0227" height="61.5392" rx="10" fill="#D9D9D9"/>
<rect id="entrance_elevator_fg_01" width="29" height="5" rx="2.5" transform="matrix(1 0 0 -1 631 594)" fill="#A4A4A4"/>
<path id="label_elevator_fg_01" d="M639.357 633.446C638.165 633.446 637.252 633.129 636.617 632.495C635.983 631.868 635.666 630.962 635.666 629.777V617.126C635.666 615.941 635.983 615.035 636.617 614.408C637.252 613.774 638.165 613.457 639.357 613.457H651.965C653.157 613.457 654.07 613.774 654.704 614.408C655.339 615.035 655.656 615.941 655.656 617.126V629.777C655.656 630.962 655.339 631.868 654.704 632.495C654.07 633.129 653.157 633.446 651.965 633.446H639.357ZM639.649 630.749H651.673C652.091 630.749 652.408 630.645 652.624 630.435C652.847 630.226 652.958 629.899 652.958 629.453V617.461C652.958 617.015 652.847 616.687 652.624 616.478C652.408 616.262 652.091 616.154 651.673 616.154H639.649C639.231 616.154 638.91 616.262 638.687 616.478C638.471 616.687 638.363 617.015 638.363 617.461V629.453C638.363 629.899 638.471 630.226 638.687 630.435C638.91 630.645 639.231 630.749 639.649 630.749ZM642.305 626.776C642.04 626.776 641.827 626.7 641.667 626.546C641.507 626.393 641.413 626.201 641.385 625.971C641.364 625.734 641.423 625.501 641.563 625.271L644.835 619.719C644.96 619.503 645.131 619.36 645.347 619.29C645.57 619.214 645.79 619.21 646.006 619.28C646.222 619.35 646.396 619.496 646.529 619.719L649.801 625.271C649.933 625.508 649.989 625.741 649.968 625.971C649.947 626.201 649.857 626.393 649.697 626.546C649.536 626.7 649.32 626.776 649.048 626.776H642.305Z" fill="black"/>
</g>
<g id="water_fountain_01">
<rect id="room_water_fountain_01" x="22" y="712" width="30" height="30" rx="5" fill="#C4C4C4"/>
<path id="label_water_fountain_01" d="M35.7119 720.755C35.484 720.755 35.2949 720.682 35.1445 720.536C34.9987 720.39 34.9258 720.201 34.9258 719.969V719.449C34.9258 719.217 34.9987 719.027 35.1445 718.882C35.2949 718.731 35.484 718.656 35.7119 718.656H39.5127C39.7406 718.656 39.9274 718.731 40.0732 718.882C40.2236 719.027 40.2988 719.217 40.2988 719.449V719.969C40.2988 720.201 40.2236 720.39 40.0732 720.536C39.9274 720.682 39.7406 720.755 39.5127 720.755H35.7119ZM33.75 724.241C33.7682 723.849 33.8206 723.5 33.9072 723.195C33.9938 722.885 34.151 722.575 34.3789 722.265L34.5156 722.081C34.6068 721.953 34.7275 721.848 34.8779 721.766C35.0329 721.68 35.1901 721.636 35.3496 721.636H39.8682C40.0277 721.636 40.1826 721.68 40.333 721.766C40.4834 721.848 40.6064 721.953 40.7021 722.081L40.8389 722.265C41.0667 722.575 41.224 722.885 41.3105 723.195C41.3971 723.5 41.4495 723.849 41.4678 724.241H33.75ZM33.7432 725.287H41.4746V731.966H33.7432V725.287ZM37.6055 730.94C38.0931 730.94 38.4827 730.799 38.7744 730.516C39.0706 730.234 39.2188 729.858 39.2188 729.388C39.2188 729.147 39.1777 728.933 39.0957 728.746C39.0137 728.554 38.9453 728.395 38.8906 728.267C38.7676 727.994 38.6081 727.693 38.4121 727.365C38.2161 727.037 38.0293 726.738 37.8516 726.469C37.7832 726.356 37.7012 726.299 37.6055 726.299C37.5098 726.299 37.4277 726.356 37.3594 726.469C37.1771 726.738 36.9902 727.037 36.7988 727.365C36.612 727.693 36.4548 727.994 36.3271 728.267C36.2725 728.395 36.2018 728.554 36.1152 728.746C36.0332 728.933 35.9922 729.147 35.9922 729.388C35.9922 729.858 36.138 730.234 36.4297 730.516C36.7259 730.799 37.1178 730.94 37.6055 730.94ZM33.7432 733.011H41.4746V733.087C41.4746 733.852 41.2878 734.438 40.9141 734.844C40.5449 735.254 40.0208 735.459 39.3418 735.459H35.8828C35.1947 735.459 34.666 735.254 34.2969 734.844C33.9277 734.438 33.7432 733.852 33.7432 733.087V733.011Z" fill="black"/>
</g>
<g id="trash_bin_01">
<rect id="room_trash_bin_01" x="59" y="712" width="62" height="30" rx="5" fill="#C4C4C4"/>
<path id="label_trash_bin_01" d="M86.8857 732.089C87.068 732.089 87.2116 732.036 87.3164 731.931C87.4212 731.827 87.4714 731.69 87.4668 731.521L87.248 724.255C87.2435 724.081 87.1865 723.945 87.0771 723.844C86.9678 723.744 86.8288 723.694 86.6602 723.694C86.4824 723.694 86.3411 723.747 86.2363 723.851C86.1315 723.952 86.0837 724.088 86.0928 724.261L86.2979 731.528C86.307 731.697 86.3639 731.833 86.4688 731.938C86.5781 732.038 86.7171 732.089 86.8857 732.089ZM89.0049 732.089C89.1781 732.089 89.3171 732.038 89.4219 731.938C89.5312 731.838 89.5859 731.701 89.5859 731.528V724.255C89.5859 724.081 89.5312 723.945 89.4219 723.844C89.3171 723.744 89.1781 723.694 89.0049 723.694C88.8317 723.694 88.6904 723.744 88.5811 723.844C88.4762 723.945 88.4238 724.081 88.4238 724.255V731.528C88.4238 731.701 88.4762 731.838 88.5811 731.938C88.6904 732.038 88.8317 732.089 89.0049 732.089ZM91.1172 732.089C91.2904 732.089 91.4294 732.038 91.5342 731.938C91.639 731.838 91.696 731.701 91.7051 731.528L91.9102 724.261C91.9193 724.088 91.8714 723.952 91.7666 723.851C91.6618 723.747 91.5205 723.694 91.3428 723.694C91.1742 723.694 91.0352 723.744 90.9258 723.844C90.821 723.945 90.764 724.081 90.7549 724.255L90.543 731.521C90.5384 731.69 90.5885 731.827 90.6934 731.931C90.7982 732.036 90.9395 732.089 91.1172 732.089ZM85.71 721.677V720.283C85.71 719.713 85.8809 719.274 86.2227 718.964C86.569 718.654 87.0612 718.499 87.6992 718.499H90.2969C90.9349 718.499 91.4248 718.654 91.7666 718.964C92.113 719.274 92.2861 719.713 92.2861 720.283V721.677H90.7139V720.338C90.7139 720.192 90.666 720.078 90.5703 719.996C90.4746 719.909 90.3447 719.866 90.1807 719.866H87.8154C87.6514 719.866 87.5215 719.909 87.4258 719.996C87.3301 720.078 87.2822 720.192 87.2822 720.338V721.677H85.71ZM82.8184 722.771C82.5996 722.771 82.415 722.701 82.2646 722.559C82.1188 722.418 82.0459 722.238 82.0459 722.019C82.0459 721.805 82.1188 721.627 82.2646 721.486C82.415 721.345 82.5996 721.274 82.8184 721.274H95.1914C95.4056 721.274 95.5856 721.345 95.7314 721.486C95.8818 721.623 95.957 721.801 95.957 722.019C95.957 722.238 95.8841 722.418 95.7383 722.559C95.5924 722.701 95.4102 722.771 95.1914 722.771H82.8184ZM85.8467 734.283C85.2633 734.283 84.8008 734.126 84.459 733.811C84.1172 733.501 83.9326 733.052 83.9053 732.465L83.4473 722.635H94.5557L94.0977 732.458C94.0749 733.046 93.8903 733.497 93.5439 733.811C93.2021 734.126 92.7396 734.283 92.1562 734.283H85.8467Z" fill="black"/>
</g>
<g id="stairs_02">
<rect id="room_stairs_02" x="255" y="373" width="34" height="34" rx="5" fill="#D9D9D9"/>
<path id="label_stairs_02" d="M272.144 383.967C271.847 383.967 271.576 383.896 271.33 383.755C271.089 383.609 270.895 383.415 270.749 383.174C270.603 382.928 270.53 382.657 270.53 382.36C270.53 382.064 270.603 381.795 270.749 381.554C270.895 381.308 271.089 381.112 271.33 380.966C271.576 380.82 271.847 380.747 272.144 380.747C272.435 380.747 272.704 380.82 272.95 380.966C273.196 381.112 273.39 381.308 273.531 381.554C273.677 381.795 273.75 382.064 273.75 382.36C273.75 382.657 273.677 382.928 273.531 383.174C273.39 383.415 273.196 383.609 272.95 383.755C272.704 383.896 272.435 383.967 272.144 383.967ZM273.032 395.615C272.786 395.547 272.62 395.417 272.533 395.226C272.447 395.039 272.435 394.845 272.499 394.645L273.271 392.054L270.414 391.384C269.817 391.243 269.416 390.999 269.211 390.652C269.01 390.301 268.942 389.868 269.006 389.354L269.313 386.872C269.323 386.822 269.309 386.788 269.272 386.77C269.241 386.747 269.204 386.747 269.163 386.77L268.329 387.289V389.688C268.329 389.907 268.249 390.094 268.09 390.249C267.935 390.404 267.75 390.481 267.536 390.481C267.322 390.481 267.135 390.404 266.976 390.249C266.821 390.094 266.743 389.907 266.743 389.688V386.858C266.743 386.722 266.777 386.594 266.846 386.476C266.914 386.353 267.003 386.257 267.112 386.188L269.402 384.76C269.635 384.618 269.901 384.516 270.202 384.452C270.507 384.384 270.847 384.384 271.221 384.452L271.617 384.534C271.959 384.598 272.262 384.735 272.526 384.944C272.791 385.149 273 385.405 273.155 385.71L274.058 387.494H276.402C276.612 387.494 276.794 387.572 276.949 387.727C277.109 387.877 277.188 388.059 277.188 388.273C277.188 388.497 277.109 388.684 276.949 388.834C276.794 388.984 276.612 389.06 276.402 389.06H273.572C273.249 389.06 273.012 388.916 272.861 388.629L272.342 387.61C272.314 387.556 272.276 387.533 272.226 387.542C272.175 387.551 272.148 387.581 272.144 387.631L271.822 389.784L274.536 390.721C274.75 390.794 274.898 390.926 274.98 391.117C275.067 391.304 275.081 391.495 275.021 391.691L274.003 395.089C273.93 395.34 273.789 395.499 273.579 395.567C273.369 395.636 273.187 395.652 273.032 395.615ZM267.816 398.151C267.63 398.033 267.513 397.867 267.468 397.652C267.427 397.438 267.468 397.24 267.591 397.058L269.594 394.057L269.737 391.979C269.815 392.006 269.895 392.033 269.977 392.061C270.059 392.088 270.147 392.113 270.243 392.136L271.446 392.416L271.166 394.344C271.143 394.508 271.082 394.665 270.981 394.815L268.896 397.919C268.755 398.129 268.575 398.243 268.356 398.261C268.138 398.279 267.958 398.243 267.816 398.151ZM270.893 399.368C270.738 399.368 270.61 399.313 270.51 399.204C270.414 399.099 270.366 398.974 270.366 398.828C270.366 398.691 270.416 398.571 270.517 398.466C270.617 398.366 270.742 398.315 270.893 398.315H272.602V397.078C272.602 396.932 272.652 396.807 272.752 396.702C272.857 396.602 272.98 396.552 273.121 396.552H274.83V395.321C274.83 395.18 274.878 395.057 274.974 394.952C275.074 394.847 275.199 394.795 275.35 394.795H277.059V393.564C277.059 393.423 277.109 393.3 277.209 393.195C277.309 393.09 277.435 393.038 277.585 393.038H279.779C279.925 393.038 280.05 393.09 280.155 393.195C280.26 393.3 280.312 393.423 280.312 393.564C280.312 393.71 280.26 393.836 280.155 393.94C280.05 394.045 279.925 394.098 279.779 394.098H278.111V395.321C278.111 395.467 278.059 395.59 277.954 395.69C277.854 395.795 277.731 395.848 277.585 395.848H275.876V397.078C275.876 397.229 275.824 397.354 275.719 397.454C275.618 397.559 275.495 397.611 275.35 397.611H273.654V398.828C273.654 398.979 273.602 399.106 273.497 399.211C273.392 399.316 273.267 399.368 273.121 399.368H270.893Z" fill="black"/>
<rect id="entrance_stairs_02" width="7" height="26" rx="3.5" transform="matrix(1 0 0 -1 287 404)" fill="#A4A4A4"/>
</g>
<g id="stairs_01">
<rect id="room_stairs_01" x="692" y="713" width="34" height="34" rx="5" fill="#D9D9D9"/>
<path id="label_stairs_01" d="M709.144 723.967C708.847 723.967 708.576 723.896 708.33 723.755C708.089 723.609 707.895 723.415 707.749 723.174C707.603 722.928 707.53 722.657 707.53 722.36C707.53 722.064 707.603 721.795 707.749 721.554C707.895 721.308 708.089 721.112 708.33 720.966C708.576 720.82 708.847 720.747 709.144 720.747C709.435 720.747 709.704 720.82 709.95 720.966C710.196 721.112 710.39 721.308 710.531 721.554C710.677 721.795 710.75 722.064 710.75 722.36C710.75 722.657 710.677 722.928 710.531 723.174C710.39 723.415 710.196 723.609 709.95 723.755C709.704 723.896 709.435 723.967 709.144 723.967ZM710.032 735.615C709.786 735.547 709.62 735.417 709.533 735.226C709.447 735.039 709.435 734.845 709.499 734.645L710.271 732.054L707.414 731.384C706.817 731.243 706.416 730.999 706.211 730.652C706.01 730.301 705.942 729.868 706.006 729.354L706.313 726.872C706.323 726.822 706.309 726.788 706.272 726.77C706.241 726.747 706.204 726.747 706.163 726.77L705.329 727.289V729.688C705.329 729.907 705.249 730.094 705.09 730.249C704.935 730.404 704.75 730.481 704.536 730.481C704.322 730.481 704.135 730.404 703.976 730.249C703.821 730.094 703.743 729.907 703.743 729.688V726.858C703.743 726.722 703.777 726.594 703.846 726.476C703.914 726.353 704.003 726.257 704.112 726.188L706.402 724.76C706.635 724.618 706.901 724.516 707.202 724.452C707.507 724.384 707.847 724.384 708.221 724.452L708.617 724.534C708.959 724.598 709.262 724.735 709.526 724.944C709.791 725.149 710 725.405 710.155 725.71L711.058 727.494H713.402C713.612 727.494 713.794 727.572 713.949 727.727C714.109 727.877 714.188 728.059 714.188 728.273C714.188 728.497 714.109 728.684 713.949 728.834C713.794 728.984 713.612 729.06 713.402 729.06H710.572C710.249 729.06 710.012 728.916 709.861 728.629L709.342 727.61C709.314 727.556 709.276 727.533 709.226 727.542C709.175 727.551 709.148 727.581 709.144 727.631L708.822 729.784L711.536 730.721C711.75 730.794 711.898 730.926 711.98 731.117C712.067 731.304 712.081 731.495 712.021 731.691L711.003 735.089C710.93 735.34 710.789 735.499 710.579 735.567C710.369 735.636 710.187 735.652 710.032 735.615ZM704.816 738.151C704.63 738.033 704.513 737.867 704.468 737.652C704.427 737.438 704.468 737.24 704.591 737.058L706.594 734.057L706.737 731.979C706.815 732.006 706.895 732.033 706.977 732.061C707.059 732.088 707.147 732.113 707.243 732.136L708.446 732.416L708.166 734.344C708.143 734.508 708.082 734.665 707.981 734.815L705.896 737.919C705.755 738.129 705.575 738.243 705.356 738.261C705.138 738.279 704.958 738.243 704.816 738.151ZM707.893 739.368C707.738 739.368 707.61 739.313 707.51 739.204C707.414 739.099 707.366 738.974 707.366 738.828C707.366 738.691 707.416 738.571 707.517 738.466C707.617 738.366 707.742 738.315 707.893 738.315H709.602V737.078C709.602 736.932 709.652 736.807 709.752 736.702C709.857 736.602 709.98 736.552 710.121 736.552H711.83V735.321C711.83 735.18 711.878 735.057 711.974 734.952C712.074 734.847 712.199 734.795 712.35 734.795H714.059V733.564C714.059 733.423 714.109 733.3 714.209 733.195C714.309 733.09 714.435 733.038 714.585 733.038H716.779C716.925 733.038 717.05 733.09 717.155 733.195C717.26 733.3 717.312 733.423 717.312 733.564C717.312 733.71 717.26 733.836 717.155 733.94C717.05 734.045 716.925 734.098 716.779 734.098H715.111V735.321C715.111 735.467 715.059 735.59 714.954 735.69C714.854 735.795 714.731 735.848 714.585 735.848H712.876V737.078C712.876 737.229 712.824 737.354 712.719 737.454C712.618 737.559 712.495 737.611 712.35 737.611H710.654V738.828C710.654 738.979 710.602 739.106 710.497 739.211C710.392 739.316 710.267 739.368 710.121 739.368H707.893Z" fill="black"/>
<rect id="entrance_stairs_01" width="25" height="7" rx="3.5" transform="matrix(1 0 0 -1 697 715)" fill="#A4A4A4"/>
</g>
</g>
</g>
</svg>
