<svg width="1024" height="768" viewBox="0 0 1024 768" fill="none" xmlns="http://www.w3.org/2000/svg">
<g id="second_floor">
<g id="hallways">
<rect id="Rectangle 26" x="720" y="649" width="34" height="63" fill="#E8E8E8"/>
<rect id="Rectangle 28" x="692" y="589" width="89" height="60" fill="#E8E8E8"/>
<rect id="Rectangle 30" x="692" y="523" width="182" height="34" fill="#E8E8E8"/>
<rect id="Rectangle 32" x="811" y="260" width="52" height="263" fill="#E8E8E8"/>
<rect id="Rectangle 35" x="161" y="260" width="650" height="48" fill="#E8E8E8"/>
<rect id="Rectangle 41" x="264" y="308" width="128" height="38" fill="#E8E8E8"/>
<rect id="Rectangle 43" x="281" y="345" width="34" height="27" fill="#E8E8E8"/>
<rect id="Rectangle 38" x="161" y="308" width="46" height="270" fill="#E8E8E8"/>
<rect id="Rectangle 45" x="207" y="538" width="485" height="40" fill="#E8E8E8"/>
<rect id="Rectangle 33" x="863" y="339" width="13" height="33" fill="#E8E8E8"/>
<rect id="Rectangle 34" x="823" y="246" width="31" height="14" fill="#E8E8E8"/>
<rect id="Rectangle 36" x="681" y="246" width="31" height="14" fill="#E8E8E8"/>
<rect id="Rectangle 37" x="392" y="248" width="31" height="14" fill="#E8E8E8"/>
<rect id="Rectangle 44" x="346" y="345" width="24" height="26" fill="#E8E8E8"/>
<rect id="Rectangle 46" x="340" y="578" width="24" height="17" fill="#E8E8E8"/>
<rect id="Rectangle 47" x="505" y="578" width="24" height="14" fill="#E8E8E8"/>
<rect id="Rectangle 48" x="634" y="578" width="24" height="14" fill="#E8E8E8"/>
<rect id="Rectangle 39" x="145" y="356" width="16" height="18" fill="#E8E8E8"/>
<rect id="Rectangle 40" x="145" y="532" width="16" height="18" fill="#E8E8E8"/>
<rect id="Rectangle 31" x="692" y="557" width="89" height="32" fill="#E8E8E8"/>
<rect id="Rectangle 29" x="781" y="607" width="13" height="23" fill="#E8E8E8"/>
</g>
<g id="interactables">
<g id="lecture_hall_09">
<rect id="room_lecture_hall_09" x="610" y="133" width="130" height="110" rx="10" fill="#D9D9D9"/>
<rect id="entrance_lecture_hall_09" width="44" height="8" rx="4" transform="matrix(1 0 0 -1 675 247)" fill="#A4A4A4"/>
<path id="label_lecture_hall_09" d="M656.196 189V179.136H658.261V183.142H662.704V179.136H664.769V189H662.704V184.844H658.261V189H656.196ZM668.784 189.116C668.31 189.116 667.886 189.025 667.512 188.843C667.143 188.656 666.854 188.394 666.644 188.057C666.434 187.715 666.33 187.316 666.33 186.86V186.847C666.33 186.396 666.441 186.008 666.665 185.685C666.892 185.361 667.223 185.108 667.656 184.926C668.093 184.739 668.624 184.627 669.249 184.591L672.051 184.42V185.637L669.549 185.801C669.121 185.824 668.802 185.915 668.592 186.074C668.383 186.234 668.278 186.45 668.278 186.724V186.737C668.278 187.024 668.387 187.25 668.606 187.414C668.825 187.578 669.107 187.66 669.454 187.66C669.763 187.66 670.039 187.599 670.281 187.476C670.522 187.353 670.714 187.186 670.855 186.977C670.996 186.762 671.067 186.523 671.067 186.259V183.859C671.067 183.531 670.958 183.281 670.739 183.107C670.525 182.93 670.212 182.841 669.802 182.841C669.442 182.841 669.148 182.902 668.92 183.025C668.697 183.144 668.547 183.315 668.469 183.538L668.456 183.565H666.61L666.617 183.504C666.671 183.062 666.838 182.677 667.116 182.349C667.398 182.021 667.777 181.765 668.25 181.583C668.729 181.401 669.283 181.31 669.912 181.31C670.577 181.31 671.142 181.412 671.607 181.617C672.072 181.818 672.425 182.109 672.666 182.492C672.913 182.87 673.036 183.326 673.036 183.859V189H671.067V188.002H670.944C670.816 188.234 670.645 188.435 670.431 188.604C670.221 188.768 669.975 188.895 669.693 188.986C669.415 189.073 669.112 189.116 668.784 189.116ZM674.829 189V178.596H676.825V189H674.829ZM678.728 189V178.596H680.724V189H678.728ZM689.588 178.876C690.158 178.876 690.689 178.981 691.181 179.19C691.678 179.396 692.111 179.708 692.48 180.127C692.854 180.542 693.143 181.07 693.348 181.713C693.558 182.351 693.663 183.103 693.663 183.969V183.982C693.663 185.085 693.496 186.029 693.163 186.812C692.835 187.596 692.366 188.198 691.755 188.617C691.145 189.036 690.418 189.246 689.575 189.246C688.941 189.246 688.369 189.132 687.859 188.904C687.348 188.672 686.927 188.355 686.594 187.954C686.266 187.549 686.05 187.088 685.945 186.573L685.931 186.512H687.954L687.975 186.573C688.057 186.774 688.171 186.954 688.317 187.113C688.467 187.268 688.647 187.389 688.857 187.476C689.066 187.562 689.303 187.605 689.568 187.605C690.046 187.605 690.438 187.464 690.744 187.182C691.049 186.895 691.279 186.509 691.434 186.026C691.589 185.543 691.678 185.003 691.701 184.406C691.705 184.338 691.707 184.27 691.707 184.201C691.707 184.133 691.707 184.067 691.707 184.003L691.393 182.349C691.393 182.002 691.313 181.692 691.154 181.419C690.994 181.141 690.78 180.922 690.511 180.763C690.242 180.599 689.939 180.517 689.602 180.517C689.269 180.517 688.966 180.596 688.693 180.756C688.424 180.911 688.207 181.125 688.043 181.398C687.884 181.667 687.804 181.97 687.804 182.308V182.321C687.804 182.668 687.882 182.975 688.037 183.244C688.191 183.513 688.403 183.725 688.672 183.88C688.941 184.03 689.246 184.105 689.588 184.105C689.93 184.105 690.235 184.033 690.504 183.887C690.778 183.736 690.994 183.529 691.154 183.265C691.313 183 691.393 182.7 691.393 182.362V182.349H691.803V184.188H691.564C691.45 184.438 691.279 184.675 691.051 184.898C690.828 185.117 690.548 185.295 690.21 185.432C689.873 185.564 689.477 185.63 689.021 185.63C688.383 185.63 687.822 185.491 687.339 185.213C686.856 184.93 686.48 184.545 686.211 184.058C685.942 183.57 685.808 183.016 685.808 182.396V182.383C685.808 181.708 685.968 181.107 686.287 180.578C686.61 180.049 687.057 179.635 687.626 179.334C688.196 179.029 688.85 178.876 689.588 178.876Z" fill="black"/>
</g>
<g id="lecture_hall_08">
<rect id="room_lecture_hall_08" x="751" y="135" width="130" height="110" rx="10" fill="#D9D9D9"/>
<rect id="entrance_lecture_hall_08" width="44" height="8" rx="4" transform="matrix(1 0 0 -1 816 249)" fill="#A4A4A4"/>
<path id="label_lecture_hall_08" d="M797.196 191V181.136H799.261V185.142H803.704V181.136H805.769V191H803.704V186.844H799.261V191H797.196ZM809.784 191.116C809.31 191.116 808.886 191.025 808.512 190.843C808.143 190.656 807.854 190.394 807.644 190.057C807.434 189.715 807.33 189.316 807.33 188.86V188.847C807.33 188.396 807.441 188.008 807.665 187.685C807.892 187.361 808.223 187.108 808.656 186.926C809.093 186.739 809.624 186.627 810.249 186.591L813.051 186.42V187.637L810.549 187.801C810.121 187.824 809.802 187.915 809.592 188.074C809.383 188.234 809.278 188.45 809.278 188.724V188.737C809.278 189.024 809.387 189.25 809.606 189.414C809.825 189.578 810.107 189.66 810.454 189.66C810.763 189.66 811.039 189.599 811.281 189.476C811.522 189.353 811.714 189.186 811.855 188.977C811.996 188.762 812.067 188.523 812.067 188.259V185.859C812.067 185.531 811.958 185.281 811.739 185.107C811.525 184.93 811.212 184.841 810.802 184.841C810.442 184.841 810.148 184.902 809.92 185.025C809.697 185.144 809.547 185.315 809.469 185.538L809.456 185.565H807.61L807.617 185.504C807.671 185.062 807.838 184.677 808.116 184.349C808.398 184.021 808.777 183.765 809.25 183.583C809.729 183.401 810.283 183.31 810.912 183.31C811.577 183.31 812.142 183.412 812.607 183.617C813.072 183.818 813.425 184.109 813.666 184.492C813.913 184.87 814.036 185.326 814.036 185.859V191H812.067V190.002H811.944C811.816 190.234 811.645 190.435 811.431 190.604C811.221 190.768 810.975 190.895 810.693 190.986C810.415 191.073 810.112 191.116 809.784 191.116ZM815.829 191V180.596H817.825V191H815.829ZM819.728 191V180.596H821.724V191H819.728ZM830.8 191.219C830.007 191.219 829.31 191.098 828.708 190.856C828.107 190.61 827.637 190.271 827.3 189.838C826.963 189.4 826.794 188.897 826.794 188.327V188.313C826.794 187.885 826.892 187.498 827.088 187.151C827.289 186.805 827.562 186.518 827.909 186.29C828.255 186.058 828.651 185.898 829.098 185.812V185.771C828.519 185.629 828.05 185.365 827.69 184.978C827.334 184.586 827.157 184.121 827.157 183.583V183.569C827.157 183.059 827.312 182.605 827.621 182.209C827.931 181.808 828.36 181.493 828.907 181.266C829.454 181.033 830.085 180.917 830.8 180.917C831.516 180.917 832.147 181.033 832.694 181.266C833.241 181.493 833.669 181.808 833.979 182.209C834.289 182.605 834.444 183.059 834.444 183.569V183.583C834.444 184.121 834.264 184.586 833.904 184.978C833.544 185.365 833.077 185.629 832.502 185.771V185.812C832.949 185.898 833.345 186.058 833.692 186.29C834.038 186.518 834.309 186.805 834.505 187.151C834.706 187.498 834.806 187.885 834.806 188.313V188.327C834.806 188.897 834.637 189.4 834.3 189.838C833.963 190.271 833.491 190.61 832.885 190.856C832.284 191.098 831.589 191.219 830.8 191.219ZM830.8 189.715C831.16 189.715 831.479 189.651 831.757 189.523C832.035 189.391 832.252 189.211 832.407 188.983C832.566 188.751 832.646 188.487 832.646 188.19V188.177C832.646 187.881 832.568 187.618 832.413 187.391C832.259 187.158 832.042 186.976 831.764 186.844C831.486 186.712 831.165 186.646 830.8 186.646C830.436 186.646 830.114 186.712 829.836 186.844C829.558 186.976 829.34 187.158 829.18 187.391C829.025 187.618 828.948 187.881 828.948 188.177V188.19C828.948 188.487 829.027 188.751 829.187 188.983C829.346 189.211 829.565 189.391 829.843 189.523C830.121 189.651 830.44 189.715 830.8 189.715ZM830.8 185.148C831.115 185.148 831.393 185.091 831.634 184.978C831.876 184.859 832.063 184.697 832.195 184.492C832.331 184.287 832.4 184.05 832.4 183.781V183.768C832.4 183.499 832.331 183.262 832.195 183.057C832.058 182.852 831.869 182.692 831.627 182.578C831.39 182.464 831.115 182.407 830.8 182.407C830.486 182.407 830.208 182.464 829.966 182.578C829.725 182.692 829.536 182.852 829.399 183.057C829.262 183.262 829.194 183.499 829.194 183.768V183.781C829.194 184.05 829.262 184.287 829.399 184.492C829.536 184.697 829.725 184.859 829.966 184.978C830.208 185.091 830.486 185.148 830.8 185.148Z" fill="black"/>
</g>
<g id="study_area_02">
<rect id="room_study_area_02" x="27" y="434" width="117" height="144" rx="10" fill="#D9D9D9"/>
<rect id="entrance_study_area_02" width="6" height="33" rx="3" transform="matrix(1 0 0 -1 141 557)" fill="#A4A4A4"/>
<path id="label_study_area_02" d="M70.0379 499.253C69.254 499.253 68.5727 499.134 67.9939 498.897C67.4152 498.66 66.9594 498.328 66.6268 497.899C66.2986 497.466 66.1141 496.958 66.073 496.375L66.0662 496.266H68.0555L68.0623 496.334C68.0896 496.58 68.1899 496.797 68.3631 496.983C68.5408 497.166 68.7778 497.309 69.074 497.414C69.3702 497.519 69.7098 497.571 70.0926 497.571C70.4617 497.571 70.7853 497.517 71.0633 497.407C71.3413 497.298 71.5577 497.147 71.7127 496.956C71.8722 496.76 71.952 496.537 71.952 496.286V496.279C71.952 495.956 71.8198 495.696 71.5555 495.5C71.2957 495.304 70.8582 495.142 70.243 495.015L69.2039 494.803C68.1785 494.593 67.4334 494.249 66.9686 493.771C66.5037 493.292 66.2713 492.679 66.2713 491.932V491.925C66.2713 491.314 66.4331 490.781 66.7566 490.325C67.0802 489.869 67.5245 489.516 68.0896 489.266C68.6548 489.01 69.3019 488.883 70.0311 488.883C70.7967 488.883 71.4529 489.008 71.9998 489.259C72.5512 489.505 72.9819 489.844 73.2918 490.277C73.6017 490.706 73.7771 491.196 73.8182 491.747L73.825 491.836H71.8836L71.8699 491.754C71.8289 491.517 71.7286 491.31 71.5691 491.132C71.4142 490.954 71.2046 490.815 70.9402 490.715C70.6805 490.61 70.3774 490.558 70.0311 490.558C69.6938 490.558 69.3976 490.608 69.1424 490.708C68.8872 490.808 68.6889 490.95 68.5477 491.132C68.4064 491.31 68.3357 491.521 68.3357 491.768V491.774C68.3357 492.093 68.4633 492.355 68.7186 492.561C68.9783 492.761 69.3976 492.921 69.9764 493.039L71.0223 493.251C71.7195 493.392 72.2869 493.584 72.7244 493.825C73.1665 494.067 73.4923 494.37 73.702 494.734C73.9116 495.099 74.0164 495.539 74.0164 496.054V496.061C74.0164 496.712 73.8546 497.277 73.5311 497.756C73.212 498.23 72.754 498.599 72.157 498.863C71.5646 499.123 70.8582 499.253 70.0379 499.253ZM78.6673 499.027C77.7558 499.027 77.0996 498.868 76.6985 498.549C76.2975 498.225 76.097 497.699 76.097 496.97V492.978H74.9348V491.474H76.097V489.676H78.1136V491.474H79.6653V492.978H78.1136V496.512C78.1136 496.849 78.1888 497.097 78.3391 497.257C78.4941 497.412 78.7402 497.489 79.0774 497.489C79.205 497.489 79.3098 497.487 79.3919 497.482C79.4785 497.473 79.5696 497.464 79.6653 497.455V498.938C79.5423 498.961 79.3942 498.982 79.221 499C79.0478 499.018 78.8632 499.027 78.6673 499.027ZM83.5847 499.157C83.0242 499.157 82.5525 499.048 82.1697 498.829C81.7914 498.61 81.5066 498.291 81.3152 497.872C81.1238 497.448 81.0281 496.938 81.0281 496.341V491.474H83.0242V495.883C83.0242 496.416 83.129 496.819 83.3386 497.093C83.5528 497.366 83.8969 497.503 84.3709 497.503C84.617 497.503 84.8334 497.464 85.0203 497.387C85.2117 497.305 85.3712 497.191 85.4988 497.045C85.6264 496.899 85.7221 496.724 85.7859 496.519C85.8543 496.309 85.8884 496.076 85.8884 495.821V491.474H87.8845V499H85.8884V497.838H85.7654C85.6515 498.111 85.492 498.348 85.2869 498.549C85.0818 498.745 84.8357 498.895 84.5486 499C84.2615 499.105 83.9402 499.157 83.5847 499.157ZM92.344 499.116C91.7196 499.116 91.1773 498.961 90.717 498.651C90.2613 498.337 89.9081 497.89 89.6575 497.312C89.4114 496.733 89.2883 496.042 89.2883 495.24V495.227C89.2883 494.42 89.4091 493.727 89.6506 493.148C89.8967 492.57 90.2476 492.125 90.7034 491.815C91.1591 491.506 91.706 491.351 92.344 491.351C92.6858 491.351 93.0025 491.405 93.2942 491.515C93.5904 491.619 93.8502 491.77 94.0735 491.966C94.2968 492.162 94.47 492.399 94.593 492.677H94.7161V488.596H96.7121V499H94.7161V497.831H94.593C94.4654 498.1 94.2922 498.33 94.0735 498.521C93.8593 498.713 93.6064 498.861 93.3147 498.966C93.023 499.066 92.6995 499.116 92.344 499.116ZM93.0207 497.462C93.3762 497.462 93.6815 497.373 93.9368 497.195C94.192 497.018 94.3879 496.762 94.5246 496.43C94.6659 496.097 94.7366 495.703 94.7366 495.247V495.233C94.7366 494.769 94.6659 494.372 94.5246 494.044C94.3879 493.711 94.1897 493.456 93.9299 493.278C93.6747 493.096 93.3717 493.005 93.0207 493.005C92.6744 493.005 92.3713 493.096 92.1116 493.278C91.8564 493.456 91.6604 493.711 91.5237 494.044C91.387 494.372 91.3186 494.766 91.3186 495.227V495.24C91.3186 495.701 91.387 496.097 91.5237 496.43C91.6604 496.762 91.8564 497.018 92.1116 497.195C92.3668 497.373 92.6698 497.462 93.0207 497.462ZM99.4421 501.652C99.3282 501.652 99.2097 501.65 99.0866 501.646C98.9636 501.641 98.8428 501.636 98.7243 501.632V500.128C98.7927 500.137 98.8725 500.142 98.9636 500.142C99.0593 500.146 99.1527 500.148 99.2439 500.148C99.5993 500.148 99.8819 500.078 100.092 499.937C100.301 499.795 100.44 499.579 100.509 499.287L100.577 499L97.9314 491.474H100.126L101.924 497.968L101.466 497.175H102.06L101.623 497.968L103.421 491.474H105.526L102.963 498.993C102.744 499.654 102.477 500.178 102.163 500.565C101.853 500.957 101.477 501.235 101.035 501.399C100.593 501.568 100.062 501.652 99.4421 501.652ZM63.824 519L67.2488 509.136H69.0057V511.104H68.4041L65.991 519H63.824ZM65.6561 516.607L66.1619 515.062H70.7215L71.2273 516.607H65.6561ZM70.9334 519L68.5271 511.104V509.136H69.6756L73.1072 519H70.9334ZM74.3538 519V511.474H76.3499V512.643H76.4729C76.596 512.232 76.8216 511.916 77.1497 511.692C77.4778 511.465 77.8857 511.351 78.3733 511.351C78.51 511.351 78.6422 511.36 78.7698 511.378C78.902 511.396 79.0182 511.419 79.1184 511.446V513.189C78.968 513.153 78.8154 513.126 78.6604 513.107C78.51 513.085 78.3574 513.073 78.2024 513.073C77.8242 513.073 77.496 513.144 77.218 513.285C76.9401 513.422 76.7259 513.618 76.5755 513.873C76.4251 514.128 76.3499 514.434 76.3499 514.789V519H74.3538ZM83.366 519.157C82.6049 519.157 81.9487 519 81.3972 518.686C80.8504 518.367 80.4288 517.915 80.1326 517.332C79.8364 516.749 79.6882 516.054 79.6882 515.247V515.24C79.6882 514.443 79.8341 513.75 80.1257 513.162C80.422 512.574 80.839 512.118 81.3767 511.795C81.919 511.471 82.5548 511.31 83.2839 511.31C84.0177 511.31 84.6511 511.467 85.1843 511.781C85.7175 512.096 86.1277 512.535 86.4148 513.101C86.7019 513.666 86.8455 514.329 86.8455 515.09V515.712H80.6863V514.461H85.8884L84.9519 515.644V514.844C84.9519 514.393 84.8813 514.017 84.74 513.716C84.6033 513.415 84.4119 513.189 84.1658 513.039C83.9242 512.884 83.6417 512.807 83.3181 512.807C82.9991 512.807 82.7143 512.886 82.4636 513.046C82.2175 513.201 82.0216 513.431 81.8757 513.736C81.7345 514.037 81.6638 514.406 81.6638 514.844V515.65C81.6638 516.074 81.7345 516.437 81.8757 516.737C82.017 517.038 82.2175 517.268 82.4773 517.428C82.7371 517.587 83.047 517.667 83.407 517.667C83.6987 517.667 83.947 517.624 84.1521 517.537C84.3572 517.451 84.5213 517.35 84.6443 517.236C84.7719 517.118 84.8585 517.011 84.9041 516.915L84.9246 516.874H86.7839L86.7703 516.942C86.711 517.179 86.6039 517.428 86.449 517.688C86.294 517.943 86.0798 518.182 85.8064 518.405C85.5375 518.629 85.2003 518.811 84.7947 518.952C84.3936 519.089 83.9174 519.157 83.366 519.157ZM90.3 519.116C89.8261 519.116 89.4023 519.025 89.0286 518.843C88.6594 518.656 88.37 518.394 88.1604 518.057C87.9508 517.715 87.8459 517.316 87.8459 516.86V516.847C87.8459 516.396 87.9576 516.008 88.1809 515.685C88.4088 515.361 88.7392 515.108 89.1721 514.926C89.6096 514.739 90.1405 514.627 90.7649 514.591L93.5676 514.42V515.637L91.0657 515.801C90.6373 515.824 90.3183 515.915 90.1086 516.074C89.899 516.234 89.7942 516.45 89.7942 516.724V516.737C89.7942 517.024 89.9036 517.25 90.1223 517.414C90.3411 517.578 90.6236 517.66 90.97 517.66C91.2799 517.66 91.5556 517.599 91.7971 517.476C92.0386 517.353 92.2301 517.186 92.3713 516.977C92.5126 516.762 92.5832 516.523 92.5832 516.259V513.859C92.5832 513.531 92.4739 513.281 92.2551 513.107C92.0409 512.93 91.7288 512.841 91.3186 512.841C90.9586 512.841 90.6646 512.902 90.4368 513.025C90.2135 513.144 90.0631 513.315 89.9856 513.538L89.9719 513.565H88.1262L88.133 513.504C88.1877 513.062 88.3541 512.677 88.6321 512.349C88.9146 512.021 89.2929 511.765 89.7668 511.583C90.2454 511.401 90.7991 511.31 91.428 511.31C92.0933 511.31 92.6584 511.412 93.1233 511.617C93.5881 511.818 93.9413 512.109 94.1829 512.492C94.4289 512.87 94.552 513.326 94.552 513.859V519H92.5832V518.002H92.4602C92.3326 518.234 92.1617 518.435 91.9475 518.604C91.7379 518.768 91.4918 518.895 91.2092 518.986C90.9312 519.073 90.6282 519.116 90.3 519.116ZM99.6564 519V517.612L102.835 514.475C103.3 514.028 103.66 513.661 103.915 513.374C104.17 513.082 104.348 512.829 104.448 512.615C104.549 512.396 104.599 512.171 104.599 511.938V511.918C104.599 511.635 104.537 511.387 104.414 511.173C104.296 510.959 104.123 510.792 103.895 510.674C103.667 510.551 103.396 510.489 103.081 510.489C102.762 510.489 102.48 510.558 102.234 510.694C101.987 510.826 101.796 511.011 101.659 511.248C101.523 511.48 101.454 511.754 101.454 512.068V512.103H99.5471L99.5402 512.068C99.5402 511.439 99.6929 510.886 99.9982 510.407C100.308 509.929 100.734 509.555 101.277 509.286C101.823 509.017 102.457 508.883 103.177 508.883C103.856 508.883 104.453 509.004 104.968 509.245C105.487 509.487 105.893 509.822 106.185 510.25C106.481 510.678 106.629 511.177 106.629 511.747V511.768C106.629 512.141 106.556 512.508 106.41 512.868C106.265 513.224 106.018 513.609 105.672 514.023C105.326 514.438 104.852 514.924 104.25 515.479L101.871 517.701L102.425 516.799V517.701L101.871 517.339H106.773V519H99.6564Z" fill="black"/>
</g>
<g id="program_office">
<rect id="room_program_office" x="323" y="169" width="170" height="76" rx="10" fill="#D9D9D9"/>
<rect id="entrance_program_office" width="44" height="8" rx="4" transform="matrix(1 0 0 -1 385 249)" fill="#A4A4A4"/>
<path id="label_program_office" d="M378.548 196.89V195.276H381.077C381.67 195.276 382.13 195.126 382.458 194.825C382.791 194.52 382.957 194.087 382.957 193.526V193.513C382.957 192.952 382.791 192.521 382.458 192.221C382.13 191.92 381.67 191.77 381.077 191.77H378.548V190.136H381.583C382.276 190.136 382.882 190.277 383.402 190.56C383.921 190.838 384.325 191.229 384.612 191.735C384.903 192.241 385.049 192.831 385.049 193.506V193.52C385.049 194.199 384.903 194.791 384.612 195.297C384.325 195.803 383.921 196.195 383.402 196.473C382.882 196.751 382.276 196.89 381.583 196.89H378.548ZM377.516 200V190.136H379.58V200H377.516ZM386.521 200V192.474H388.517V193.643H388.64C388.763 193.232 388.989 192.916 389.317 192.692C389.645 192.465 390.053 192.351 390.541 192.351C390.678 192.351 390.81 192.36 390.937 192.378C391.069 192.396 391.186 192.419 391.286 192.446V194.189C391.136 194.153 390.983 194.126 390.828 194.107C390.678 194.085 390.525 194.073 390.37 194.073C389.992 194.073 389.664 194.144 389.386 194.285C389.108 194.422 388.893 194.618 388.743 194.873C388.593 195.128 388.517 195.434 388.517 195.789V200H386.521ZM395.568 200.157C394.797 200.157 394.134 200.002 393.578 199.692C393.022 199.378 392.596 198.929 392.3 198.346C392.004 197.758 391.856 197.056 391.856 196.24V196.227C391.856 195.415 392.006 194.718 392.307 194.135C392.608 193.551 393.034 193.103 393.585 192.788C394.141 192.469 394.802 192.31 395.568 192.31C396.333 192.31 396.992 192.467 397.543 192.781C398.099 193.096 398.528 193.547 398.828 194.135C399.129 194.718 399.28 195.415 399.28 196.227V196.24C399.28 197.056 399.131 197.758 398.835 198.346C398.539 198.929 398.113 199.378 397.557 199.692C397.005 200.002 396.342 200.157 395.568 200.157ZM395.568 198.592C395.923 198.592 396.224 198.498 396.47 198.312C396.716 198.125 396.905 197.856 397.037 197.505C397.17 197.154 397.236 196.732 397.236 196.24V196.227C397.236 195.734 397.17 195.315 397.037 194.969C396.905 194.618 396.714 194.349 396.463 194.162C396.217 193.971 395.919 193.875 395.568 193.875C395.217 193.875 394.916 193.971 394.665 194.162C394.419 194.349 394.23 194.618 394.098 194.969C393.966 195.315 393.9 195.734 393.9 196.227V196.24C393.9 196.737 393.963 197.161 394.091 197.512C394.223 197.863 394.412 198.132 394.658 198.318C394.909 198.501 395.212 198.592 395.568 198.592ZM403.999 202.646C403.302 202.646 402.705 202.554 402.208 202.372C401.716 202.194 401.328 201.941 401.046 201.613C400.763 201.29 400.594 200.916 400.54 200.492V200.458H402.515L402.522 200.485C402.577 200.704 402.732 200.882 402.987 201.019C403.247 201.155 403.598 201.224 404.04 201.224C404.573 201.224 404.988 201.103 405.284 200.861C405.58 200.624 405.728 200.287 405.728 199.85V198.448H405.605C405.469 198.713 405.289 198.936 405.065 199.118C404.846 199.3 404.591 199.439 404.3 199.535C404.012 199.626 403.696 199.672 403.349 199.672C402.72 199.672 402.176 199.521 401.716 199.221C401.26 198.915 400.907 198.492 400.656 197.949C400.41 197.407 400.287 196.78 400.287 196.069V196.056C400.287 195.317 400.41 194.67 400.656 194.114C400.907 193.558 401.262 193.125 401.722 192.815C402.187 192.506 402.741 192.351 403.384 192.351C403.73 192.351 404.047 192.405 404.334 192.515C404.625 192.624 404.881 192.779 405.099 192.979C405.318 193.18 405.494 193.422 405.626 193.704H405.721V192.474H407.718V199.768C407.718 200.355 407.565 200.864 407.26 201.292C406.959 201.725 406.53 202.058 405.974 202.29C405.418 202.527 404.76 202.646 403.999 202.646ZM404.026 198.141C404.386 198.141 404.694 198.054 404.949 197.881C405.204 197.703 405.4 197.459 405.537 197.149C405.678 196.84 405.749 196.477 405.749 196.062V196.049C405.749 195.639 405.678 195.276 405.537 194.962C405.4 194.647 405.204 194.404 404.949 194.23C404.694 194.057 404.386 193.971 404.026 193.971C403.666 193.971 403.361 194.057 403.11 194.23C402.859 194.404 402.666 194.647 402.529 194.962C402.397 195.272 402.331 195.634 402.331 196.049V196.062C402.331 196.473 402.397 196.835 402.529 197.149C402.666 197.459 402.859 197.703 403.11 197.881C403.361 198.054 403.666 198.141 404.026 198.141ZM409.484 200V192.474H411.48V193.643H411.603C411.726 193.232 411.951 192.916 412.28 192.692C412.608 192.465 413.016 192.351 413.503 192.351C413.64 192.351 413.772 192.36 413.9 192.378C414.032 192.396 414.148 192.419 414.248 192.446V194.189C414.098 194.153 413.945 194.126 413.79 194.107C413.64 194.085 413.487 194.073 413.332 194.073C412.954 194.073 412.626 194.144 412.348 194.285C412.07 194.422 411.856 194.618 411.705 194.873C411.555 195.128 411.48 195.434 411.48 195.789V200H409.484ZM417.265 200.116C416.791 200.116 416.368 200.025 415.994 199.843C415.625 199.656 415.335 199.394 415.126 199.057C414.916 198.715 414.811 198.316 414.811 197.86V197.847C414.811 197.396 414.923 197.008 415.146 196.685C415.374 196.361 415.704 196.108 416.137 195.926C416.575 195.739 417.106 195.627 417.73 195.591L420.533 195.42V196.637L418.031 196.801C417.603 196.824 417.284 196.915 417.074 197.074C416.864 197.234 416.759 197.45 416.759 197.724V197.737C416.759 198.024 416.869 198.25 417.088 198.414C417.306 198.578 417.589 198.66 417.935 198.66C418.245 198.66 418.521 198.599 418.762 198.476C419.004 198.353 419.195 198.186 419.337 197.977C419.478 197.762 419.549 197.523 419.549 197.259V194.859C419.549 194.531 419.439 194.281 419.22 194.107C419.006 193.93 418.694 193.841 418.284 193.841C417.924 193.841 417.63 193.902 417.402 194.025C417.179 194.144 417.028 194.315 416.951 194.538L416.937 194.565H415.092L415.098 194.504C415.153 194.062 415.319 193.677 415.597 193.349C415.88 193.021 416.258 192.765 416.732 192.583C417.211 192.401 417.764 192.31 418.393 192.31C419.059 192.31 419.624 192.412 420.089 192.617C420.553 192.818 420.907 193.109 421.148 193.492C421.394 193.87 421.517 194.326 421.517 194.859V200H419.549V199.002H419.426C419.298 199.234 419.127 199.435 418.913 199.604C418.703 199.768 418.457 199.895 418.175 199.986C417.897 200.073 417.593 200.116 417.265 200.116ZM423.242 200V192.474H425.238V193.649H425.362C425.521 193.226 425.785 192.897 426.154 192.665C426.524 192.428 426.954 192.31 427.446 192.31C427.788 192.31 428.098 192.367 428.376 192.48C428.654 192.59 428.891 192.747 429.087 192.952C429.283 193.157 429.433 193.406 429.538 193.697H429.661C429.775 193.419 429.944 193.178 430.167 192.973C430.39 192.763 430.653 192.601 430.953 192.487C431.254 192.369 431.58 192.31 431.931 192.31C432.432 192.31 432.863 192.412 433.223 192.617C433.587 192.822 433.868 193.114 434.064 193.492C434.264 193.866 434.364 194.312 434.364 194.832V200H432.368V195.331C432.368 195.026 432.323 194.773 432.232 194.572C432.14 194.372 432.001 194.221 431.815 194.121C431.632 194.016 431.402 193.964 431.124 193.964C430.855 193.964 430.621 194.025 430.42 194.148C430.224 194.271 430.071 194.438 429.962 194.647C429.853 194.857 429.798 195.099 429.798 195.372V200H427.802V195.242C427.802 194.973 427.752 194.743 427.652 194.552C427.556 194.36 427.415 194.215 427.228 194.114C427.045 194.014 426.824 193.964 426.565 193.964C426.305 193.964 426.075 194.03 425.874 194.162C425.678 194.29 425.523 194.467 425.409 194.695C425.295 194.919 425.238 195.174 425.238 195.461V200H423.242ZM391.99 220.253C391.015 220.253 390.172 220.043 389.461 219.624C388.75 219.2 388.201 218.601 387.813 217.826C387.43 217.051 387.239 216.133 387.239 215.071V215.058C387.239 213.991 387.433 213.073 387.82 212.303C388.212 211.528 388.763 210.931 389.474 210.512C390.185 210.092 391.024 209.883 391.99 209.883C392.961 209.883 393.799 210.092 394.506 210.512C395.217 210.931 395.766 211.528 396.153 212.303C396.54 213.077 396.734 213.996 396.734 215.058V215.071C396.734 216.133 396.54 217.051 396.153 217.826C395.77 218.601 395.223 219.2 394.513 219.624C393.802 220.043 392.961 220.253 391.99 220.253ZM391.99 218.503C392.523 218.503 392.988 218.362 393.385 218.079C393.781 217.797 394.086 217.398 394.301 216.883C394.519 216.368 394.629 215.764 394.629 215.071V215.058C394.629 214.36 394.519 213.757 394.301 213.246C394.086 212.731 393.781 212.335 393.385 212.057C392.988 211.774 392.523 211.633 391.99 211.633C391.457 211.633 390.992 211.774 390.596 212.057C390.199 212.335 389.891 212.731 389.673 213.246C389.454 213.757 389.345 214.36 389.345 215.058V215.071C389.345 215.764 389.452 216.368 389.666 216.883C389.885 217.398 390.19 217.797 390.582 218.079C390.978 218.362 391.448 218.503 391.99 218.503ZM398.849 220V213.978H397.632V212.474H398.849V211.77C398.849 211.268 398.938 210.851 399.116 210.519C399.293 210.186 399.571 209.938 399.949 209.773C400.332 209.605 400.827 209.521 401.433 209.521C401.638 209.521 401.823 209.527 401.987 209.541C402.155 209.555 402.312 209.573 402.458 209.596V210.929C402.394 210.915 402.31 210.906 402.205 210.901C402.105 210.892 401.991 210.888 401.864 210.888C401.476 210.888 401.203 210.977 401.043 211.154C400.884 211.327 400.804 211.578 400.804 211.906V212.474H402.397V213.978H400.845V220H398.849ZM404.402 220V213.978H403.185V212.474H404.402V211.77C404.402 211.268 404.491 210.851 404.669 210.519C404.846 210.186 405.124 209.938 405.503 209.773C405.886 209.605 406.38 209.521 406.986 209.521C407.191 209.521 407.376 209.527 407.54 209.541C407.708 209.555 407.866 209.573 408.011 209.596V210.929C407.948 210.915 407.863 210.906 407.759 210.901C407.658 210.892 407.544 210.888 407.417 210.888C407.029 210.888 406.756 210.977 406.596 211.154C406.437 211.327 406.357 211.578 406.357 211.906V212.474H407.95V213.978H406.398V220H404.402ZM409.32 220V212.474H411.316V220H409.32ZM410.324 211.318C410.019 211.318 409.755 211.211 409.531 210.997C409.308 210.778 409.197 210.516 409.197 210.211C409.197 209.901 409.308 209.639 409.531 209.425C409.755 209.206 410.019 209.097 410.324 209.097C410.634 209.097 410.899 209.206 411.117 209.425C411.336 209.639 411.446 209.901 411.446 210.211C411.446 210.516 411.336 210.778 411.117 210.997C410.899 211.211 410.634 211.318 410.324 211.318ZM416.411 220.157C415.627 220.157 414.959 220.005 414.408 219.699C413.861 219.389 413.444 218.943 413.157 218.359C412.87 217.771 412.726 217.061 412.726 216.227V216.213C412.726 215.383 412.87 214.679 413.157 214.101C413.444 213.522 413.861 213.08 414.408 212.774C414.959 212.465 415.627 212.31 416.411 212.31C417.076 212.31 417.648 212.424 418.127 212.651C418.605 212.879 418.983 213.201 419.261 213.615C419.539 214.03 419.708 214.518 419.767 215.078V215.099H417.915L417.908 215.085C417.84 214.72 417.68 214.429 417.429 214.21C417.183 213.987 416.846 213.875 416.418 213.875C416.062 213.875 415.759 213.966 415.509 214.148C415.262 214.326 415.076 214.588 414.948 214.935C414.82 215.281 414.757 215.707 414.757 216.213V216.227C414.757 216.732 414.82 217.163 414.948 217.519C415.08 217.869 415.269 218.136 415.515 218.318C415.761 218.501 416.062 218.592 416.418 218.592C416.828 218.592 417.156 218.496 417.402 218.305C417.648 218.113 417.815 217.826 417.901 217.443L417.915 217.423L419.76 217.416V217.464C419.688 218.006 419.512 218.48 419.234 218.886C418.956 219.291 418.58 219.606 418.106 219.829C417.632 220.048 417.067 220.157 416.411 220.157ZM424.404 220.157C423.643 220.157 422.987 220 422.436 219.686C421.889 219.367 421.467 218.915 421.171 218.332C420.875 217.749 420.727 217.054 420.727 216.247V216.24C420.727 215.443 420.873 214.75 421.164 214.162C421.46 213.574 421.877 213.118 422.415 212.795C422.958 212.471 423.593 212.31 424.322 212.31C425.056 212.31 425.69 212.467 426.223 212.781C426.756 213.096 427.166 213.535 427.453 214.101C427.74 214.666 427.884 215.329 427.884 216.09V216.712H421.725V215.461H426.927L425.99 216.644V215.844C425.99 215.393 425.92 215.017 425.779 214.716C425.642 214.415 425.45 214.189 425.204 214.039C424.963 213.884 424.68 213.807 424.357 213.807C424.038 213.807 423.753 213.886 423.502 214.046C423.256 214.201 423.06 214.431 422.914 214.736C422.773 215.037 422.702 215.406 422.702 215.844V216.65C422.702 217.074 422.773 217.437 422.914 217.737C423.056 218.038 423.256 218.268 423.516 218.428C423.776 218.587 424.085 218.667 424.446 218.667C424.737 218.667 424.986 218.624 425.191 218.537C425.396 218.451 425.56 218.35 425.683 218.236C425.81 218.118 425.897 218.011 425.943 217.915L425.963 217.874H427.822L427.809 217.942C427.75 218.179 427.642 218.428 427.487 218.688C427.333 218.943 427.118 219.182 426.845 219.405C426.576 219.629 426.239 219.811 425.833 219.952C425.432 220.089 424.956 220.157 424.404 220.157Z" fill="black"/>
</g>
<g id="lecture_hall_07">
<rect id="room_lecture_hall_07" x="876" y="295" width="130" height="112" rx="10" fill="#D9D9D9"/>
<rect id="entrance_lecture_hall_07" width="8" height="43" rx="4" transform="matrix(1 0 0 -1 872 376)" fill="#A4A4A4"/>
<path id="label_lecture_hall_07" d="M922.196 354V344.136H924.261V348.142H928.704V344.136H930.769V354H928.704V349.844H924.261V354H922.196ZM934.784 354.116C934.31 354.116 933.886 354.025 933.512 353.843C933.143 353.656 932.854 353.394 932.644 353.057C932.434 352.715 932.33 352.316 932.33 351.86V351.847C932.33 351.396 932.441 351.008 932.665 350.685C932.892 350.361 933.223 350.108 933.656 349.926C934.093 349.739 934.624 349.627 935.249 349.591L938.051 349.42V350.637L935.549 350.801C935.121 350.824 934.802 350.915 934.592 351.074C934.383 351.234 934.278 351.45 934.278 351.724V351.737C934.278 352.024 934.387 352.25 934.606 352.414C934.825 352.578 935.107 352.66 935.454 352.66C935.763 352.66 936.039 352.599 936.281 352.476C936.522 352.353 936.714 352.186 936.855 351.977C936.996 351.762 937.067 351.523 937.067 351.259V348.859C937.067 348.531 936.958 348.281 936.739 348.107C936.525 347.93 936.212 347.841 935.802 347.841C935.442 347.841 935.148 347.902 934.92 348.025C934.697 348.144 934.547 348.315 934.469 348.538L934.456 348.565H932.61L932.617 348.504C932.671 348.062 932.838 347.677 933.116 347.349C933.398 347.021 933.777 346.765 934.25 346.583C934.729 346.401 935.283 346.31 935.912 346.31C936.577 346.31 937.142 346.412 937.607 346.617C938.072 346.818 938.425 347.109 938.666 347.492C938.913 347.87 939.036 348.326 939.036 348.859V354H937.067V353.002H936.944C936.816 353.234 936.645 353.435 936.431 353.604C936.221 353.768 935.975 353.895 935.693 353.986C935.415 354.073 935.112 354.116 934.784 354.116ZM940.829 354V343.596H942.825V354H940.829ZM944.728 354V343.596H946.724V354H944.728ZM952.375 354L956.579 345.893V345.776H951.603V344.129H958.658V345.797L954.536 354H952.375Z" fill="black"/>
</g>
<g id="computer_lab_01">
<rect id="room_computer_lab_01" x="419" y="592" width="147" height="111" rx="10" fill="#D9D9D9"/>
<rect id="entrance_computer_lab_01" width="33" height="6" rx="3" transform="matrix(1 0 0 -1 501 595)" fill="#A4A4A4"/>
<path id="label_computer_lab_01" d="M448.387 653.253C447.434 653.253 446.612 653.043 445.919 652.624C445.226 652.205 444.693 651.608 444.319 650.833C443.946 650.058 443.759 649.138 443.759 648.071V648.058C443.759 646.991 443.946 646.071 444.319 645.296C444.693 644.521 445.224 643.926 445.912 643.512C446.605 643.092 447.43 642.883 448.387 642.883C449.166 642.883 449.866 643.035 450.485 643.341C451.11 643.646 451.613 644.068 451.996 644.605C452.379 645.143 452.602 645.758 452.666 646.451V646.54H450.663L450.656 646.492C450.588 646.123 450.449 645.799 450.239 645.521C450.03 645.239 449.765 645.02 449.446 644.865C449.132 644.71 448.779 644.633 448.387 644.633C447.872 644.633 447.425 644.772 447.047 645.05C446.669 645.323 446.377 645.717 446.172 646.232C445.971 646.743 445.871 647.351 445.871 648.058V648.071C445.871 648.773 445.971 649.382 446.172 649.896C446.377 650.411 446.669 650.808 447.047 651.086C447.425 651.364 447.874 651.503 448.394 651.503C448.79 651.503 449.143 651.432 449.453 651.291C449.768 651.145 450.027 650.942 450.232 650.683C450.442 650.418 450.581 650.111 450.649 649.76L450.663 649.698H452.673V649.78C452.6 650.468 452.374 651.072 451.996 651.592C451.618 652.111 451.121 652.519 450.506 652.815C449.891 653.107 449.184 653.253 448.387 653.253ZM457.488 653.157C456.718 653.157 456.055 653.002 455.499 652.692C454.943 652.378 454.516 651.929 454.22 651.346C453.924 650.758 453.776 650.056 453.776 649.24V649.227C453.776 648.415 453.926 647.718 454.227 647.135C454.528 646.551 454.954 646.103 455.505 645.788C456.061 645.469 456.722 645.31 457.488 645.31C458.253 645.31 458.912 645.467 459.463 645.781C460.019 646.096 460.448 646.547 460.749 647.135C461.049 647.718 461.2 648.415 461.2 649.227V649.24C461.2 650.056 461.052 650.758 460.755 651.346C460.459 651.929 460.033 652.378 459.477 652.692C458.926 653.002 458.263 653.157 457.488 653.157ZM457.488 651.592C457.843 651.592 458.144 651.498 458.39 651.312C458.636 651.125 458.825 650.856 458.958 650.505C459.09 650.154 459.156 649.732 459.156 649.24V649.227C459.156 648.734 459.09 648.315 458.958 647.969C458.825 647.618 458.634 647.349 458.383 647.162C458.137 646.971 457.839 646.875 457.488 646.875C457.137 646.875 456.836 646.971 456.585 647.162C456.339 647.349 456.15 647.618 456.018 647.969C455.886 648.315 455.82 648.734 455.82 649.227V649.24C455.82 649.737 455.884 650.161 456.011 650.512C456.143 650.863 456.333 651.132 456.579 651.318C456.829 651.501 457.132 651.592 457.488 651.592ZM462.597 653V645.474H464.593V646.649H464.716C464.875 646.226 465.14 645.897 465.509 645.665C465.878 645.428 466.309 645.31 466.801 645.31C467.143 645.31 467.452 645.367 467.73 645.48C468.008 645.59 468.245 645.747 468.441 645.952C468.637 646.157 468.788 646.406 468.893 646.697H469.016C469.13 646.419 469.298 646.178 469.521 645.973C469.745 645.763 470.007 645.601 470.308 645.487C470.608 645.369 470.934 645.31 471.285 645.31C471.786 645.31 472.217 645.412 472.577 645.617C472.942 645.822 473.222 646.114 473.418 646.492C473.618 646.866 473.719 647.312 473.719 647.832V653H471.723V648.331C471.723 648.026 471.677 647.773 471.586 647.572C471.495 647.372 471.356 647.221 471.169 647.121C470.987 647.016 470.756 646.964 470.478 646.964C470.21 646.964 469.975 647.025 469.774 647.148C469.578 647.271 469.426 647.438 469.316 647.647C469.207 647.857 469.152 648.099 469.152 648.372V653H467.156V648.242C467.156 647.973 467.106 647.743 467.006 647.552C466.91 647.36 466.769 647.215 466.582 647.114C466.4 647.014 466.179 646.964 465.919 646.964C465.659 646.964 465.429 647.03 465.228 647.162C465.033 647.29 464.878 647.467 464.764 647.695C464.65 647.919 464.593 648.174 464.593 648.461V653H462.597ZM475.423 655.495V645.474H477.419V646.636H477.542C477.675 646.367 477.848 646.137 478.062 645.945C478.281 645.754 478.536 645.608 478.828 645.508C479.119 645.403 479.443 645.351 479.798 645.351C480.427 645.351 480.97 645.508 481.425 645.822C481.881 646.137 482.232 646.583 482.478 647.162C482.729 647.736 482.854 648.424 482.854 649.227V649.24C482.854 650.047 482.731 650.74 482.485 651.318C482.239 651.897 481.888 652.341 481.432 652.651C480.976 652.961 480.432 653.116 479.798 653.116C479.452 653.116 479.131 653.064 478.834 652.959C478.543 652.85 478.285 652.697 478.062 652.501C477.843 652.305 477.67 652.07 477.542 651.797H477.419V655.495H475.423ZM479.115 651.462C479.47 651.462 479.773 651.373 480.024 651.195C480.279 651.018 480.475 650.762 480.612 650.43C480.753 650.097 480.824 649.701 480.824 649.24V649.227C480.824 648.766 480.753 648.37 480.612 648.037C480.475 647.704 480.279 647.449 480.024 647.271C479.773 647.094 479.47 647.005 479.115 647.005C478.764 647.005 478.458 647.094 478.199 647.271C477.943 647.449 477.745 647.704 477.604 648.037C477.467 648.365 477.399 648.762 477.399 649.227V649.24C477.399 649.696 477.47 650.092 477.611 650.43C477.752 650.762 477.95 651.018 478.206 651.195C478.465 651.373 478.768 651.462 479.115 651.462ZM486.746 653.157C486.185 653.157 485.714 653.048 485.331 652.829C484.953 652.61 484.668 652.291 484.476 651.872C484.285 651.448 484.189 650.938 484.189 650.341V645.474H486.185V649.883C486.185 650.416 486.29 650.819 486.5 651.093C486.714 651.366 487.058 651.503 487.532 651.503C487.778 651.503 487.995 651.464 488.182 651.387C488.373 651.305 488.532 651.191 488.66 651.045C488.788 650.899 488.883 650.724 488.947 650.519C489.016 650.309 489.05 650.076 489.05 649.821V645.474H491.046V653H489.05V651.838H488.927C488.813 652.111 488.653 652.348 488.448 652.549C488.243 652.745 487.997 652.895 487.71 653C487.423 653.105 487.101 653.157 486.746 653.157ZM495.943 653.027C495.031 653.027 494.375 652.868 493.974 652.549C493.573 652.225 493.372 651.699 493.372 650.97V646.978H492.21V645.474H493.372V643.676H495.389V645.474H496.941V646.978H495.389V650.512C495.389 650.849 495.464 651.097 495.615 651.257C495.77 651.412 496.016 651.489 496.353 651.489C496.481 651.489 496.585 651.487 496.667 651.482C496.754 651.473 496.845 651.464 496.941 651.455V652.938C496.818 652.961 496.67 652.982 496.496 653C496.323 653.018 496.139 653.027 495.943 653.027ZM501.626 653.157C500.865 653.157 500.209 653 499.657 652.686C499.11 652.367 498.689 651.915 498.392 651.332C498.096 650.749 497.948 650.054 497.948 649.247V649.24C497.948 648.443 498.094 647.75 498.386 647.162C498.682 646.574 499.099 646.118 499.637 645.795C500.179 645.471 500.815 645.31 501.544 645.31C502.278 645.31 502.911 645.467 503.444 645.781C503.977 646.096 504.388 646.535 504.675 647.101C504.962 647.666 505.105 648.329 505.105 649.09V649.712H498.946V648.461H504.148L503.212 649.644V648.844C503.212 648.393 503.141 648.017 503 647.716C502.863 647.415 502.672 647.189 502.426 647.039C502.184 646.884 501.902 646.807 501.578 646.807C501.259 646.807 500.974 646.886 500.724 647.046C500.477 647.201 500.281 647.431 500.136 647.736C499.994 648.037 499.924 648.406 499.924 648.844V649.65C499.924 650.074 499.994 650.437 500.136 650.737C500.277 651.038 500.477 651.268 500.737 651.428C500.997 651.587 501.307 651.667 501.667 651.667C501.959 651.667 502.207 651.624 502.412 651.537C502.617 651.451 502.781 651.35 502.904 651.236C503.032 651.118 503.118 651.011 503.164 650.915L503.184 650.874H505.044L505.03 650.942C504.971 651.179 504.864 651.428 504.709 651.688C504.554 651.943 504.34 652.182 504.066 652.405C503.797 652.629 503.46 652.811 503.055 652.952C502.654 653.089 502.177 653.157 501.626 653.157ZM506.509 653V645.474H508.505V646.643H508.628C508.751 646.232 508.977 645.916 509.305 645.692C509.633 645.465 510.041 645.351 510.529 645.351C510.665 645.351 510.798 645.36 510.925 645.378C511.057 645.396 511.174 645.419 511.274 645.446V647.189C511.123 647.153 510.971 647.126 510.816 647.107C510.665 647.085 510.513 647.073 510.358 647.073C509.98 647.073 509.651 647.144 509.373 647.285C509.095 647.422 508.881 647.618 508.731 647.873C508.58 648.128 508.505 648.434 508.505 648.789V653H506.509ZM515.954 653V643.136H518.019V651.298H522.408V653H515.954ZM525.903 653.116C525.429 653.116 525.005 653.025 524.632 652.843C524.262 652.656 523.973 652.394 523.763 652.057C523.554 651.715 523.449 651.316 523.449 650.86V650.847C523.449 650.396 523.561 650.008 523.784 649.685C524.012 649.361 524.342 649.108 524.775 648.926C525.213 648.739 525.744 648.627 526.368 648.591L529.171 648.42V649.637L526.669 649.801C526.24 649.824 525.921 649.915 525.712 650.074C525.502 650.234 525.397 650.45 525.397 650.724V650.737C525.397 651.024 525.507 651.25 525.725 651.414C525.944 651.578 526.227 651.66 526.573 651.66C526.883 651.66 527.159 651.599 527.4 651.476C527.642 651.353 527.833 651.186 527.974 650.977C528.116 650.762 528.186 650.523 528.186 650.259V647.859C528.186 647.531 528.077 647.281 527.858 647.107C527.644 646.93 527.332 646.841 526.922 646.841C526.562 646.841 526.268 646.902 526.04 647.025C525.817 647.144 525.666 647.315 525.589 647.538L525.575 647.565H523.729L523.736 647.504C523.791 647.062 523.957 646.677 524.235 646.349C524.518 646.021 524.896 645.765 525.37 645.583C525.848 645.401 526.402 645.31 527.031 645.31C527.696 645.31 528.262 645.412 528.726 645.617C529.191 645.818 529.544 646.109 529.786 646.492C530.032 646.87 530.155 647.326 530.155 647.859V653H528.186V652.002H528.063C527.936 652.234 527.765 652.435 527.551 652.604C527.341 652.768 527.095 652.895 526.812 652.986C526.534 653.073 526.231 653.116 525.903 653.116ZM536.324 653.116C535.968 653.116 535.644 653.066 535.353 652.966C535.061 652.861 534.806 652.713 534.587 652.521C534.373 652.33 534.2 652.1 534.068 651.831H533.945V653H531.949V642.596H533.945V646.677H534.068C534.195 646.399 534.368 646.162 534.587 645.966C534.81 645.77 535.068 645.619 535.36 645.515C535.656 645.405 535.977 645.351 536.324 645.351C536.957 645.351 537.502 645.506 537.957 645.815C538.413 646.125 538.764 646.57 539.01 647.148C539.256 647.727 539.379 648.42 539.379 649.227V649.24C539.379 650.042 539.254 650.733 539.003 651.312C538.757 651.89 538.406 652.337 537.95 652.651C537.495 652.961 536.952 653.116 536.324 653.116ZM535.64 651.462C535.995 651.462 536.298 651.373 536.549 651.195C536.804 651.018 537 650.762 537.137 650.43C537.278 650.097 537.349 649.701 537.349 649.24V649.227C537.349 648.766 537.278 648.372 537.137 648.044C537 647.711 536.804 647.456 536.549 647.278C536.298 647.096 535.995 647.005 535.64 647.005C535.294 647.005 534.991 647.096 534.731 647.278C534.476 647.456 534.277 647.711 534.136 648.044C533.995 648.372 533.924 648.769 533.924 649.233V649.247C533.924 649.703 533.992 650.097 534.129 650.43C534.27 650.762 534.469 651.018 534.724 651.195C534.984 651.373 535.289 651.462 535.64 651.462ZM546.562 653V645.084H546.439L544.019 646.766V644.906L546.569 643.136H548.626V653H546.562Z" fill="black"/>
</g>
<g id="guys_washroom_f2_01">
<rect id="room_guys_washroom_f2_01" x="794" y="589" width="86" height="60" rx="10" fill="#D9D9D9"/>
<path id="label_guys_washroom_f2_01" d="M830.852 621.597V616.631C830.852 615.758 831.058 614.994 831.468 614.337C831.885 613.681 832.456 613.174 833.179 612.816C833.903 612.458 834.738 612.279 835.685 612.279H837.463C838.411 612.279 839.246 612.458 839.969 612.816C840.7 613.174 841.27 613.681 841.681 614.337C842.091 614.994 842.296 615.758 842.296 616.631V621.597C842.296 621.918 842.184 622.19 841.96 622.414C841.744 622.63 841.479 622.738 841.166 622.738C840.853 622.738 840.584 622.63 840.361 622.414C840.144 622.19 840.036 621.918 840.036 621.597V617.145C840.036 616.929 839.928 616.821 839.712 616.821C839.496 616.821 839.387 616.929 839.387 617.145V630.691C839.387 631.042 839.264 631.333 839.018 631.564C838.78 631.803 838.489 631.922 838.146 631.922C837.803 631.922 837.512 631.803 837.273 631.564C837.035 631.325 836.915 631.034 836.915 630.691V622.425C836.915 622.335 836.882 622.257 836.815 622.19C836.748 622.123 836.669 622.089 836.58 622.089C836.483 622.089 836.401 622.123 836.334 622.19C836.274 622.257 836.244 622.335 836.244 622.425V630.691C836.244 631.034 836.125 631.325 835.886 631.564C835.648 631.803 835.357 631.922 835.014 631.922C834.663 631.922 834.369 631.803 834.13 631.564C833.891 631.333 833.772 631.042 833.772 630.691V617.145C833.772 616.929 833.664 616.821 833.448 616.821C833.224 616.821 833.112 616.929 833.112 617.145V621.597C833.112 621.918 833 622.19 832.776 622.414C832.56 622.63 832.295 622.738 831.982 622.738C831.669 622.738 831.401 622.63 831.177 622.414C830.961 622.19 830.852 621.918 830.852 621.597ZM836.58 611.049C836.095 611.049 835.651 610.933 835.249 610.702C834.853 610.463 834.536 610.146 834.298 609.751C834.059 609.348 833.94 608.905 833.94 608.42C833.94 607.935 834.059 607.495 834.298 607.1C834.536 606.705 834.853 606.388 835.249 606.149C835.651 605.911 836.095 605.791 836.58 605.791C837.064 605.791 837.504 605.911 837.9 606.149C838.295 606.388 838.612 606.705 838.85 607.1C839.089 607.495 839.208 607.935 839.208 608.42C839.208 608.905 839.089 609.348 838.85 609.751C838.612 610.146 838.295 610.463 837.9 610.702C837.504 610.933 837.064 611.049 836.58 611.049Z" fill="black"/>
<rect id="entrance_guys_washroom_f2_01" width="6.71337" height="31.3291" rx="3.35668" transform="matrix(1 0 0 -1 791 634.904)" fill="#A4A4A4"/>
</g>
<g id="ladies_washroom_f2_01">
<rect id="room_ladies_washroom_f2_01" x="876" y="492" width="70" height="89" rx="10" fill="#D9D9D9"/>
<rect id="entrance_ladies_washroom_f2_01" width="8" height="42" rx="4" transform="matrix(1 0 0 -1 872 560)" fill="#A4A4A4"/>
<path id="label_ladies_washroom_f2_01" d="M911.844 527.049C911.359 527.049 910.919 526.933 910.524 526.702C910.129 526.463 909.812 526.146 909.573 525.751C909.334 525.348 909.215 524.905 909.215 524.42C909.215 523.935 909.334 523.495 909.573 523.1C909.812 522.705 910.129 522.388 910.524 522.149C910.919 521.911 911.359 521.791 911.844 521.791C912.329 521.791 912.769 521.911 913.164 522.149C913.566 522.388 913.887 522.705 914.126 523.1C914.364 523.495 914.484 523.935 914.484 524.42C914.484 524.905 914.364 525.348 914.126 525.751C913.887 526.146 913.566 526.463 913.164 526.702C912.769 526.933 912.329 527.049 911.844 527.049ZM910.278 547.922C909.942 547.922 909.651 547.803 909.405 547.564C909.167 547.333 909.047 547.042 909.047 546.691V541.837H907.671C907.343 541.837 907.112 541.717 906.978 541.479C906.844 541.233 906.825 540.945 906.922 540.617L909.293 533.212C909.353 533.026 909.327 532.88 909.215 532.776C909.111 532.672 908.984 532.634 908.835 532.664C908.686 532.694 908.581 532.809 908.522 533.011L906.989 537.765C906.87 538.13 906.676 538.376 906.407 538.503C906.139 538.63 905.87 538.656 905.602 538.581C905.334 538.499 905.125 538.339 904.976 538.1C904.826 537.854 904.808 537.545 904.92 537.172L906.463 532.418C906.769 531.478 907.116 530.703 907.504 530.091C907.899 529.472 908.395 529.014 908.991 528.715C909.588 528.417 910.345 528.268 911.262 528.268H912.437C913.354 528.268 914.111 528.417 914.707 528.715C915.304 529.014 915.796 529.472 916.184 530.091C916.579 530.703 916.93 531.478 917.236 532.418L918.768 537.172C918.887 537.545 918.872 537.854 918.723 538.1C918.574 538.339 918.362 538.499 918.086 538.581C917.817 538.656 917.549 538.63 917.28 538.503C917.019 538.376 916.829 538.13 916.71 537.765L915.177 533.011C915.11 532.809 915.002 532.694 914.853 532.664C914.704 532.634 914.573 532.672 914.461 532.776C914.357 532.88 914.338 533.026 914.405 533.212L916.766 540.617C916.87 540.945 916.855 541.233 916.721 541.479C916.587 541.717 916.352 541.837 916.016 541.837H914.652V546.691C914.652 547.042 914.528 547.333 914.282 547.564C914.044 547.803 913.753 547.922 913.41 547.922C913.074 547.922 912.783 547.803 912.537 547.564C912.299 547.325 912.179 547.034 912.179 546.691V541.837C912.179 541.74 912.146 541.658 912.079 541.591C912.019 541.523 911.941 541.49 911.844 541.49C911.754 541.49 911.676 541.523 911.609 541.591C911.549 541.658 911.519 541.74 911.519 541.837V546.691C911.519 547.034 911.396 547.325 911.15 547.564C910.912 547.803 910.621 547.922 910.278 547.922Z" fill="black"/>
</g>
<g id="elevator_f2_01">
<rect id="room_elevator_f2_01" x="616.398" y="590.898" width="58.0227" height="61.5392" rx="10" fill="#D9D9D9"/>
<rect id="entrance_elevator_f2_01" width="29" height="5" rx="2.5" transform="matrix(1 0 0 -1 631 594.001)" fill="#A4A4A4"/>
<path id="label_elevator_f2_01" d="M639.357 633.448C638.165 633.448 637.252 633.131 636.617 632.497C635.983 631.869 635.666 630.963 635.666 629.778V617.128C635.666 615.943 635.983 615.037 636.617 614.409C637.252 613.775 638.165 613.458 639.357 613.458H651.965C653.157 613.458 654.07 613.775 654.704 614.409C655.339 615.037 655.656 615.943 655.656 617.128V629.778C655.656 630.963 655.339 631.869 654.704 632.497C654.07 633.131 653.157 633.448 651.965 633.448H639.357ZM639.649 630.751H651.673C652.091 630.751 652.408 630.646 652.624 630.437C652.847 630.228 652.958 629.9 652.958 629.454V617.462C652.958 617.016 652.847 616.689 652.624 616.48C652.408 616.263 652.091 616.155 651.673 616.155H639.649C639.231 616.155 638.91 616.263 638.687 616.48C638.471 616.689 638.363 617.016 638.363 617.462V629.454C638.363 629.9 638.471 630.228 638.687 630.437C638.91 630.646 639.231 630.751 639.649 630.751ZM642.305 626.778C642.04 626.778 641.827 626.701 641.667 626.548C641.507 626.394 641.413 626.203 641.385 625.973C641.364 625.736 641.423 625.502 641.563 625.272L644.835 619.721C644.96 619.504 645.131 619.362 645.347 619.292C645.57 619.215 645.79 619.212 646.006 619.281C646.222 619.351 646.396 619.498 646.529 619.721L649.801 625.272C649.933 625.509 649.989 625.743 649.968 625.973C649.947 626.203 649.857 626.394 649.697 626.548C649.536 626.701 649.32 626.778 649.048 626.778H642.305Z" fill="black"/>
</g>
<g id="elevator_f2_02">
<rect id="room_elevator_f2_02" x="329" y="370.897" width="58.0227" height="61.5392" rx="10" fill="#D9D9D9"/>
<rect id="entrance_elevator_f2_02" width="29" height="5" rx="2.5" transform="matrix(1 0 0 -1 343.602 374)" fill="#A4A4A4"/>
<path id="label_elevator_f2_02" d="M351.958 413.447C350.766 413.447 349.853 413.13 349.219 412.496C348.585 411.868 348.268 410.962 348.268 409.777V397.127C348.268 395.942 348.585 395.036 349.219 394.408C349.853 393.774 350.766 393.457 351.958 393.457H364.567C365.759 393.457 366.672 393.774 367.306 394.408C367.94 395.036 368.257 395.942 368.257 397.127V409.777C368.257 410.962 367.94 411.868 367.306 412.496C366.672 413.13 365.759 413.447 364.567 413.447H351.958ZM352.251 410.75H364.274C364.692 410.75 365.009 410.645 365.225 410.436C365.449 410.227 365.56 409.899 365.56 409.453V397.461C365.56 397.015 365.449 396.688 365.225 396.479C365.009 396.262 364.692 396.154 364.274 396.154H352.251C351.833 396.154 351.512 396.262 351.289 396.479C351.073 396.688 350.965 397.015 350.965 397.461V409.453C350.965 409.899 351.073 410.227 351.289 410.436C351.512 410.645 351.833 410.75 352.251 410.75ZM354.906 406.777C354.642 406.777 354.429 406.7 354.269 406.547C354.108 406.393 354.014 406.202 353.986 405.972C353.966 405.735 354.025 405.501 354.164 405.271L357.437 399.72C357.562 399.504 357.733 399.361 357.949 399.291C358.172 399.214 358.391 399.211 358.608 399.28C358.824 399.35 358.998 399.497 359.13 399.72L362.403 405.271C362.535 405.508 362.591 405.742 362.57 405.972C362.549 406.202 362.458 406.393 362.298 406.547C362.138 406.7 361.922 406.777 361.65 406.777H354.906Z" fill="black"/>
</g>
<g id="library">
<rect id="room_library" x="29" y="241" width="115" height="160" rx="10" fill="#D9D9D9"/>
<rect id="entrance_library" width="6" height="28" rx="3" transform="matrix(1 0 0 -1 140 379)" fill="#A4A4A4"/>
<path id="label_library" d="M61.2437 325V315.136H63.3082V323.298H67.6968V325H61.2437ZM69.1553 325V317.474H71.1514V325H69.1553ZM70.1602 316.318C69.8549 316.318 69.5905 316.211 69.3672 315.997C69.1439 315.778 69.0323 315.516 69.0323 315.211C69.0323 314.901 69.1439 314.639 69.3672 314.425C69.5905 314.206 69.8549 314.097 70.1602 314.097C70.4701 314.097 70.7344 314.206 70.9532 314.425C71.1719 314.639 71.2813 314.901 71.2813 315.211C71.2813 315.516 71.1719 315.778 70.9532 315.997C70.7344 316.211 70.4701 316.318 70.1602 316.318ZM77.3745 325.116C77.0191 325.116 76.6955 325.066 76.4038 324.966C76.1122 324.861 75.857 324.713 75.6382 324.521C75.424 324.33 75.2508 324.1 75.1187 323.831H74.9956V325H72.9995V314.596H74.9956V318.677H75.1187C75.2463 318.399 75.4195 318.162 75.6382 317.966C75.8615 317.77 76.119 317.619 76.4107 317.515C76.7069 317.405 77.0282 317.351 77.3745 317.351C78.008 317.351 78.5526 317.506 79.0083 317.815C79.464 318.125 79.815 318.57 80.0611 319.148C80.3071 319.727 80.4302 320.42 80.4302 321.227V321.24C80.4302 322.042 80.3049 322.733 80.0542 323.312C79.8081 323.89 79.4572 324.337 79.0015 324.651C78.5458 324.961 78.0034 325.116 77.3745 325.116ZM76.6909 323.462C77.0464 323.462 77.3495 323.373 77.6001 323.195C77.8553 323.018 78.0513 322.762 78.188 322.43C78.3293 322.097 78.3999 321.701 78.3999 321.24V321.227C78.3999 320.766 78.3293 320.372 78.188 320.044C78.0513 319.711 77.8553 319.456 77.6001 319.278C77.3495 319.096 77.0464 319.005 76.6909 319.005C76.3446 319.005 76.0415 319.096 75.7818 319.278C75.5265 319.456 75.3283 319.711 75.187 320.044C75.0458 320.372 74.9751 320.769 74.9751 321.233V321.247C74.9751 321.703 75.0435 322.097 75.1802 322.43C75.3215 322.762 75.5197 323.018 75.7749 323.195C76.0347 323.373 76.34 323.462 76.6909 323.462ZM81.8203 325V317.474H83.8164V318.643H83.9395C84.0625 318.232 84.2881 317.916 84.6162 317.692C84.9443 317.465 85.3522 317.351 85.8398 317.351C85.9766 317.351 86.1087 317.36 86.2363 317.378C86.3685 317.396 86.4847 317.419 86.585 317.446V319.189C86.4346 319.153 86.2819 319.126 86.127 319.107C85.9766 319.085 85.8239 319.073 85.6689 319.073C85.2907 319.073 84.9626 319.144 84.6846 319.285C84.4066 319.422 84.1924 319.618 84.042 319.873C83.8916 320.128 83.8164 320.434 83.8164 320.789V325H81.8203ZM89.602 325.116C89.1281 325.116 88.7042 325.025 88.3305 324.843C87.9614 324.656 87.672 324.394 87.4624 324.057C87.2527 323.715 87.1479 323.316 87.1479 322.86V322.847C87.1479 322.396 87.2596 322.008 87.4829 321.685C87.7108 321.361 88.0412 321.108 88.4741 320.926C88.9116 320.739 89.4425 320.627 90.0669 320.591L92.8696 320.42V321.637L90.3677 321.801C89.9393 321.824 89.6203 321.915 89.4106 322.074C89.201 322.234 89.0962 322.45 89.0962 322.724V322.737C89.0962 323.024 89.2055 323.25 89.4243 323.414C89.643 323.578 89.9256 323.66 90.272 323.66C90.5818 323.66 90.8576 323.599 91.0991 323.476C91.3406 323.353 91.532 323.186 91.6733 322.977C91.8146 322.762 91.8852 322.523 91.8852 322.259V319.859C91.8852 319.531 91.7759 319.281 91.5571 319.107C91.3429 318.93 91.0307 318.841 90.6206 318.841C90.2606 318.841 89.9666 318.902 89.7388 319.025C89.5154 319.144 89.3651 319.315 89.2876 319.538L89.2739 319.565H87.4282L87.435 319.504C87.4897 319.062 87.6561 318.677 87.9341 318.349C88.2166 318.021 88.5949 317.765 89.0688 317.583C89.5473 317.401 90.1011 317.31 90.73 317.31C91.3953 317.31 91.9604 317.412 92.4253 317.617C92.8901 317.818 93.2433 318.109 93.4848 318.492C93.7309 318.87 93.854 319.326 93.854 319.859V325H91.8852V324.002H91.7622C91.6346 324.234 91.4637 324.435 91.2495 324.604C91.0399 324.768 90.7938 324.895 90.5112 324.986C90.2332 325.073 89.9302 325.116 89.602 325.116ZM95.5791 325V317.474H97.5752V318.643H97.6982C97.8213 318.232 98.0468 317.916 98.375 317.692C98.7031 317.465 99.111 317.351 99.5986 317.351C99.7353 317.351 99.8675 317.36 99.9951 317.378C100.127 317.396 100.243 317.419 100.344 317.446V319.189C100.193 319.153 100.041 319.126 99.8857 319.107C99.7353 319.085 99.5826 319.073 99.4277 319.073C99.0494 319.073 98.7213 319.144 98.4433 319.285C98.1653 319.422 97.9511 319.618 97.8007 319.873C97.6504 320.128 97.5752 320.434 97.5752 320.789V325H95.5791ZM102.479 327.652C102.365 327.652 102.247 327.65 102.123 327.646C102 327.641 101.88 327.636 101.761 327.632V326.128C101.83 326.137 101.909 326.142 102 326.142C102.096 326.146 102.19 326.148 102.281 326.148C102.636 326.148 102.919 326.078 103.128 325.937C103.338 325.795 103.477 325.579 103.545 325.287L103.614 325L100.968 317.474H103.163L104.96 323.968L104.502 323.175H105.097L104.66 323.968L106.457 317.474H108.563L105.999 324.993C105.781 325.654 105.514 326.178 105.2 326.565C104.89 326.957 104.514 327.235 104.072 327.399C103.63 327.568 103.099 327.652 102.479 327.652Z" fill="black"/>
</g>
<g id="stairs_f2_01">
<rect id="room_stairs_f2_01" x="720" y="713.001" width="34" height="34" rx="5" fill="#D9D9D9"/>
<path id="label_stairs_f2_01" d="M737.144 723.968C736.847 723.968 736.576 723.897 736.33 723.756C736.089 723.61 735.895 723.416 735.749 723.175C735.603 722.929 735.53 722.658 735.53 722.361C735.53 722.065 735.603 721.796 735.749 721.555C735.895 721.309 736.089 721.113 736.33 720.967C736.576 720.821 736.847 720.748 737.144 720.748C737.435 720.748 737.704 720.821 737.95 720.967C738.196 721.113 738.39 721.309 738.531 721.555C738.677 721.796 738.75 722.065 738.75 722.361C738.75 722.658 738.677 722.929 738.531 723.175C738.39 723.416 738.196 723.61 737.95 723.756C737.704 723.897 737.435 723.968 737.144 723.968ZM738.032 735.616C737.786 735.548 737.62 735.418 737.533 735.227C737.447 735.04 737.435 734.846 737.499 734.646L738.271 732.055L735.414 731.385C734.817 731.243 734.416 731 734.211 730.653C734.01 730.302 733.942 729.869 734.006 729.354L734.313 726.873C734.323 726.823 734.309 726.789 734.272 726.771C734.241 726.748 734.204 726.748 734.163 726.771L733.329 727.29V729.689C733.329 729.908 733.249 730.095 733.09 730.25C732.935 730.405 732.75 730.482 732.536 730.482C732.322 730.482 732.135 730.405 731.976 730.25C731.821 730.095 731.743 729.908 731.743 729.689V726.859C731.743 726.723 731.777 726.595 731.846 726.477C731.914 726.354 732.003 726.258 732.112 726.189L734.402 724.761C734.635 724.619 734.901 724.517 735.202 724.453C735.507 724.385 735.847 724.385 736.221 724.453L736.617 724.535C736.959 724.599 737.262 724.736 737.526 724.945C737.791 725.15 738 725.406 738.155 725.711L739.058 727.495H741.402C741.612 727.495 741.794 727.573 741.949 727.728C742.109 727.878 742.188 728.06 742.188 728.274C742.188 728.498 742.109 728.685 741.949 728.835C741.794 728.985 741.612 729.061 741.402 729.061H738.572C738.249 729.061 738.012 728.917 737.861 728.63L737.342 727.611C737.314 727.557 737.276 727.534 737.226 727.543C737.175 727.552 737.148 727.582 737.144 727.632L736.822 729.785L739.536 730.722C739.75 730.795 739.898 730.927 739.98 731.118C740.067 731.305 740.081 731.496 740.021 731.692L739.003 735.09C738.93 735.34 738.789 735.5 738.579 735.568C738.369 735.637 738.187 735.653 738.032 735.616ZM732.816 738.152C732.63 738.034 732.513 737.868 732.468 737.653C732.427 737.439 732.468 737.241 732.591 737.059L734.594 734.058L734.737 731.979C734.815 732.007 734.895 732.034 734.977 732.062C735.059 732.089 735.147 732.114 735.243 732.137L736.446 732.417L736.166 734.345C736.143 734.509 736.082 734.666 735.981 734.816L733.896 737.92C733.755 738.13 733.575 738.243 733.356 738.262C733.138 738.28 732.958 738.243 732.816 738.152ZM735.893 739.369C735.738 739.369 735.61 739.314 735.51 739.205C735.414 739.1 735.366 738.975 735.366 738.829C735.366 738.692 735.416 738.572 735.517 738.467C735.617 738.367 735.742 738.316 735.893 738.316H737.602V737.079C737.602 736.933 737.652 736.808 737.752 736.703C737.857 736.603 737.98 736.553 738.121 736.553H739.83V735.322C739.83 735.181 739.878 735.058 739.974 734.953C740.074 734.848 740.199 734.796 740.35 734.796H742.059V733.565C742.059 733.424 742.109 733.301 742.209 733.196C742.309 733.091 742.435 733.039 742.585 733.039H744.779C744.925 733.039 745.05 733.091 745.155 733.196C745.26 733.301 745.312 733.424 745.312 733.565C745.312 733.711 745.26 733.837 745.155 733.941C745.05 734.046 744.925 734.099 744.779 734.099H743.111V735.322C743.111 735.468 743.059 735.591 742.954 735.691C742.854 735.796 742.731 735.849 742.585 735.849H740.876V737.079C740.876 737.229 740.824 737.355 740.719 737.455C740.618 737.56 740.495 737.612 740.35 737.612H738.654V738.829C738.654 738.979 738.602 739.107 738.497 739.212C738.392 739.317 738.267 739.369 738.121 739.369H735.893Z" fill="black"/>
<rect id="entrance_stairs_f2_01" width="25" height="7" rx="3.5" transform="matrix(1 0 0 -1 725 715.001)" fill="#A4A4A4"/>
</g>
<g id="stairs_f2_02">
<rect id="room_stairs_f2_02" x="281" y="374" width="34" height="34" rx="5" fill="#D9D9D9"/>
<path id="label_stairs_f2_02" d="M298.144 384.967C297.847 384.967 297.576 384.896 297.33 384.755C297.089 384.609 296.895 384.415 296.749 384.174C296.603 383.928 296.53 383.657 296.53 383.36C296.53 383.064 296.603 382.795 296.749 382.554C296.895 382.308 297.089 382.112 297.33 381.966C297.576 381.82 297.847 381.747 298.144 381.747C298.435 381.747 298.704 381.82 298.95 381.966C299.196 382.112 299.39 382.308 299.531 382.554C299.677 382.795 299.75 383.064 299.75 383.36C299.75 383.657 299.677 383.928 299.531 384.174C299.39 384.415 299.196 384.609 298.95 384.755C298.704 384.896 298.435 384.967 298.144 384.967ZM299.032 396.615C298.786 396.547 298.62 396.417 298.533 396.226C298.447 396.039 298.435 395.845 298.499 395.645L299.271 393.054L296.414 392.384C295.817 392.243 295.416 391.999 295.211 391.652C295.01 391.301 294.942 390.868 295.006 390.354L295.313 387.872C295.323 387.822 295.309 387.788 295.272 387.77C295.241 387.747 295.204 387.747 295.163 387.77L294.329 388.289V390.688C294.329 390.907 294.249 391.094 294.09 391.249C293.935 391.404 293.75 391.481 293.536 391.481C293.322 391.481 293.135 391.404 292.976 391.249C292.821 391.094 292.743 390.907 292.743 390.688V387.858C292.743 387.722 292.777 387.594 292.846 387.476C292.914 387.353 293.003 387.257 293.112 387.188L295.402 385.76C295.635 385.618 295.901 385.516 296.202 385.452C296.507 385.384 296.847 385.384 297.221 385.452L297.617 385.534C297.959 385.598 298.262 385.735 298.526 385.944C298.791 386.149 299 386.405 299.155 386.71L300.058 388.494H302.402C302.612 388.494 302.794 388.572 302.949 388.727C303.109 388.877 303.188 389.059 303.188 389.273C303.188 389.497 303.109 389.684 302.949 389.834C302.794 389.984 302.612 390.06 302.402 390.06H299.572C299.249 390.06 299.012 389.916 298.861 389.629L298.342 388.61C298.314 388.556 298.276 388.533 298.226 388.542C298.175 388.551 298.148 388.581 298.144 388.631L297.822 390.784L300.536 391.721C300.75 391.794 300.898 391.926 300.98 392.117C301.067 392.304 301.081 392.495 301.021 392.691L300.003 396.089C299.93 396.34 299.789 396.499 299.579 396.567C299.369 396.636 299.187 396.652 299.032 396.615ZM293.816 399.151C293.63 399.033 293.513 398.867 293.468 398.652C293.427 398.438 293.468 398.24 293.591 398.058L295.594 395.057L295.737 392.979C295.815 393.006 295.895 393.033 295.977 393.061C296.059 393.088 296.147 393.113 296.243 393.136L297.446 393.416L297.166 395.344C297.143 395.508 297.082 395.665 296.981 395.815L294.896 398.919C294.755 399.129 294.575 399.243 294.356 399.261C294.138 399.279 293.958 399.243 293.816 399.151ZM296.893 400.368C296.738 400.368 296.61 400.313 296.51 400.204C296.414 400.099 296.366 399.974 296.366 399.828C296.366 399.691 296.416 399.571 296.517 399.466C296.617 399.366 296.742 399.315 296.893 399.315H298.602V398.078C298.602 397.932 298.652 397.807 298.752 397.702C298.857 397.602 298.98 397.552 299.121 397.552H300.83V396.321C300.83 396.18 300.878 396.057 300.974 395.952C301.074 395.847 301.199 395.795 301.35 395.795H303.059V394.564C303.059 394.423 303.109 394.3 303.209 394.195C303.309 394.09 303.435 394.038 303.585 394.038H305.779C305.925 394.038 306.05 394.09 306.155 394.195C306.26 394.3 306.312 394.423 306.312 394.564C306.312 394.71 306.26 394.836 306.155 394.94C306.05 395.045 305.925 395.098 305.779 395.098H304.111V396.321C304.111 396.467 304.059 396.59 303.954 396.69C303.854 396.795 303.731 396.848 303.585 396.848H301.876V398.078C301.876 398.229 301.824 398.354 301.719 398.454C301.618 398.559 301.495 398.611 301.35 398.611H299.654V399.828C299.654 399.979 299.602 400.106 299.497 400.211C299.392 400.316 299.267 400.368 299.121 400.368H296.893Z" fill="black"/>
<rect id="entrance_stairs_f2_02" width="25" height="7" rx="3.5" transform="matrix(1 0 0 -1 285 376)" fill="#A4A4A4"/>
</g>
<g id="ios_lab_01">
<rect id="room_ios_lab_01" x="219" y="594.999" width="181" height="86" rx="10" fill="#D9D9D9"/>
<rect id="entrance_ios_lab_01" width="33" height="6" rx="3" transform="matrix(1 0 0 -1 335 597.999)" fill="#A4A4A4"/>
<path id="label_ios_lab_01" d="M279.196 642.999V633.135H281.261V642.999H279.196ZM287.737 643.252C286.762 643.252 285.918 643.042 285.207 642.623C284.497 642.199 283.947 641.6 283.56 640.825C283.177 640.05 282.986 639.132 282.986 638.07V638.057C282.986 636.99 283.18 636.072 283.567 635.302C283.959 634.527 284.51 633.93 285.221 633.511C285.932 633.091 286.771 632.882 287.737 632.882C288.707 632.882 289.546 633.091 290.252 633.511C290.963 633.93 291.513 634.527 291.9 635.302C292.287 636.076 292.481 636.995 292.481 638.057V638.07C292.481 639.132 292.287 640.05 291.9 640.825C291.517 641.6 290.97 642.199 290.259 642.623C289.548 643.042 288.707 643.252 287.737 643.252ZM287.737 641.502C288.27 641.502 288.735 641.361 289.131 641.078C289.528 640.796 289.833 640.397 290.047 639.882C290.266 639.367 290.375 638.763 290.375 638.07V638.057C290.375 637.359 290.266 636.756 290.047 636.245C289.833 635.73 289.528 635.334 289.131 635.056C288.735 634.773 288.27 634.632 287.737 634.632C287.204 634.632 286.739 634.773 286.342 635.056C285.946 635.334 285.638 635.73 285.419 636.245C285.201 636.756 285.091 637.359 285.091 638.057V638.07C285.091 638.763 285.198 639.367 285.413 639.882C285.631 640.397 285.937 640.796 286.329 641.078C286.725 641.361 287.194 641.502 287.737 641.502ZM297.74 643.252C296.956 643.252 296.275 643.133 295.696 642.896C295.117 642.66 294.662 642.327 294.329 641.898C294.001 641.465 293.816 640.957 293.775 640.374L293.769 640.265H295.758L295.765 640.333C295.792 640.579 295.892 640.796 296.065 640.982C296.243 641.165 296.48 641.308 296.776 641.413C297.073 641.518 297.412 641.57 297.795 641.57C298.164 641.57 298.488 641.516 298.766 641.406C299.044 641.297 299.26 641.146 299.415 640.955C299.575 640.759 299.654 640.536 299.654 640.285V640.278C299.654 639.955 299.522 639.695 299.258 639.499C298.998 639.303 298.561 639.141 297.945 639.014L296.906 638.802C295.881 638.592 295.136 638.248 294.671 637.77C294.206 637.291 293.974 636.678 293.974 635.931V635.924C293.974 635.313 294.135 634.78 294.459 634.324C294.783 633.868 295.227 633.515 295.792 633.265C296.357 633.009 297.004 632.882 297.733 632.882C298.499 632.882 299.155 633.007 299.702 633.258C300.254 633.504 300.684 633.843 300.994 634.276C301.304 634.705 301.479 635.195 301.52 635.746L301.527 635.835H299.586L299.572 635.753C299.531 635.516 299.431 635.309 299.271 635.131C299.116 634.953 298.907 634.814 298.643 634.714C298.383 634.609 298.08 634.557 297.733 634.557C297.396 634.557 297.1 634.607 296.845 634.707C296.589 634.807 296.391 634.949 296.25 635.131C296.109 635.309 296.038 635.521 296.038 635.767V635.773C296.038 636.092 296.166 636.354 296.421 636.56C296.681 636.76 297.1 636.92 297.679 637.038L298.725 637.25C299.422 637.391 299.989 637.583 300.427 637.824C300.869 638.066 301.195 638.369 301.404 638.733C301.614 639.098 301.719 639.538 301.719 640.053V640.06C301.719 640.711 301.557 641.276 301.233 641.755C300.914 642.229 300.456 642.598 299.859 642.862C299.267 643.122 298.561 643.252 297.74 643.252ZM306.823 642.999V633.135H308.888V641.297H313.276V642.999H306.823ZM316.772 643.115C316.298 643.115 315.874 643.024 315.5 642.842C315.131 642.655 314.842 642.393 314.632 642.056C314.423 641.714 314.318 641.315 314.318 640.859V640.846C314.318 640.395 314.429 640.007 314.653 639.684C314.881 639.36 315.211 639.107 315.644 638.925C316.081 638.738 316.612 638.626 317.237 638.59L320.039 638.419V639.636L317.537 639.8C317.109 639.823 316.79 639.914 316.58 640.073C316.371 640.233 316.266 640.449 316.266 640.723V640.736C316.266 641.023 316.375 641.249 316.594 641.413C316.813 641.577 317.095 641.659 317.442 641.659C317.752 641.659 318.027 641.598 318.269 641.475C318.51 641.352 318.702 641.185 318.843 640.976C318.984 640.761 319.055 640.522 319.055 640.258V637.858C319.055 637.53 318.946 637.28 318.727 637.106C318.513 636.929 318.201 636.84 317.79 636.84C317.43 636.84 317.136 636.901 316.909 637.024C316.685 637.143 316.535 637.314 316.457 637.537L316.444 637.564H314.598L314.605 637.503C314.66 637.061 314.826 636.676 315.104 636.348C315.386 636.02 315.765 635.764 316.239 635.582C316.717 635.4 317.271 635.309 317.9 635.309C318.565 635.309 319.13 635.411 319.595 635.616C320.06 635.817 320.413 636.108 320.655 636.491C320.901 636.869 321.024 637.325 321.024 637.858V642.999H319.055V642.001H318.932C318.804 642.233 318.634 642.434 318.419 642.603C318.21 642.767 317.964 642.894 317.681 642.985C317.403 643.072 317.1 643.115 316.772 643.115ZM327.192 643.115C326.837 643.115 326.513 643.065 326.222 642.965C325.93 642.86 325.675 642.712 325.456 642.521C325.242 642.329 325.069 642.099 324.936 641.83H324.813V642.999H322.817V632.595H324.813V636.676H324.936C325.064 636.398 325.237 636.161 325.456 635.965C325.679 635.769 325.937 635.618 326.228 635.514C326.525 635.404 326.846 635.35 327.192 635.35C327.826 635.35 328.37 635.505 328.826 635.814C329.282 636.124 329.633 636.569 329.879 637.147C330.125 637.726 330.248 638.419 330.248 639.226V639.239C330.248 640.041 330.123 640.732 329.872 641.311C329.626 641.889 329.275 642.336 328.819 642.65C328.363 642.96 327.821 643.115 327.192 643.115ZM326.509 641.461C326.864 641.461 327.167 641.372 327.418 641.194C327.673 641.017 327.869 640.761 328.006 640.429C328.147 640.096 328.218 639.7 328.218 639.239V639.226C328.218 638.765 328.147 638.371 328.006 638.043C327.869 637.71 327.673 637.455 327.418 637.277C327.167 637.095 326.864 637.004 326.509 637.004C326.162 637.004 325.859 637.095 325.599 637.277C325.344 637.455 325.146 637.71 325.005 638.043C324.863 638.371 324.793 638.768 324.793 639.232V639.246C324.793 639.702 324.861 640.096 324.998 640.429C325.139 640.761 325.337 641.017 325.593 641.194C325.852 641.372 326.158 641.461 326.509 641.461ZM337.431 642.999V635.083H337.307L334.888 636.765V634.905L337.437 633.135H339.495V642.999H337.431Z" fill="black"/>
</g>
</g>
</g>
</svg>
